<?xml version="1.0" encoding="UTF-8" standalone="no"?>
<!-- Created with Inkscape (http://www.inkscape.org/) -->

<svg
   width="210mm"
   height="297mm"
   viewBox="0 0 210 297"
   version="1.1"
   id="svg1"
   inkscape:version="1.4.3 (0d15f75042, 2025-12-25)"
   sodipodi:docname="web_logo.svg"
   xmlns:inkscape="http://www.inkscape.org/namespaces/inkscape"
   xmlns:sodipodi="http://sodipodi.sourceforge.net/DTD/sodipodi-0.dtd"
   xmlns="http://www.w3.org/2000/svg"
   xmlns:svg="http://www.w3.org/2000/svg">
  <sodipodi:namedview
     id="namedview1"
     pagecolor="#ffffff"
     bordercolor="#000000"
     borderopacity="0.25"
     inkscape:showpageshadow="2"
     inkscape:pageopacity="0.0"
     inkscape:pagecheckerboard="0"
     inkscape:deskcolor="#d1d1d1"
     inkscape:document-units="mm"
     inkscape:zoom="0.72782688"
     inkscape:cx="522.10218"
     inkscape:cy="323.56596"
     inkscape:window-width="1920"
     inkscape:window-height="1019"
     inkscape:window-x="0"
     inkscape:window-y="38"
     inkscape:window-maximized="1"
     inkscape:current-layer="layer1" />
  <defs
     id="defs1">
    <rect
       x="-284.40829"
       y="-61.82789"
       width="1268.1587"
       height="530.3459"
       id="rect5" />
    <rect
       x="252.5982"
       y="28.174415"
       width="438.16073"
       height="178.76181"
       id="rect2" />
    <rect
       x="-699.80463"
       y="2275.0779"
       width="367.29764"
       height="220.15045"
       id="rect1-7-0" />
    <rect
       x="-699.80463"
       y="2275.0779"
       width="367.29764"
       height="220.15045"
       id="rect1-7-0-6" />
    <rect
       x="-699.80463"
       y="2275.0779"
       width="367.29764"
       height="220.15045"
       id="rect1-7-0-6-8" />
    <rect
       x="-699.80463"
       y="2275.0779"
       width="367.29764"
       height="220.15045"
       id="rect1-7-0-8" />
    <rect
       x="-699.80463"
       y="2275.0779"
       width="367.29764"
       height="220.15045"
       id="rect1-7-0-6-8-7" />
  </defs>
  <g
     inkscape:label="Layer 1"
     inkscape:groupmode="layer"
     id="layer1">
    <rect
       style="fill:none;stroke:#000000;stroke-width:0.207767;stroke-linecap:round;stroke-linejoin:round"
       id="rect1"
       width="210"
       height="75.992546"
       x="-21.811506"
       y="283.40961" />
    <g
       id="g37-7-8-0-07-4-6-8-7-0-5-8-2-4-3-1-8-3-2-7-3-2-3"
       style="stroke:#3c3c3c;stroke-opacity:1"
       transform="matrix(2.404978,0,0,2.404978,580.666,-287.76369)">
      <path
         style="fill:none;fill-opacity:1;stroke:#3c3c3c;stroke-width:0.66;stroke-linecap:round;stroke-linejoin:round;stroke-opacity:1"
         d="m -229.17122,246.79438 c 0.78803,-3.68771 6.87454,-4.2841 7.55085,-0.7119 0.45832,2.42076 0.32778,6.56605 0.16145,7.84522 -0.57913,4.45381 -3.92637,6.81317 -8.42576,7.55931 -8.45257,1.40169 -11.89044,-2.14845 -13.13443,-6.09057 m -0.57761,-5.41609 c 0.0993,-1.78901 0.43602,-2.94694 0.60845,-3.02731 m 3.16352,2.32 c -0.96111,-0.92764 -1.58223,-1.66361 -3.16352,-2.32 m 15.57452,6.00012 c -0.18328,1.40953 -0.7318,2.5888 -1.53015,3.49613 -1.72426,1.95962 -4.61387,2.6507 -7.5061,1.65333 -14.58846,-5.03077 -10.31679,-7.92602 -3.37475,-8.82958 4.51913,-0.58821 10.1699,-0.33239 12.48606,0.72777 2.57738,1.17973 4.09153,1.79288 4.30549,1.38585 0.49766,-0.94671 -1.9339,-2.30372 -4.14239,-2.32555 m 0,0 c -0.24745,-0.1689 0.14105,-1.32397 -0.38752,-1.3852 -0.92136,-0.10674 -1.20741,-0.89999 -1.60811,-0.88153 -2.31644,0.10673 -3.28548,0.37392 -3.28097,0.91006 0.008,0.9377 -0.57757,1.76908 5.2766,1.35667 M -236.3,261.57325 c -0.6463,0.22198 -1.56862,0.43075 -2.51287,0.61093 -1.84028,0.35116 -3.76384,0.59374 -3.88961,0.61398 -0.0703,0.0113 -0.85645,-2.26665 0.51355,-2.88505 0.53637,-0.24211 3.37606,2.27107 3.37606,2.27107 m 13.3116,-16.29562 c -0.55922,-0.43334 -1.05471,-0.31459 -1.52966,0.36807 m -2.41939,1.6387 c -0.75201,0.20929 0.732,-0.0722 0,0 m 2.49184,8.12877 c 0.72916,1.78947 -1.49491,1.70614 0.90315,4.21292 m -15.61359,-5.40068 c 1.11968,-2.91268 1.25513,-4.62573 2.35952,-4.45343 m -2.26777,2.40809 c 0.86924,-0.0985 -0.0436,-0.0265 1.34583,-0.0519 m 0.3236,2.69064 c 0.69907,-1.81853 1.38247,-3.45607 2.07331,-4.59451 0.42802,-0.70533 1.59194,-0.49718 2.34025,-0.48581 m -3.29479,2.50146 c 0.37574,-0.0451 0.68998,-0.0799 1.59925,0.0148"
         id="path320-29-2-2-47-0-7-5-6-5-0-9-8-4-6-2-1-8-2-2-8-1-8-8-1-4-5-7-8"
         sodipodi:nodetypes="csssccccccsssssccsssccsssccccccccccccsccc" />
    </g>
    <g
       id="g37-7-8-0-07-4-6-8-7-0-5-8-2-4-3-1-8-3-2-7-3-2-3-3"
       style="stroke:#3c3c3c;stroke-opacity:1"
       transform="matrix(2.404978,0,0,2.404978,870.16629,-397.24217)">
      <path
         style="fill:none;fill-opacity:1;stroke:#3c3c3c;stroke-width:0.66;stroke-linecap:round;stroke-linejoin:round;stroke-opacity:1"
         d="m -229.17122,246.79438 c 0.78803,-3.68771 6.87454,-4.2841 7.55085,-0.7119 0.45832,2.42076 0.32778,6.56605 0.16145,7.84522 -0.57913,4.45381 -3.92637,6.81317 -8.42576,7.55931 -8.45257,1.40169 -11.89044,-2.14845 -13.13443,-6.09057 m -0.57761,-5.41609 c 0.0993,-1.78901 0.43602,-2.94694 0.60845,-3.02731 m 3.16352,2.32 c -0.96111,-0.92764 -1.58223,-1.66361 -3.16352,-2.32 m 15.57452,6.00012 c -0.18328,1.40953 -0.7318,2.5888 -1.53015,3.49613 -1.72426,1.95962 -4.61387,2.6507 -7.5061,1.65333 -14.58846,-5.03077 -10.31679,-7.92602 -3.37475,-8.82958 4.51913,-0.58821 10.1699,-0.33239 12.48606,0.72777 2.57738,1.17973 4.09153,1.79288 4.30549,1.38585 0.49766,-0.94671 -1.9339,-2.30372 -4.14239,-2.32555 m 0,0 c -0.24745,-0.1689 0.14105,-1.32397 -0.38752,-1.3852 -0.92136,-0.10674 -1.20741,-0.89999 -1.60811,-0.88153 -2.31644,0.10673 -3.28548,0.37392 -3.28097,0.91006 0.008,0.9377 -0.57757,1.76908 5.2766,1.35667 M -236.3,261.57325 c -0.6463,0.22198 -1.56862,0.43075 -2.51287,0.61093 -1.84028,0.35116 -3.76384,0.59374 -3.88961,0.61398 -0.0703,0.0113 -0.85645,-2.26665 0.51355,-2.88505 0.53637,-0.24211 3.37606,2.27107 3.37606,2.27107 m 13.3116,-16.29562 c -0.55922,-0.43334 -1.05471,-0.31459 -1.52966,0.36807 m -2.41939,1.6387 c -0.75201,0.20929 0.732,-0.0722 0,0 m 2.49184,8.12877 c 0.72916,1.78947 -1.49491,1.70614 0.90315,4.21292 m -15.61359,-5.40068 c 1.11968,-2.91268 1.25513,-4.62573 2.35952,-4.45343 m -2.26777,2.40809 c 0.86924,-0.0985 -0.0436,-0.0265 1.34583,-0.0519 m 0.3236,2.69064 c 0.69907,-1.81853 1.38247,-3.45607 2.07331,-4.59451 0.42802,-0.70533 1.59194,-0.49718 2.34025,-0.48581 m -3.29479,2.50146 c 0.37574,-0.0451 0.68998,-0.0799 1.59925,0.0148"
         id="path320-29-2-2-47-0-7-5-6-5-0-9-8-4-6-2-1-8-2-2-8-1-8-8-1-4-5-7-8-5"
         sodipodi:nodetypes="csssccccccsssssccsssccsssccccccccccccsccc" />
    </g>
    <text
       xml:space="preserve"
       transform="matrix(1.2790733,0,0,1.2790733,955.57345,-2611.3337)"
       id="text1-5-5"
       style="font-style:normal;font-variant:normal;font-weight:300;font-stretch:normal;font-size:24px;line-height:0.8;font-family:Inter;-inkscape-font-specification:'Inter Light';writing-mode:lr-tb;direction:ltr;white-space:pre;shape-inside:url(#rect1-7-0);display:inline;fill:#3c3c3c;fill-opacity:1;stroke:none;stroke-width:0.449764;stroke-linecap:round;stroke-linejoin:round"><tspan
         x="-699.80469"
         y="2291.8936"
         id="tspan2"><tspan
           style="letter-spacing:-0.0712922"
           id="tspan1">fFlori4n`s
</tspan></tspan><tspan
         x="-699.80469"
         y="2311.0936"
         id="tspan4"><tspan
           style="letter-spacing:-0.0712922"
           id="tspan3">website</tspan></tspan></text>
    <rect
       style="fill:none;stroke:#000000;stroke-width:0.207767;stroke-linecap:round;stroke-linejoin:round"
       id="rect1-1"
       width="210"
       height="75.992546"
       x="-21.811506"
       y="359.60992" />
    <g
       id="g37-7-8-0-07-4-6-8-7-0-5-8-2-4-3-1-8-3-2-7-3-2-3-0"
       style="stroke:#3c3c3c;stroke-opacity:1"
       transform="matrix(2.404978,0,0,2.404978,580.666,-211.56337)">
      <path
         style="fill:none;fill-opacity:1;stroke:#3c3c3c;stroke-width:0.66;stroke-linecap:round;stroke-linejoin:round;stroke-opacity:1"
         d="m -229.17122,246.79438 c 0.78803,-3.68771 6.87454,-4.2841 7.55085,-0.7119 0.45832,2.42076 0.32778,6.56605 0.16145,7.84522 -0.57913,4.45381 -3.92637,6.81317 -8.42576,7.55931 -8.45257,1.40169 -11.89044,-2.14845 -13.13443,-6.09057 m -0.57761,-5.41609 c 0.0993,-1.78901 0.43602,-2.94694 0.60845,-3.02731 m 3.16352,2.32 c -0.96111,-0.92764 -1.58223,-1.66361 -3.16352,-2.32 m 15.57452,6.00012 c -0.18328,1.40953 -0.7318,2.5888 -1.53015,3.49613 -1.72426,1.95962 -4.61387,2.6507 -7.5061,1.65333 -14.58846,-5.03077 -10.31679,-7.92602 -3.37475,-8.82958 4.51913,-0.58821 10.1699,-0.33239 12.48606,0.72777 2.57738,1.17973 4.09153,1.79288 4.30549,1.38585 0.49766,-0.94671 -1.9339,-2.30372 -4.14239,-2.32555 m 0,0 c -0.24745,-0.1689 0.14105,-1.32397 -0.38752,-1.3852 -0.92136,-0.10674 -1.20741,-0.89999 -1.60811,-0.88153 -2.31644,0.10673 -3.28548,0.37392 -3.28097,0.91006 0.008,0.9377 -0.57757,1.76908 5.2766,1.35667 M -236.3,261.57325 c -0.6463,0.22198 -1.56862,0.43075 -2.51287,0.61093 -1.84028,0.35116 -3.76384,0.59374 -3.88961,0.61398 -0.0703,0.0113 -0.85645,-2.26665 0.51355,-2.88505 0.53637,-0.24211 3.37606,2.27107 3.37606,2.27107 m 13.3116,-16.29562 c -0.55922,-0.43334 -1.05471,-0.31459 -1.52966,0.36807 m -2.41939,1.6387 c -0.75201,0.20929 0.732,-0.0722 0,0 m 2.49184,8.12877 c 0.72916,1.78947 -1.49491,1.70614 0.90315,4.21292 m -15.61359,-5.40068 c 1.11968,-2.91268 1.25513,-4.62573 2.35952,-4.45343 m -2.26777,2.40809 c 0.86924,-0.0985 -0.0436,-0.0265 1.34583,-0.0519 m 0.3236,2.69064 c 0.69907,-1.81853 1.38247,-3.45607 2.07331,-4.59451 0.42802,-0.70533 1.59194,-0.49718 2.34025,-0.48581 m -3.29479,2.50146 c 0.37574,-0.0451 0.68998,-0.0799 1.59925,0.0148"
         id="path320-29-2-2-47-0-7-5-6-5-0-9-8-4-6-2-1-8-2-2-8-1-8-8-1-4-5-7-8-3"
         sodipodi:nodetypes="csssccccccsssssccsssccsssccccccccccccsccc" />
    </g>
    <text
       xml:space="preserve"
       transform="matrix(1.2790733,0,0,1.2790733,955.57343,-2535.1333)"
       id="text1-5-5-0"
       style="font-style:normal;font-variant:normal;font-weight:300;font-stretch:normal;font-size:24px;line-height:0.8;font-family:Inter;-inkscape-font-specification:'Inter Light';writing-mode:lr-tb;direction:ltr;white-space:pre;shape-inside:url(#rect1-7-0-8);display:inline;fill:#3c3c3c;fill-opacity:1;stroke:none;stroke-width:0.449764;stroke-linecap:round;stroke-linejoin:round"><tspan
         x="-699.80469"
         y="2291.8936"
         id="tspan6"><tspan
           style="font-style:italic;-inkscape-font-specification:'Inter Light Italic';letter-spacing:-0.0712922"
           id="tspan5">fFlori4n`s
</tspan></tspan><tspan
         x="-699.80469"
         y="2311.0936"
         id="tspan8"><tspan
           style="font-style:italic;-inkscape-font-specification:'Inter Light Italic';letter-spacing:-0.0712922"
           id="tspan7">website</tspan></tspan></text>
    <rect
       style="fill:none;stroke:none;stroke-width:0.207767;stroke-linecap:round;stroke-linejoin:round"
       id="rect1-1-9"
       width="210"
       height="75.992546"
       x="0"
       y="-3.3229589e-06" />
    <g
       id="g6"
       transform="translate(-0.72705018,-2.5446756)">
      <g
         id="g37-7-8-0-07-4-6-8-7-0-5-8-2-4-3-1-8-3-2-7-3-2-3-2-6"
         style="stroke:#3c3c3c;stroke-opacity:1"
         transform="matrix(2.5886151,0,0,2.5886151,643.29878,-615.95904)">
        <path
           style="fill:none;fill-opacity:1;stroke:#3c3c3c;stroke-width:0.66;stroke-linecap:round;stroke-linejoin:round;stroke-opacity:1"
           d="m -229.17122,246.79438 c 0.78803,-3.68771 6.87454,-4.2841 7.55085,-0.7119 0.45832,2.42076 0.32778,6.56605 0.16145,7.84522 -0.57913,4.45381 -3.92637,6.81317 -8.42576,7.55931 -8.45257,1.40169 -11.89044,-2.14845 -13.13443,-6.09057 m -0.57761,-5.41609 c 0.0993,-1.78901 0.43602,-2.94694 0.60845,-3.02731 m 3.16352,2.32 c -0.96111,-0.92764 -1.58223,-1.66361 -3.16352,-2.32 m 15.57452,6.00012 c -0.18328,1.40953 -0.7318,2.5888 -1.53015,3.49613 -1.72426,1.95962 -4.61387,2.6507 -7.5061,1.65333 -14.58846,-5.03077 -10.31679,-7.92602 -3.37475,-8.82958 4.51913,-0.58821 10.1699,-0.33239 12.48606,0.72777 2.57738,1.17973 4.09153,1.79288 4.30549,1.38585 0.49766,-0.94671 -1.9339,-2.30372 -4.14239,-2.32555 m 0,0 c -0.24745,-0.1689 0.14105,-1.32397 -0.38752,-1.3852 -0.92136,-0.10674 -1.20741,-0.89999 -1.60811,-0.88153 -2.31644,0.10673 -3.28548,0.37392 -3.28097,0.91006 0.008,0.9377 -0.57757,1.76908 5.2766,1.35667 M -236.3,261.57325 c -0.6463,0.22198 -1.56862,0.43075 -2.51287,0.61093 -1.84028,0.35116 -3.76384,0.59374 -3.88961,0.61398 -0.0703,0.0113 -0.85645,-2.26665 0.51355,-2.88505 0.53637,-0.24211 3.37606,2.27107 3.37606,2.27107 m 13.3116,-16.29562 c -0.55922,-0.43334 -1.05471,-0.31459 -1.52966,0.36807 m -2.41939,1.6387 c -0.75201,0.20929 0.732,-0.0722 0,0 m 2.49184,8.12877 c 0.72916,1.78947 -1.49491,1.70614 0.90315,4.21292 m -15.61359,-5.40068 c 1.11968,-2.91268 1.25513,-4.62573 2.35952,-4.45343 m -2.26777,2.40809 c 0.86924,-0.0985 -0.0436,-0.0265 1.34583,-0.0519 m 0.3236,2.69064 c 0.69907,-1.81853 1.38247,-3.45607 2.07331,-4.59451 0.42802,-0.70533 1.59194,-0.49718 2.34025,-0.48581 m -3.29479,2.50146 c 0.37574,-0.0451 0.68998,-0.0799 1.59925,0.0148"
           id="path320-29-2-2-47-0-7-5-6-5-0-9-8-4-6-2-1-8-2-2-8-1-8-8-1-4-5-7-8-7-3"
           sodipodi:nodetypes="csssccccccsssssccsssccsssccccccccccccsccc" />
      </g>
      <text
         xml:space="preserve"
         transform="matrix(1.3767396,0,0,1.3767396,1046.8331,-3116.9501)"
         id="text1-5-5-0-8"
         style="font-style:normal;font-variant:normal;font-weight:300;font-stretch:normal;font-size:24px;line-height:0.8;font-family:Inter;-inkscape-font-specification:'Inter Light';writing-mode:lr-tb;direction:ltr;white-space:pre;shape-inside:url(#rect1-7-0-6-8);display:inline;fill:#3c3c3c;fill-opacity:1;stroke:none;stroke-width:0.449764;stroke-linecap:round;stroke-linejoin:round"><tspan
           x="-699.80469"
           y="2291.8936"
           id="tspan10"><tspan
             style="font-weight:normal;font-family:'GE Inspira';-inkscape-font-specification:'GE Inspira';letter-spacing:-0.0712922"
             id="tspan9">fFlori4n`s
</tspan></tspan><tspan
           x="-699.80469"
           y="2311.5775"
           id="tspan12"><tspan
             style="font-weight:normal;font-family:'GE Inspira';-inkscape-font-specification:'GE Inspira';letter-spacing:-0.0712922"
             id="tspan11">website</tspan></tspan></text>
    </g>
    <text
       xml:space="preserve"
       transform="scale(0.26458333)"
       id="text1"
       style="fill:#999999;text-orientation:auto;stroke-width:0.68787402;stroke-linecap:round;stroke-linejoin:round;-inkscape-font-specification:'Inter Light Italic';font-family:Inter;font-size:24px;line-height:1;font-weight:300;font-style:italic;stroke:#000000;writing-mode:lr-tb;direction:ltr;white-space:pre;shape-inside:url(#rect2)" />
    <text
       xml:space="preserve"
       transform="scale(0.26458333)"
       id="text5"
       style="fill:#3c3c3c;text-orientation:auto;stroke-width:0.68787402;stroke-linecap:round;stroke-linejoin:round;-inkscape-font-specification:'Inter Light Italic';font-family:Inter;font-size:24px;line-height:1;font-weight:300;font-style:italic;stroke:#3c3c3c;writing-mode:lr-tb;direction:ltr;stroke-opacity:1;fill-opacity:1;white-space:pre;shape-inside:url(#rect5)" />
    <rect
       style="fill:#fefefe;fill-opacity:1;stroke:none;stroke-width:0.0495059;stroke-linecap:round;stroke-linejoin:round"
       id="rect1-1-9-6"
       width="50.03793"
       height="18.107187"
       x="379.19476"
       y="442.10297" />
    <g
       id="g37-7-8-0-07-4-6-8-7-0-5-8-2-4-3-1-8-3-2-7-3-2-3-2-6-2"
       style="stroke:#3c3c3c;stroke-opacity:1"
       transform="matrix(0.57304817,0,0,0.57304817,522.75058,306.00619)">
      <path
         style="fill:none;fill-opacity:1;stroke:#3c3c3c;stroke-width:0.66;stroke-linecap:round;stroke-linejoin:round;stroke-opacity:1"
         d="m -229.17122,246.79438 c 0.78803,-3.68771 6.87454,-4.2841 7.55085,-0.7119 0.45832,2.42076 0.32778,6.56605 0.16145,7.84522 -0.57913,4.45381 -3.92637,6.81317 -8.42576,7.55931 -8.45257,1.40169 -11.89044,-2.14845 -13.13443,-6.09057 m -0.57761,-5.41609 c 0.0993,-1.78901 0.43602,-2.94694 0.60845,-3.02731 m 3.16352,2.32 c -0.96111,-0.92764 -1.58223,-1.66361 -3.16352,-2.32 m 15.57452,6.00012 c -0.18328,1.40953 -0.7318,2.5888 -1.53015,3.49613 -1.72426,1.95962 -4.61387,2.6507 -7.5061,1.65333 -14.58846,-5.03077 -10.31679,-7.92602 -3.37475,-8.82958 4.51913,-0.58821 10.1699,-0.33239 12.48606,0.72777 2.57738,1.17973 4.09153,1.79288 4.30549,1.38585 0.49766,-0.94671 -1.9339,-2.30372 -4.14239,-2.32555 m 0,0 c -0.24745,-0.1689 0.14105,-1.32397 -0.38752,-1.3852 -0.92136,-0.10674 -1.20741,-0.89999 -1.60811,-0.88153 -2.31644,0.10673 -3.28548,0.37392 -3.28097,0.91006 0.008,0.9377 -0.57757,1.76908 5.2766,1.35667 M -236.3,261.57325 c -0.6463,0.22198 -1.56862,0.43075 -2.51287,0.61093 -1.84028,0.35116 -3.76384,0.59374 -3.88961,0.61398 -0.0703,0.0113 -0.85645,-2.26665 0.51355,-2.88505 0.53637,-0.24211 3.37606,2.27107 3.37606,2.27107 m 13.3116,-16.29562 c -0.55922,-0.43334 -1.05471,-0.31459 -1.52966,0.36807 m -2.41939,1.6387 c -0.75201,0.20929 0.732,-0.0722 0,0 m 2.49184,8.12877 c 0.72916,1.78947 -1.49491,1.70614 0.90315,4.21292 m -15.61359,-5.40068 c 1.11968,-2.91268 1.25513,-4.62573 2.35952,-4.45343 m -2.26777,2.40809 c 0.86924,-0.0985 -0.0436,-0.0265 1.34583,-0.0519 m 0.3236,2.69064 c 0.69907,-1.81853 1.38247,-3.45607 2.07331,-4.59451 0.42802,-0.70533 1.59194,-0.49718 2.34025,-0.48581 m -3.29479,2.50146 c 0.37574,-0.0451 0.68998,-0.0799 1.59925,0.0148"
         id="path320-29-2-2-47-0-7-5-6-5-0-9-8-4-6-2-1-8-2-2-8-1-8-8-1-4-5-7-8-7-3-1"
         sodipodi:nodetypes="csssccccccsssssccsssccsssccccccccccccsccc" />
    </g>
    <text
       xml:space="preserve"
       transform="matrix(0.30477227,0,0,0.30477227,612.08197,-247.64439)"
       id="text1-5-5-0-8-7"
       style="font-style:normal;font-variant:normal;font-weight:300;font-stretch:normal;font-size:24px;line-height:0.8;font-family:Inter;-inkscape-font-specification:'Inter Light';writing-mode:lr-tb;direction:ltr;white-space:pre;shape-inside:url(#rect1-7-0-6-8-7);display:inline;fill:#3c3c3c;fill-opacity:1;stroke:none;stroke-width:0.449764;stroke-linecap:round;stroke-linejoin:round"><tspan
         x="-699.80469"
         y="2291.8936"
         id="tspan14"><tspan
           style="font-weight:normal;font-family:'GE Inspira';-inkscape-font-specification:'GE Inspira';letter-spacing:-0.0712922"
           id="tspan13">fFlori4n`s
</tspan></tspan><tspan
         x="-699.80469"
         y="2311.5775"
         id="tspan16"><tspan
           style="font-weight:normal;font-family:'GE Inspira';-inkscape-font-specification:'GE Inspira';letter-spacing:-0.0712922"
           id="tspan15">website</tspan></tspan></text>
    <g
       id="g4"
       style="fill:#3c3c3c;fill-opacity:1;stroke:#3c3c3c;stroke-opacity:1"
       inkscape:export-filename="web_logo_only_wfill.png"
       inkscape:export-xdpi="173.59"
       inkscape:export-ydpi="173.59"
       transform="translate(61.799266,135.23133)">
      <path
         style="fill:#3c3c3c;fill-opacity:1;stroke:#3c3c3c;stroke-width:1.51181;stroke-linecap:round;stroke-linejoin:round;stroke-dasharray:none;stroke-opacity:1"
         d="m 1116.0822,359.13054 c 0.085,-0.61664 0.4016,-3.19781 0.7038,-5.73594 0.6263,-5.2598 2.3295,-13.11567 2.8435,-13.11567 0.6091,0 8.9823,4.93056 10.9903,6.47163 2.9187,2.23994 8.9868,7.65796 8.9863,8.02357 -2e-4,0.17636 -2.8482,0.82782 -6.3289,1.44769 -5.9843,1.06577 -14.8374,3.05679 -16.5611,3.72457 -0.6086,0.23574 -0.753,0.0498 -0.6339,-0.81585 z"
         id="path1"
         transform="scale(0.26458333)" />
      <path
         style="fill:#3c3c3c;fill-opacity:1;stroke:#3c3c3c;stroke-width:1.51181;stroke-linecap:round;stroke-linejoin:round;stroke-dasharray:none;stroke-opacity:1"
         d="m 1196.9269,467.70902 c -30.8063,-2.20649 -52.1626,-13.23894 -65.8764,-34.03109 -2.5632,-3.88621 -7.6574,-13.71216 -7.2963,-14.07333 0.099,-0.0988 1.9027,0.61312 4.0085,1.58211 16.3506,7.5238 43.5487,18.06319 53.8626,20.87205 31.0652,8.46023 61.5078,-3.6003 74.6393,-29.57011 2.4344,-4.81452 4.9766,-12.41861 6.0032,-17.95682 0.7175,-3.87028 0.7216,-4.39203 0.043,-5.42802 -0.9457,-1.44339 -2.2377,-1.86489 -3.8441,-1.25414 -1.3652,0.51904 -1.5251,0.95289 -3.2349,8.77809 -1.2464,5.70416 -3.517,11.39763 -6.6255,16.61364 -2.9456,4.94247 -10.6439,12.88464 -15.6863,16.18309 -13.7137,8.97077 -32.8038,11.37068 -50.2447,6.31649 -10.1808,-2.95028 -34.8309,-12.42541 -48.7224,-18.72813 -22.1102,-10.03162 -36.8537,-20.2732 -40.7213,-28.28699 -4.0793,-8.45252 2.6264,-15.17916 21.2547,-21.32109 20.2272,-6.66908 50.35,-10.07432 83.8981,-9.48428 16.5812,0.29163 26.5605,1.03386 37.4039,2.78198 12.6275,2.03573 17.095,3.39458 29.8746,9.08673 17.7124,7.88922 26.0359,10.80829 30.819,10.80829 3.4758,0 5.1019,-0.96416 6.1194,-3.62843 1.4583,-3.81862 0.1807,-7.59279 -3.9385,-11.63471 -6.2623,-6.14469 -20.019,-11.77647 -31.1278,-12.74321 l -3.4713,-0.30209 -0.025,-3.78821 c -0.032,-4.92851 -1.1367,-7.27754 -3.9507,-8.40349 -1.0859,-0.43447 -2.3086,-0.78995 -2.7172,-0.78995 -1.555,0 -3.9328,-1.53826 -8.3744,-5.41761 l -1.6076,-1.40409 1.7052,-3.51132 c 4.8813,-10.05121 15.5769,-17.15702 28.3914,-18.86232 13.6454,-1.81586 25.7313,3.68712 30.1786,13.74106 1.2198,2.75747 2.6365,11.00583 3.4887,20.31193 0.8304,9.06736 0.8299,41.11723 -8e-4,49.791 -1.4689,15.33854 -4.9066,25.73266 -12.1298,36.67531 -4.9304,7.46924 -14.8592,16.4983 -23.4241,21.30141 l -2.6946,1.51113 -2.7804,-3.51257 c -5.6174,-7.09691 -6.2978,-10.19807 -3.6722,-16.73705 1.9323,-4.81202 2.3153,-9.08044 1.1706,-13.04329 -1.0034,-3.47397 -1.9042,-4.57837 -3.7341,-4.57837 -1.3717,0 -3.3251,1.45427 -3.3251,2.47551 0,0.29284 0.354,1.75022 0.7867,3.23861 0.9845,3.38673 0.6853,5.99873 -1.2377,10.80192 -3.107,7.76062 -1.7564,13.08622 5.821,22.95236 l 1.0259,1.33577 -2.3479,1.00796 c -4.3946,1.88665 -13.5051,4.72815 -19.3496,6.03497 -14.9752,3.34842 -35.741,5.19125 -48.3337,4.2893 z m -49.2361,-51.87507 c 0.65,-0.45531 2.6377,-4.7426 5.538,-11.94532 l 4.524,-11.23512 7.2427,0.1655 c 7.1192,0.16268 7.2585,0.14595 8.1715,-0.98128 1.0461,-1.29145 1.153,-2.14166 0.4374,-3.47867 -0.6928,-1.29444 -3.4357,-1.92652 -8.3737,-1.92967 -2.3378,-0.001 -4.2505,-0.12339 -4.2505,-0.27088 0,-0.46176 3.8733,-8.09054 5.7161,-11.25845 2.5808,-4.43631 3.4102,-4.73949 13.0697,-4.77724 8.7208,-0.0341 9.3886,-0.24097 9.3886,-2.90868 0,-3.23134 -2.2088,-3.87275 -12.0353,-3.49484 -7.4026,0.2847 -10.1243,1.117 -12.9488,3.95982 -3.5482,3.57117 -9.9746,16.62371 -17.5901,35.72688 -4.1957,10.52488 -4.2942,11.18493 -1.8733,12.55769 1.2942,0.73393 1.7808,0.71277 2.9837,-0.12974 z m -16.3215,-5.13012 c 1.317,-0.70481 1.7623,-1.6812 4.8699,-10.67571 l 2.7691,-8.01514 2.9593,-0.14432 c 3.1084,-0.15159 4.4396,-1.09414 4.4396,-3.14332 0,-1.29363 -2.1887,-3.27019 -3.6211,-3.27019 -0.6801,0 -1.2365,-0.20557 -1.2365,-0.45682 0,-0.96252 2.5993,-7.68336 3.9966,-10.33377 1.7219,-3.26597 2.8923,-4.15155 5.7601,-4.35851 1.6794,-0.12119 2.2569,-0.40891 2.811,-1.4006 2.1079,-3.7725 -2.8758,-6.22645 -7.9571,-3.91806 -3.7162,1.68824 -6.7574,6.4456 -9.9788,15.6101 -0.8922,2.53812 -1.8528,4.77537 -2.1346,4.97166 -0.2818,0.19629 -1.3321,0.36023 -2.334,0.36432 -2.1834,0.009 -3.7647,1.37321 -3.7647,3.24811 0,1.73552 1.2978,3.07429 2.9801,3.07429 h 1.3721 l -2.4853,6.92216 c -3.201,8.91545 -3.3069,9.64062 -1.6034,10.98059 1.5018,1.18129 1.8552,1.24231 3.1577,0.54521 z m 135.4074,-80.19672 c 3.1367,-3.40963 4.0254,-3.67654 7.1504,-2.14761 2.9476,1.44213 3.9645,1.52632 5.1774,0.42864 1.1357,-1.02777 1.1574,-3.66662 0.038,-4.65048 -1.304,-1.14639 -4.5916,-2.68788 -6.459,-3.02846 -3.5453,-0.64661 -8.3712,1.80932 -11.1832,5.69122 -1.6668,2.30091 -1.8028,3.87023 -0.4525,5.22049 1.6492,1.64924 3.1944,1.24092 5.7287,-1.5138 z"
         id="path2"
         transform="scale(0.26458333)" />
      <path
         style="fill:#3c3c3c;fill-opacity:1;stroke:#3c3c3c;stroke-width:1.51181;stroke-linecap:round;stroke-linejoin:round;stroke-dasharray:none;stroke-opacity:1"
         d="m 1226.0728,352.59337 c -0.6679,-0.10074 -2.5847,-0.53354 -4.2595,-0.96179 -3.9883,-1.01976 -4.97,-2.21755 -4.97,-6.06354 0,-2.43039 0.1614,-2.94367 1.1243,-3.57456 2.5404,-1.66458 8.8261,-2.75549 22.4357,-3.89389 l 3.4007,-0.28445 2.9142,2.49926 c 3.0886,2.64881 8.0149,5.30693 9.8364,5.30757 1.0272,3.6e-4 1.093,0.201 1.093,3.3305 v 3.33011 l -3.2789,0.30968 c -3.4061,0.32168 -26.1645,0.32258 -28.2959,10e-4 z m 17.0508,-4.6043 c 2.0202,-0.67029 2.8656,-1.66034 2.8656,-3.35581 0,-1.96216 -1.6055,-3.12302 -4.1651,-3.01162 -4.8909,0.21286 -7.1642,3.1639 -4.6724,6.06522 0.8481,0.98755 3.5016,1.12184 5.9719,0.30221 z"
         id="path3"
         transform="scale(0.26458333)" />
      <path
         style="fill:#3c3c3c;fill-opacity:1;stroke:#3c3c3c;stroke-width:1.51181;stroke-linecap:round;stroke-linejoin:round;stroke-dasharray:none;stroke-opacity:1"
         d="m 1122.417,475.944 c -0.7551,-2.48644 -1.3016,-7.9874 -1.027,-10.3375 0.3899,-3.33756 1.8626,-6.5041 3.6003,-7.74145 1.328,-0.94562 1.3354,-0.94525 3.723,0.18634 1.3158,0.62361 4.0696,2.30538 6.1196,3.73727 4.2256,2.95148 14.0976,10.68707 13.8942,10.88736 -0.074,0.0726 -5.2709,0.91664 -11.5494,1.87574 -6.2785,0.9591 -12.1091,1.85936 -12.9568,2.00056 -1.1954,0.19914 -1.6002,0.0627 -1.8039,-0.60832 z"
         id="path4"
         transform="scale(0.26458333)" />
    </g>
  </g>
</svg>
