<svg xmlns="http://www.w3.org/2000/svg" xmlns:xlink="http://www.w3.org/1999/xlink" contentStyleType="text/css" height="218px" preserveAspectRatio="none" style="width:1256px;height:218px;background:#FFFFFF;" version="1.1" viewBox="0 0 1256 218" width="1256px" zoomAndPan="magnify"><defs/><g><line style="stroke:#333333;stroke-width:0.5;" x1="10" x2="10" y1="10" y2="189.2344"/><line style="stroke:#333333;stroke-width:0.5;" x1="1244.6816" x2="1244.6816" y1="10" y2="189.2344"/><rect fill="#FFEB99" height="179.2344" style="stroke:none;stroke-width:1.0;" width="90" x="192.6816" y="10"/><rect fill="#FFCC99" height="179.2344" style="stroke:none;stroke-width:1.0;" width="120" x="282.6816" y="10"/><rect fill="#99CCFF" height="179.2344" style="stroke:none;stroke-width:1.0;" width="390" x="402.6816" y="10"/><rect fill="#FF9999" height="179.2344" style="stroke:none;stroke-width:1.0;" width="60" x="792.6816" y="10"/><rect fill="#FFEB99" height="179.2344" style="stroke:none;stroke-width:1.0;" width="90" x="852.6816" y="10"/><line style="stroke:#333333;stroke-width:0.5;stroke-dasharray:3.0,5.0;" x1="42.6816" x2="42.6816" y1="10" y2="189.2344"/><line style="stroke:#333333;stroke-width:0.5;stroke-dasharray:3.0,5.0;" x1="192.6816" x2="192.6816" y1="10" y2="189.2344"/><line style="stroke:#333333;stroke-width:0.5;stroke-dasharray:3.0,5.0;" x1="342.6816" x2="342.6816" y1="10" y2="189.2344"/><line style="stroke:#333333;stroke-width:0.5;stroke-dasharray:3.0,5.0;" x1="492.6816" x2="492.6816" y1="10" y2="189.2344"/><line style="stroke:#333333;stroke-width:0.5;stroke-dasharray:3.0,5.0;" x1="642.6816" x2="642.6816" y1="10" y2="189.2344"/><line style="stroke:#333333;stroke-width:0.5;stroke-dasharray:3.0,5.0;" x1="792.6816" x2="792.6816" y1="10" y2="189.2344"/><line style="stroke:#333333;stroke-width:0.5;stroke-dasharray:3.0,5.0;" x1="942.6816" x2="942.6816" y1="10" y2="189.2344"/><line style="stroke:#333333;stroke-width:0.5;stroke-dasharray:3.0,5.0;" x1="1092.6816" x2="1092.6816" y1="10" y2="189.2344"/><line style="stroke:#333333;stroke-width:0.5;" x1="10" x2="1244.6816" y1="10" y2="10"/><text fill="#333333" font-family="sans-serif" font-size="14" font-weight="bold" lengthAdjust="spacing" textLength="97.4121" x="15" y="22.9951">UART BYTES</text><line style="stroke:#333333;stroke-width:0.5;" x1="10" x2="113.4121" y1="27.2969" y2="27.2969"/><line style="stroke:#333333;stroke-width:0.5;" x1="113.4121" x2="123.4121" y1="27.2969" y2="10"/><polygon fill="#E2E2F0" points="204.6816,46.2656,270.6816,46.2656,282.6816,58.2656,270.6816,70.2656,204.6816,70.2656,192.6816,58.2656" style="stroke:#006400;stroke-width:1.5;"/><polygon fill="#E2E2F0" points="294.6816,46.2656,300.6816,46.2656,312.6816,58.2656,300.6816,70.2656,294.6816,70.2656,282.6816,58.2656" style="stroke:#006400;stroke-width:1.5;"/><polygon fill="#E2E2F0" points="324.6816,46.2656,330.6816,46.2656,342.6816,58.2656,330.6816,70.2656,324.6816,70.2656,312.6816,58.2656" style="stroke:#006400;stroke-width:1.5;"/><polygon fill="#E2E2F0" points="354.6816,46.2656,360.6816,46.2656,372.6816,58.2656,360.6816,70.2656,354.6816,70.2656,342.6816,58.2656" style="stroke:#006400;stroke-width:1.5;"/><polygon fill="#E2E2F0" points="384.6816,46.2656,390.6816,46.2656,402.6816,58.2656,390.6816,70.2656,384.6816,70.2656,372.6816,58.2656" style="stroke:#006400;stroke-width:1.5;"/><polygon fill="#E2E2F0" points="414.6816,46.2656,780.6816,46.2656,792.6816,58.2656,780.6816,70.2656,414.6816,70.2656,402.6816,58.2656" style="stroke:#006400;stroke-width:1.5;"/><polygon fill="#E2E2F0" points="804.6816,46.2656,840.6816,46.2656,852.6816,58.2656,840.6816,70.2656,804.6816,70.2656,792.6816,58.2656" style="stroke:#006400;stroke-width:1.5;"/><polygon fill="#E2E2F0" points="864.6816,46.2656,930.6816,46.2656,942.6816,58.2656,930.6816,70.2656,864.6816,70.2656,852.6816,58.2656" style="stroke:#006400;stroke-width:1.5;"/><text fill="#333333" font-family="sans-serif" font-size="12" font-weight="bold" lengthAdjust="spacing" textLength="43.541" x="215.9111" y="62.4199">START</text><text fill="#333333" font-family="sans-serif" font-size="12" font-weight="bold" lengthAdjust="spacing" textLength="8.6426" x="293.3604" y="62.4199">S</text><text fill="#333333" font-family="sans-serif" font-size="12" font-weight="bold" lengthAdjust="spacing" textLength="9.9609" x="322.7012" y="62.4199">D</text><text fill="#333333" font-family="sans-serif" font-size="12" font-weight="bold" lengthAdjust="spacing" textLength="8.1855" x="353.5889" y="62.4199">T</text><text fill="#333333" font-family="sans-serif" font-size="12" font-weight="bold" lengthAdjust="spacing" textLength="4.5586" x="385.4023" y="62.4199">,</text><text fill="#333333" font-family="sans-serif" font-size="12" font-weight="bold" lengthAdjust="spacing" textLength="53.0332" x="571.165" y="62.4199">CSV_Str</text><text fill="#333333" font-family="sans-serif" font-size="12" font-weight="bold" lengthAdjust="spacing" textLength="26.8535" x="809.2549" y="62.4199">CRC</text><text fill="#333333" font-family="sans-serif" font-size="12" font-weight="bold" lengthAdjust="spacing" textLength="35.8242" x="879.7695" y="62.4199">STOP</text><line style="stroke:#333333;stroke-width:0.5;" x1="10" x2="1244.6816" y1="80.2656" y2="80.2656"/><text fill="#333333" font-family="sans-serif" font-size="14" font-weight="bold" lengthAdjust="spacing" textLength="21.1846" x="15" y="100.1123">DE</text><line style="stroke:#333333;stroke-width:2.0;" x1="42.6816" x2="72.6816" y1="102.2656" y2="102.2656"/><line style="stroke:#333333;stroke-width:2.0;" x1="72.6816" x2="102.6816" y1="102.2656" y2="102.2656"/><line style="stroke:#333333;stroke-width:2.0;" x1="102.6816" x2="102.6816" y1="88.2656" y2="102.2656"/><line style="stroke:#333333;stroke-width:2.0;" x1="102.6816" x2="1032.6816" y1="88.2656" y2="88.2656"/><line style="stroke:#333333;stroke-width:2.0;" x1="1032.6816" x2="1032.6816" y1="88.2656" y2="102.2656"/><line style="stroke:#333333;stroke-width:2.0;" x1="1032.6816" x2="1239.6816" y1="102.2656" y2="102.2656"/><line style="stroke:#333333;stroke-width:0.5;" x1="10" x2="1244.6816" y1="110.2656" y2="110.2656"/><text fill="#333333" font-family="sans-serif" font-size="14" font-weight="bold" lengthAdjust="spacing" textLength="16.8301" x="15" y="139.5967">DI</text><line style="stroke:#333333;stroke-width:2.0;" x1="42.6816" x2="42.6816" y1="151.2344" y2="151.2344"/><line style="stroke:#333333;stroke-width:2.0;" x1="42.6816" x2="42.6816" y1="137.2344" y2="151.2344"/><line style="stroke:#333333;stroke-width:2.0;" x1="42.6816" x2="72.6816" y1="137.2344" y2="137.2344"/><line style="stroke:#333333;stroke-width:2.0;" x1="72.6816" x2="72.6816" y1="137.2344" y2="151.2344"/><line style="stroke:#333333;stroke-width:2.0;" x1="72.6816" x2="192.6816" y1="151.2344" y2="151.2344"/><line style="stroke:#333333;stroke-width:2.0;" x1="192.6816" x2="192.6816" y1="137.2344" y2="151.2344"/><line style="stroke:#333333;stroke-width:2.0;" x1="192.6816" x2="192.6816" y1="137.2344" y2="151.2344"/><line style="stroke:#333333;stroke-width:2.0;" x1="197.6816" x2="197.6816" y1="137.2344" y2="151.2344"/><line style="stroke:#333333;stroke-width:2.0;" x1="202.6816" x2="202.6816" y1="137.2344" y2="151.2344"/><line style="stroke:#333333;stroke-width:2.0;" x1="207.6816" x2="207.6816" y1="137.2344" y2="151.2344"/><line style="stroke:#333333;stroke-width:2.0;" x1="212.6816" x2="212.6816" y1="137.2344" y2="151.2344"/><line style="stroke:#333333;stroke-width:2.0;" x1="217.6816" x2="217.6816" y1="137.2344" y2="151.2344"/><line style="stroke:#333333;stroke-width:2.0;" x1="222.6816" x2="222.6816" y1="137.2344" y2="151.2344"/><line style="stroke:#333333;stroke-width:2.0;" x1="227.6816" x2="227.6816" y1="137.2344" y2="151.2344"/><line style="stroke:#333333;stroke-width:2.0;" x1="232.6816" x2="232.6816" y1="137.2344" y2="151.2344"/><line style="stroke:#333333;stroke-width:2.0;" x1="237.6816" x2="237.6816" y1="137.2344" y2="151.2344"/><line style="stroke:#333333;stroke-width:2.0;" x1="242.6816" x2="242.6816" y1="137.2344" y2="151.2344"/><line style="stroke:#333333;stroke-width:2.0;" x1="247.6816" x2="247.6816" y1="137.2344" y2="151.2344"/><line style="stroke:#333333;stroke-width:2.0;" x1="252.6816" x2="252.6816" y1="137.2344" y2="151.2344"/><line style="stroke:#333333;stroke-width:2.0;" x1="257.6816" x2="257.6816" y1="137.2344" y2="151.2344"/><line style="stroke:#333333;stroke-width:2.0;" x1="262.6816" x2="262.6816" y1="137.2344" y2="151.2344"/><line style="stroke:#333333;stroke-width:2.0;" x1="267.6816" x2="267.6816" y1="137.2344" y2="151.2344"/><line style="stroke:#333333;stroke-width:2.0;" x1="272.6816" x2="272.6816" y1="137.2344" y2="151.2344"/><line style="stroke:#333333;stroke-width:2.0;" x1="277.6816" x2="277.6816" y1="137.2344" y2="151.2344"/><line style="stroke:#333333;stroke-width:2.0;" x1="282.6816" x2="282.6816" y1="137.2344" y2="151.2344"/><line style="stroke:#333333;stroke-width:2.0;" x1="287.6816" x2="287.6816" y1="137.2344" y2="151.2344"/><line style="stroke:#333333;stroke-width:2.0;" x1="292.6816" x2="292.6816" y1="137.2344" y2="151.2344"/><line style="stroke:#333333;stroke-width:2.0;" x1="297.6816" x2="297.6816" y1="137.2344" y2="151.2344"/><line style="stroke:#333333;stroke-width:2.0;" x1="302.6816" x2="302.6816" y1="137.2344" y2="151.2344"/><line style="stroke:#333333;stroke-width:2.0;" x1="307.6816" x2="307.6816" y1="137.2344" y2="151.2344"/><line style="stroke:#333333;stroke-width:2.0;" x1="312.6816" x2="312.6816" y1="137.2344" y2="151.2344"/><line style="stroke:#333333;stroke-width:2.0;" x1="317.6816" x2="317.6816" y1="137.2344" y2="151.2344"/><line style="stroke:#333333;stroke-width:2.0;" x1="322.6816" x2="322.6816" y1="137.2344" y2="151.2344"/><line style="stroke:#333333;stroke-width:2.0;" x1="327.6816" x2="327.6816" y1="137.2344" y2="151.2344"/><line style="stroke:#333333;stroke-width:2.0;" x1="332.6816" x2="332.6816" y1="137.2344" y2="151.2344"/><line style="stroke:#333333;stroke-width:2.0;" x1="337.6816" x2="337.6816" y1="137.2344" y2="151.2344"/><line style="stroke:#333333;stroke-width:2.0;" x1="342.6816" x2="342.6816" y1="137.2344" y2="151.2344"/><line style="stroke:#333333;stroke-width:2.0;" x1="347.6816" x2="347.6816" y1="137.2344" y2="151.2344"/><line style="stroke:#333333;stroke-width:2.0;" x1="352.6816" x2="352.6816" y1="137.2344" y2="151.2344"/><line style="stroke:#333333;stroke-width:2.0;" x1="357.6816" x2="357.6816" y1="137.2344" y2="151.2344"/><line style="stroke:#333333;stroke-width:2.0;" x1="362.6816" x2="362.6816" y1="137.2344" y2="151.2344"/><line style="stroke:#333333;stroke-width:2.0;" x1="367.6816" x2="367.6816" y1="137.2344" y2="151.2344"/><line style="stroke:#333333;stroke-width:2.0;" x1="372.6816" x2="372.6816" y1="137.2344" y2="151.2344"/><line style="stroke:#333333;stroke-width:2.0;" x1="377.6816" x2="377.6816" y1="137.2344" y2="151.2344"/><line style="stroke:#333333;stroke-width:2.0;" x1="382.6816" x2="382.6816" y1="137.2344" y2="151.2344"/><line style="stroke:#333333;stroke-width:2.0;" x1="387.6816" x2="387.6816" y1="137.2344" y2="151.2344"/><line style="stroke:#333333;stroke-width:2.0;" x1="392.6816" x2="392.6816" y1="137.2344" y2="151.2344"/><line style="stroke:#333333;stroke-width:2.0;" x1="397.6816" x2="397.6816" y1="137.2344" y2="151.2344"/><line style="stroke:#333333;stroke-width:2.0;" x1="402.6816" x2="402.6816" y1="137.2344" y2="151.2344"/><line style="stroke:#333333;stroke-width:2.0;" x1="407.6816" x2="407.6816" y1="137.2344" y2="151.2344"/><line style="stroke:#333333;stroke-width:2.0;" x1="412.6816" x2="412.6816" y1="137.2344" y2="151.2344"/><line style="stroke:#333333;stroke-width:2.0;" x1="417.6816" x2="417.6816" y1="137.2344" y2="151.2344"/><line style="stroke:#333333;stroke-width:2.0;" x1="422.6816" x2="422.6816" y1="137.2344" y2="151.2344"/><line style="stroke:#333333;stroke-width:2.0;" x1="427.6816" x2="427.6816" y1="137.2344" y2="151.2344"/><line style="stroke:#333333;stroke-width:2.0;" x1="432.6816" x2="432.6816" y1="137.2344" y2="151.2344"/><line style="stroke:#333333;stroke-width:2.0;" x1="437.6816" x2="437.6816" y1="137.2344" y2="151.2344"/><line style="stroke:#333333;stroke-width:2.0;" x1="442.6816" x2="442.6816" y1="137.2344" y2="151.2344"/><line style="stroke:#333333;stroke-width:2.0;" x1="447.6816" x2="447.6816" y1="137.2344" y2="151.2344"/><line style="stroke:#333333;stroke-width:2.0;" x1="452.6816" x2="452.6816" y1="137.2344" y2="151.2344"/><line style="stroke:#333333;stroke-width:2.0;" x1="457.6816" x2="457.6816" y1="137.2344" y2="151.2344"/><line style="stroke:#333333;stroke-width:2.0;" x1="462.6816" x2="462.6816" y1="137.2344" y2="151.2344"/><line style="stroke:#333333;stroke-width:2.0;" x1="467.6816" x2="467.6816" y1="137.2344" y2="151.2344"/><line style="stroke:#333333;stroke-width:2.0;" x1="472.6816" x2="472.6816" y1="137.2344" y2="151.2344"/><line style="stroke:#333333;stroke-width:2.0;" x1="477.6816" x2="477.6816" y1="137.2344" y2="151.2344"/><line style="stroke:#333333;stroke-width:2.0;" x1="482.6816" x2="482.6816" y1="137.2344" y2="151.2344"/><line style="stroke:#333333;stroke-width:2.0;" x1="487.6816" x2="487.6816" y1="137.2344" y2="151.2344"/><line style="stroke:#333333;stroke-width:2.0;" x1="492.6816" x2="492.6816" y1="137.2344" y2="151.2344"/><line style="stroke:#333333;stroke-width:2.0;" x1="497.6816" x2="497.6816" y1="137.2344" y2="151.2344"/><line style="stroke:#333333;stroke-width:2.0;" x1="502.6816" x2="502.6816" y1="137.2344" y2="151.2344"/><line style="stroke:#333333;stroke-width:2.0;" x1="507.6816" x2="507.6816" y1="137.2344" y2="151.2344"/><line style="stroke:#333333;stroke-width:2.0;" x1="512.6816" x2="512.6816" y1="137.2344" y2="151.2344"/><line style="stroke:#333333;stroke-width:2.0;" x1="517.6816" x2="517.6816" y1="137.2344" y2="151.2344"/><line style="stroke:#333333;stroke-width:2.0;" x1="522.6816" x2="522.6816" y1="137.2344" y2="151.2344"/><line style="stroke:#333333;stroke-width:2.0;" x1="527.6816" x2="527.6816" y1="137.2344" y2="151.2344"/><line style="stroke:#333333;stroke-width:2.0;" x1="532.6816" x2="532.6816" y1="137.2344" y2="151.2344"/><line style="stroke:#333333;stroke-width:2.0;" x1="537.6816" x2="537.6816" y1="137.2344" y2="151.2344"/><line style="stroke:#333333;stroke-width:2.0;" x1="542.6816" x2="542.6816" y1="137.2344" y2="151.2344"/><line style="stroke:#333333;stroke-width:2.0;" x1="547.6816" x2="547.6816" y1="137.2344" y2="151.2344"/><line style="stroke:#333333;stroke-width:2.0;" x1="552.6816" x2="552.6816" y1="137.2344" y2="151.2344"/><line style="stroke:#333333;stroke-width:2.0;" x1="557.6816" x2="557.6816" y1="137.2344" y2="151.2344"/><line style="stroke:#333333;stroke-width:2.0;" x1="562.6816" x2="562.6816" y1="137.2344" y2="151.2344"/><line style="stroke:#333333;stroke-width:2.0;" x1="567.6816" x2="567.6816" y1="137.2344" y2="151.2344"/><line style="stroke:#333333;stroke-width:2.0;" x1="572.6816" x2="572.6816" y1="137.2344" y2="151.2344"/><line style="stroke:#333333;stroke-width:2.0;" x1="577.6816" x2="577.6816" y1="137.2344" y2="151.2344"/><line style="stroke:#333333;stroke-width:2.0;" x1="582.6816" x2="582.6816" y1="137.2344" y2="151.2344"/><line style="stroke:#333333;stroke-width:2.0;" x1="587.6816" x2="587.6816" y1="137.2344" y2="151.2344"/><line style="stroke:#333333;stroke-width:2.0;" x1="592.6816" x2="592.6816" y1="137.2344" y2="151.2344"/><line style="stroke:#333333;stroke-width:2.0;" x1="597.6816" x2="597.6816" y1="137.2344" y2="151.2344"/><line style="stroke:#333333;stroke-width:2.0;" x1="602.6816" x2="602.6816" y1="137.2344" y2="151.2344"/><line style="stroke:#333333;stroke-width:2.0;" x1="607.6816" x2="607.6816" y1="137.2344" y2="151.2344"/><line style="stroke:#333333;stroke-width:2.0;" x1="612.6816" x2="612.6816" y1="137.2344" y2="151.2344"/><line style="stroke:#333333;stroke-width:2.0;" x1="617.6816" x2="617.6816" y1="137.2344" y2="151.2344"/><line style="stroke:#333333;stroke-width:2.0;" x1="622.6816" x2="622.6816" y1="137.2344" y2="151.2344"/><line style="stroke:#333333;stroke-width:2.0;" x1="627.6816" x2="627.6816" y1="137.2344" y2="151.2344"/><line style="stroke:#333333;stroke-width:2.0;" x1="632.6816" x2="632.6816" y1="137.2344" y2="151.2344"/><line style="stroke:#333333;stroke-width:2.0;" x1="637.6816" x2="637.6816" y1="137.2344" y2="151.2344"/><line style="stroke:#333333;stroke-width:2.0;" x1="642.6816" x2="642.6816" y1="137.2344" y2="151.2344"/><line style="stroke:#333333;stroke-width:2.0;" x1="647.6816" x2="647.6816" y1="137.2344" y2="151.2344"/><line style="stroke:#333333;stroke-width:2.0;" x1="652.6816" x2="652.6816" y1="137.2344" y2="151.2344"/><line style="stroke:#333333;stroke-width:2.0;" x1="657.6816" x2="657.6816" y1="137.2344" y2="151.2344"/><line style="stroke:#333333;stroke-width:2.0;" x1="662.6816" x2="662.6816" y1="137.2344" y2="151.2344"/><line style="stroke:#333333;stroke-width:2.0;" x1="667.6816" x2="667.6816" y1="137.2344" y2="151.2344"/><line style="stroke:#333333;stroke-width:2.0;" x1="672.6816" x2="672.6816" y1="137.2344" y2="151.2344"/><line style="stroke:#333333;stroke-width:2.0;" x1="677.6816" x2="677.6816" y1="137.2344" y2="151.2344"/><line style="stroke:#333333;stroke-width:2.0;" x1="682.6816" x2="682.6816" y1="137.2344" y2="151.2344"/><line style="stroke:#333333;stroke-width:2.0;" x1="687.6816" x2="687.6816" y1="137.2344" y2="151.2344"/><line style="stroke:#333333;stroke-width:2.0;" x1="692.6816" x2="692.6816" y1="137.2344" y2="151.2344"/><line style="stroke:#333333;stroke-width:2.0;" x1="697.6816" x2="697.6816" y1="137.2344" y2="151.2344"/><line style="stroke:#333333;stroke-width:2.0;" x1="702.6816" x2="702.6816" y1="137.2344" y2="151.2344"/><line style="stroke:#333333;stroke-width:2.0;" x1="707.6816" x2="707.6816" y1="137.2344" y2="151.2344"/><line style="stroke:#333333;stroke-width:2.0;" x1="712.6816" x2="712.6816" y1="137.2344" y2="151.2344"/><line style="stroke:#333333;stroke-width:2.0;" x1="717.6816" x2="717.6816" y1="137.2344" y2="151.2344"/><line style="stroke:#333333;stroke-width:2.0;" x1="722.6816" x2="722.6816" y1="137.2344" y2="151.2344"/><line style="stroke:#333333;stroke-width:2.0;" x1="727.6816" x2="727.6816" y1="137.2344" y2="151.2344"/><line style="stroke:#333333;stroke-width:2.0;" x1="732.6816" x2="732.6816" y1="137.2344" y2="151.2344"/><line style="stroke:#333333;stroke-width:2.0;" x1="737.6816" x2="737.6816" y1="137.2344" y2="151.2344"/><line style="stroke:#333333;stroke-width:2.0;" x1="742.6816" x2="742.6816" y1="137.2344" y2="151.2344"/><line style="stroke:#333333;stroke-width:2.0;" x1="747.6816" x2="747.6816" y1="137.2344" y2="151.2344"/><line style="stroke:#333333;stroke-width:2.0;" x1="752.6816" x2="752.6816" y1="137.2344" y2="151.2344"/><line style="stroke:#333333;stroke-width:2.0;" x1="757.6816" x2="757.6816" y1="137.2344" y2="151.2344"/><line style="stroke:#333333;stroke-width:2.0;" x1="762.6816" x2="762.6816" y1="137.2344" y2="151.2344"/><line style="stroke:#333333;stroke-width:2.0;" x1="767.6816" x2="767.6816" y1="137.2344" y2="151.2344"/><line style="stroke:#333333;stroke-width:2.0;" x1="772.6816" x2="772.6816" y1="137.2344" y2="151.2344"/><line style="stroke:#333333;stroke-width:2.0;" x1="777.6816" x2="777.6816" y1="137.2344" y2="151.2344"/><line style="stroke:#333333;stroke-width:2.0;" x1="782.6816" x2="782.6816" y1="137.2344" y2="151.2344"/><line style="stroke:#333333;stroke-width:2.0;" x1="787.6816" x2="787.6816" y1="137.2344" y2="151.2344"/><line style="stroke:#333333;stroke-width:2.0;" x1="792.6816" x2="792.6816" y1="137.2344" y2="151.2344"/><line style="stroke:#333333;stroke-width:2.0;" x1="797.6816" x2="797.6816" y1="137.2344" y2="151.2344"/><line style="stroke:#333333;stroke-width:2.0;" x1="802.6816" x2="802.6816" y1="137.2344" y2="151.2344"/><line style="stroke:#333333;stroke-width:2.0;" x1="807.6816" x2="807.6816" y1="137.2344" y2="151.2344"/><line style="stroke:#333333;stroke-width:2.0;" x1="812.6816" x2="812.6816" y1="137.2344" y2="151.2344"/><line style="stroke:#333333;stroke-width:2.0;" x1="817.6816" x2="817.6816" y1="137.2344" y2="151.2344"/><line style="stroke:#333333;stroke-width:2.0;" x1="822.6816" x2="822.6816" y1="137.2344" y2="151.2344"/><line style="stroke:#333333;stroke-width:2.0;" x1="827.6816" x2="827.6816" y1="137.2344" y2="151.2344"/><line style="stroke:#333333;stroke-width:2.0;" x1="832.6816" x2="832.6816" y1="137.2344" y2="151.2344"/><line style="stroke:#333333;stroke-width:2.0;" x1="837.6816" x2="837.6816" y1="137.2344" y2="151.2344"/><line style="stroke:#333333;stroke-width:2.0;" x1="842.6816" x2="842.6816" y1="137.2344" y2="151.2344"/><line style="stroke:#333333;stroke-width:2.0;" x1="847.6816" x2="847.6816" y1="137.2344" y2="151.2344"/><line style="stroke:#333333;stroke-width:2.0;" x1="852.6816" x2="852.6816" y1="137.2344" y2="151.2344"/><line style="stroke:#333333;stroke-width:2.0;" x1="857.6816" x2="857.6816" y1="137.2344" y2="151.2344"/><line style="stroke:#333333;stroke-width:2.0;" x1="862.6816" x2="862.6816" y1="137.2344" y2="151.2344"/><line style="stroke:#333333;stroke-width:2.0;" x1="867.6816" x2="867.6816" y1="137.2344" y2="151.2344"/><line style="stroke:#333333;stroke-width:2.0;" x1="872.6816" x2="872.6816" y1="137.2344" y2="151.2344"/><line style="stroke:#333333;stroke-width:2.0;" x1="877.6816" x2="877.6816" y1="137.2344" y2="151.2344"/><line style="stroke:#333333;stroke-width:2.0;" x1="882.6816" x2="882.6816" y1="137.2344" y2="151.2344"/><line style="stroke:#333333;stroke-width:2.0;" x1="887.6816" x2="887.6816" y1="137.2344" y2="151.2344"/><line style="stroke:#333333;stroke-width:2.0;" x1="892.6816" x2="892.6816" y1="137.2344" y2="151.2344"/><line style="stroke:#333333;stroke-width:2.0;" x1="897.6816" x2="897.6816" y1="137.2344" y2="151.2344"/><line style="stroke:#333333;stroke-width:2.0;" x1="902.6816" x2="902.6816" y1="137.2344" y2="151.2344"/><line style="stroke:#333333;stroke-width:2.0;" x1="907.6816" x2="907.6816" y1="137.2344" y2="151.2344"/><line style="stroke:#333333;stroke-width:2.0;" x1="912.6816" x2="912.6816" y1="137.2344" y2="151.2344"/><line style="stroke:#333333;stroke-width:2.0;" x1="917.6816" x2="917.6816" y1="137.2344" y2="151.2344"/><line style="stroke:#333333;stroke-width:2.0;" x1="922.6816" x2="922.6816" y1="137.2344" y2="151.2344"/><line style="stroke:#333333;stroke-width:2.0;" x1="927.6816" x2="927.6816" y1="137.2344" y2="151.2344"/><line style="stroke:#333333;stroke-width:2.0;" x1="932.6816" x2="932.6816" y1="137.2344" y2="151.2344"/><line style="stroke:#333333;stroke-width:2.0;" x1="937.6816" x2="937.6816" y1="137.2344" y2="151.2344"/><line style="stroke:#333333;stroke-width:2.0;" x1="942.6816" x2="942.6816" y1="137.2344" y2="151.2344"/><line style="stroke:#333333;stroke-width:2.0;" x1="942.6816" x2="1062.6816" y1="151.2344" y2="151.2344"/><line style="stroke:#333333;stroke-width:2.0;" x1="1062.6816" x2="1062.6816" y1="137.2344" y2="151.2344"/><line style="stroke:#333333;stroke-width:2.0;" x1="1062.6816" x2="1239.6816" y1="137.2344" y2="137.2344"/><line style="stroke:#333333;stroke-width:1.5;" x1="105.1816" x2="190.1816" y1="129.2344" y2="129.2344"/><polygon fill="#333333" points="113.1816,133.2344,113.1816,125.2344,105.1816,129.2344" style="stroke:#333333;stroke-width:2.0;"/><polygon fill="#333333" points="182.1816,133.2344,182.1816,125.2344,190.1816,129.2344" style="stroke:#333333;stroke-width:2.0;"/><text fill="#8B0000" font-family="sans-serif" font-size="12" lengthAdjust="spacing" textLength="45.0938" x="125.1348" y="121.4043">ST_Offs</text><line style="stroke:#333333;stroke-width:1.5;" x1="945.1816" x2="1030.1816" y1="129.2344" y2="129.2344"/><polygon fill="#333333" points="953.1816,133.2344,953.1816,125.2344,945.1816,129.2344" style="stroke:#333333;stroke-width:2.0;"/><polygon fill="#333333" points="1022.1816,133.2344,1022.1816,125.2344,1030.1816,129.2344" style="stroke:#333333;stroke-width:2.0;"/><text fill="#8B0000" font-family="sans-serif" font-size="12" lengthAdjust="spacing" textLength="48.3633" x="963.5" y="121.4043">ND_Offs</text><line style="stroke:#333333;stroke-width:0.5;" x1="10" x2="1244.6816" y1="159.2344" y2="159.2344"/><text fill="#333333" font-family="sans-serif" font-size="14" font-weight="bold" lengthAdjust="spacing" textLength="22.6816" x="15" y="179.0811">RO</text><line style="stroke:#333333;stroke-width:2.0;" x1="42.6816" x2="42.6816" y1="181.2344" y2="181.2344"/><line style="stroke:#333333;stroke-width:2.0;" x1="42.6816" x2="42.6816" y1="167.2344" y2="181.2344"/><line style="stroke:#333333;stroke-width:2.0;" x1="42.6816" x2="42.6816" y1="167.2344" y2="181.2344"/><line style="stroke:#333333;stroke-width:2.0;" x1="47.6816" x2="47.6816" y1="167.2344" y2="181.2344"/><line style="stroke:#333333;stroke-width:2.0;" x1="52.6816" x2="52.6816" y1="167.2344" y2="181.2344"/><line style="stroke:#333333;stroke-width:2.0;" x1="57.6816" x2="57.6816" y1="167.2344" y2="181.2344"/><line style="stroke:#333333;stroke-width:2.0;" x1="62.6816" x2="62.6816" y1="167.2344" y2="181.2344"/><line style="stroke:#333333;stroke-width:2.0;" x1="67.6816" x2="67.6816" y1="167.2344" y2="181.2344"/><line style="stroke:#333333;stroke-width:2.0;" x1="72.6816" x2="72.6816" y1="167.2344" y2="181.2344"/><line style="stroke:#333333;stroke-width:2.0;" x1="72.6816" x2="1062.6816" y1="167.2344" y2="167.2344"/><line style="stroke:#333333;stroke-width:2.0;" x1="1062.6816" x2="1062.6816" y1="167.2344" y2="181.2344"/><line style="stroke:#333333;stroke-width:2.0;" x1="1062.6816" x2="1062.6816" y1="167.2344" y2="181.2344"/><line style="stroke:#333333;stroke-width:2.0;" x1="1067.6816" x2="1067.6816" y1="167.2344" y2="181.2344"/><line style="stroke:#333333;stroke-width:2.0;" x1="1072.6816" x2="1072.6816" y1="167.2344" y2="181.2344"/><line style="stroke:#333333;stroke-width:2.0;" x1="1077.6816" x2="1077.6816" y1="167.2344" y2="181.2344"/><line style="stroke:#333333;stroke-width:2.0;" x1="1082.6816" x2="1082.6816" y1="167.2344" y2="181.2344"/><line style="stroke:#333333;stroke-width:2.0;" x1="1087.6816" x2="1087.6816" y1="167.2344" y2="181.2344"/><line style="stroke:#333333;stroke-width:2.0;" x1="1089.6816" x2="1239.6816" y1="181.2344" y2="181.2344"/><line style="stroke:#333333;stroke-width:2.0;" x1="42.6816" x2="42.6816" y1="189.2344" y2="194.2344"/><line style="stroke:#333333;stroke-width:2.0;" x1="192.6816" x2="192.6816" y1="189.2344" y2="194.2344"/><line style="stroke:#333333;stroke-width:2.0;" x1="342.6816" x2="342.6816" y1="189.2344" y2="194.2344"/><line style="stroke:#333333;stroke-width:2.0;" x1="492.6816" x2="492.6816" y1="189.2344" y2="194.2344"/><line style="stroke:#333333;stroke-width:2.0;" x1="642.6816" x2="642.6816" y1="189.2344" y2="194.2344"/><line style="stroke:#333333;stroke-width:2.0;" x1="792.6816" x2="792.6816" y1="189.2344" y2="194.2344"/><line style="stroke:#333333;stroke-width:2.0;" x1="942.6816" x2="942.6816" y1="189.2344" y2="194.2344"/><line style="stroke:#333333;stroke-width:2.0;" x1="1092.6816" x2="1092.6816" y1="189.2344" y2="194.2344"/><line style="stroke:#333333;stroke-width:2.0;" x1="42.6816" x2="1092.6816" y1="189.2344" y2="189.2344"/><text fill="#333333" font-family="sans-serif" font-size="11" lengthAdjust="spacing" textLength="6.9985" x="39.1824" y="205.4448">0</text><text fill="#333333" font-family="sans-serif" font-size="11" lengthAdjust="spacing" textLength="6.9985" x="189.1824" y="205.4448">5</text><text fill="#333333" font-family="sans-serif" font-size="11" lengthAdjust="spacing" textLength="13.9971" x="335.6831" y="205.4448">10</text><text fill="#333333" font-family="sans-serif" font-size="11" lengthAdjust="spacing" textLength="13.9971" x="485.6831" y="205.4448">15</text><text fill="#333333" font-family="sans-serif" font-size="11" lengthAdjust="spacing" textLength="13.9971" x="635.6831" y="205.4448">20</text><text fill="#333333" font-family="sans-serif" font-size="11" lengthAdjust="spacing" textLength="13.9971" x="785.6831" y="205.4448">25</text><text fill="#333333" font-family="sans-serif" font-size="11" lengthAdjust="spacing" textLength="13.9971" x="935.6831" y="205.4448">30</text><text fill="#333333" font-family="sans-serif" font-size="11" lengthAdjust="spacing" textLength="13.9971" x="1085.6831" y="205.4448">35</text><line style="stroke:#333333;stroke-width:2.0;stroke-dasharray:4.0,4.0;" x1="192.6816" x2="192.6816" y1="10" y2="189.2344"/><line style="stroke:#333333;stroke-width:2.0;stroke-dasharray:4.0,4.0;" x1="282.6816" x2="282.6816" y1="10" y2="189.2344"/><text fill="#000000" font-family="sans-serif" font-size="12" lengthAdjust="spacing" textLength="60.6387" x="195.6816" y="23.1387">Start/Stop</text><line style="stroke:#333333;stroke-width:2.0;stroke-dasharray:4.0,4.0;" x1="282.6816" x2="282.6816" y1="10" y2="189.2344"/><line style="stroke:#333333;stroke-width:2.0;stroke-dasharray:4.0,4.0;" x1="402.6816" x2="402.6816" y1="10" y2="189.2344"/><text fill="#000000" font-family="sans-serif" font-size="12" lengthAdjust="spacing" textLength="43.6934" x="285.6816" y="23.1387">Header</text><line style="stroke:#333333;stroke-width:2.0;stroke-dasharray:4.0,4.0;" x1="402.6816" x2="402.6816" y1="10" y2="189.2344"/><line style="stroke:#333333;stroke-width:2.0;stroke-dasharray:4.0,4.0;" x1="792.6816" x2="792.6816" y1="10" y2="189.2344"/><text fill="#000000" font-family="sans-serif" font-size="12" lengthAdjust="spacing" textLength="28.6523" x="405.6816" y="23.1387">Data</text><line style="stroke:#333333;stroke-width:2.0;stroke-dasharray:4.0,4.0;" x1="792.6816" x2="792.6816" y1="10" y2="189.2344"/><line style="stroke:#333333;stroke-width:2.0;stroke-dasharray:4.0,4.0;" x1="852.6816" x2="852.6816" y1="10" y2="189.2344"/><text fill="#000000" font-family="sans-serif" font-size="12" lengthAdjust="spacing" textLength="40.3652" x="795.6816" y="23.1387">CRC16</text><line style="stroke:#333333;stroke-width:2.0;stroke-dasharray:4.0,4.0;" x1="852.6816" x2="852.6816" y1="10" y2="189.2344"/><line style="stroke:#333333;stroke-width:2.0;stroke-dasharray:4.0,4.0;" x1="942.6816" x2="942.6816" y1="10" y2="189.2344"/><text fill="#000000" font-family="sans-serif" font-size="12" lengthAdjust="spacing" textLength="60.6387" x="855.6816" y="23.1387">Start/Stop</text><!--SRC=[VP9TRvim58Rl_IkEoENwGSZI38IYf27I9bND1BJQhf01arYYK1bBMHJbl_VOIHempP0GvZpFY-rZ_4RkIZObah_nQXrmkXRq3VO4u0v7Epq2UE8LMzHbBM0mqXTM3tXdTTL8GNabvqBKs__Q1-BVdoOZJKPB1cEW3Gp7DhppVwni27ujumq3wsKUnl3uDrv6bbBob92KLrJim0gMkhHydZy-BS7trIAdqml-fN7yfu_2bKPX2v6PNe9Nu9vPqaWg99aDRLtR2YvPmgeShU5H4upcIShMM70lXQDY4voJDx3Xwmq9zN1VrjiRzNvGdo2d9IF0-adHzZ6eYZE7j3GDoQopkZnLn8fYx91rIhRcwSZVHf-wPP3lPnAOP7mciKaUpkJ699CpMKIlIII5oHtxKmWNFUXSDhNwtQFZLdkEtdx3yvnLvcQT7qQ73UpsJwLrOgPyzuLErAF4MtR-690rTDiEWw9WgUjwaNg_ZsJzVYMBhfcUg7IMOVed_brCN4jEUad7Xe7hPbbHU06Lz5eGjLxIKPEwU7buGiE7gr6d7nr_jLjiRQUZjoFmRwVGgO47KPoiYg8nRVNHdeu7Z8ddG2S-0000]--></g></svg>