<?xml version="1.0" encoding="UTF-8" standalone="no"?>
<svg
   xmlns:dc="http://purl.org/dc/elements/1.1/"
   xmlns:cc="http://creativecommons.org/ns#"
   xmlns:rdf="http://www.w3.org/1999/02/22-rdf-syntax-ns#"
   xmlns:svg="http://www.w3.org/2000/svg"
   xmlns="http://www.w3.org/2000/svg"
   id="svg8790"
   version="1.1"
   viewBox="0 0 2.6458333 7.9375"
   height="7.9375mm"
   width="2.6458333mm">
  <defs
     id="defs8784" />
  <metadata
     id="metadata8787">
    <rdf:RDF>
      <cc:Work
         rdf:about="">
        <dc:format>image/svg+xml</dc:format>
        <dc:type
           rdf:resource="http://purl.org/dc/dcmitype/StillImage" />
        <dc:title></dc:title>
      </cc:Work>
    </rdf:RDF>
  </metadata>
  <g
     transform="translate(-0.025,-289.03751)"
     id="layer1">
    <g
       id="g9345">
      <rect
         style="opacity:1;fill:none;fill-opacity:1;fill-rule:evenodd;stroke:none;stroke-width:0.05;stroke-linecap:round;stroke-linejoin:round;stroke-miterlimit:4;stroke-dasharray:none;stroke-dashoffset:0;stroke-opacity:1"
         id="rect2928-9-8"
         width="2.6458333"
         height="7.9375"
         x="0.025"
         y="289.03751" />
      <path
         style="opacity:1;fill:#000000;fill-opacity:1;fill-rule:evenodd;stroke:#000000;stroke-width:0.05;stroke-linecap:round;stroke-linejoin:round;stroke-miterlimit:4;stroke-dasharray:none;stroke-dashoffset:0;stroke-opacity:1"
         id="path3173"
         d="m 0.8803208,296.3233 c 0.0233,-0.0798 0.0318,-0.1625 0.0379,-0.24503 7.91e-4,-0.0677 0.0137,-0.13768 -0.003,-0.20422 -0.0124,-0.0435 -0.0313,-0.0841 -0.0531,-0.1235 -0.0195,-0.0381 -0.0349,-0.0779 -0.0528,-0.11672 -0.0242,-0.0435 -0.03964,-0.0914 -0.05367,-0.13899 -0.01101,-0.0443 -0.02727,-0.0867 -0.03557,-0.1317 -0.0053,-0.0399 -0.01786,-0.078 -0.02413,-0.11777 -0.0059,-0.0448 -0.0063,-0.09 -0.0069,-0.13507 -2.64e-4,-0.0468 -1.33e-4,-0.0936 -6.4e-5,-0.14036 6.9e-5,-0.0468 8.7e-5,-0.0936 1.01e-4,-0.1404 8e-6,-0.0468 8e-6,-0.0935 8e-6,-0.14033 0,-0.0468 -3e-6,-0.0935 -3e-6,-0.14031 9.3e-5,-0.063 5.29e-4,-0.12595 5.29e-4,-0.18893 -2.27e-4,-0.0724 3.4e-5,-0.14474 -4e-5,-0.21712 2.65e-4,-0.072 -1.87e-4,-0.14396 -1.53e-4,-0.21594 -1.11e-4,-0.0695 6.1e-5,-0.13894 2.51e-4,-0.2084 5.9e-5,-0.0751 4.3e-5,-0.1502 -2.43e-4,-0.22529 -2.38e-4,-0.0536 -2.64e-4,-0.10713 -5.29e-4,-0.16069 -4.3e-5,-0.0468 -4e-5,-0.0936 -4e-5,-0.14036 -1.53e-4,-0.0534 2.06e-4,-0.10686 5.29e-4,-0.16029 7.94e-4,-0.094 5.3e-4,-0.188 7.94e-4,-0.28199 -2.64e-4,-0.0958 -1.48e-4,-0.19163 -5.3e-5,-0.28744 1.75e-4,-0.10363 1.32e-4,-0.20726 3.2e-5,-0.31089 -4e-5,-0.0882 -2.25e-4,-0.17648 -5.29e-4,-0.26472 -2.65e-4,-0.056 -5.29e-4,-0.11199 -5.29e-4,-0.16798 -5.8e-5,-0.0468 -5.2e-5,-0.0936 -5.2e-5,-0.14044 0,-0.0466 2e-6,-0.0933 5e-6,-0.13989 5e-5,-0.0524 9.8e-5,-0.10488 2.64e-4,-0.15732 1.14e-4,-0.0567 -2.4e-4,-0.11336 -6.6e-5,-0.17003 -0.0036,-0.0549 0.0057,-0.10869 0.01331,-0.16272 7.94e-4,-0.0443 0.01188,-0.0823 0.0319,-0.12106 0.01786,-0.036 0.02103,-0.076 0.02347,-0.11542 0.01156,-0.10259 0.132299,-0.17374 0.234749,-0.16643 0.0665,0.003 0.13227,0.0128 0.19851,0.0192 0.11161,0.0143 0.22075,0.0424 0.33159,0.0612 0.0889,0.019 0.17895,0.0317 0.26819,0.0491 0.0614,0.0125 0.12409,0.0167 0.18663,0.0189 0.0491,0.001 0.0982,9.6e-4 0.14734,8.5e-4 0.0467,-1.4e-4 0.0934,-2e-4 0.14005,-2.3e-4 0.0461,0.002 0.0928,-0.004 0.13832,0.004 0.0413,0.0153 0.0496,0.0489 0.0441,0.0888 -0.0202,0.058 -0.0328,0.1176 -0.0452,0.17768 -0.0192,0.0827 -0.0254,0.16744 -0.0293,0.25203 -0.003,0.0692 -0.002,0.13853 -0.002,0.2078 2.2e-4,0.0486 2.6e-4,0.0971 5.29e-4,0.14568 -10e-4,0.0438 0.003,0.0879 -0.002,0.13156 -0.0159,0.0847 -0.12891,0.1559 -0.21238,0.1335 -0.0132,-0.004 -0.0259,-0.009 -0.0391,-0.0127 -0.0762,-0.0219 -0.15406,-0.0329 -0.23291,-0.0398 -0.1073,-0.008 -0.21492,-0.008 -0.32243,-0.008 -0.0796,10e-6 -0.15922,3.9e-4 -0.23883,7.6e-4 -0.0517,2.5e-4 -0.1034,3.5e-4 -0.1551,3.7e-4 -0.0472,-7.4e-4 -0.0936,-0.0126 -0.14054,-0.018 -0.0471,-0.005 -0.0929,-0.0177 -0.14012,-0.0234 -0.0394,0.001 -0.0727,-0.0104 -0.108008,-0.0258 0,0 0.173288,-0.1156 0.173288,-0.1156 v 0 c 0.034,0.0139 0.0679,0.0199 0.10466,0.0213 0.0469,0.007 0.0928,0.0189 0.14,0.0232 0.0462,0.006 0.0922,0.0173 0.13903,0.0159 0.0515,1e-5 0.10295,2e-5 0.15442,9e-5 0.0791,9e-5 0.15811,7e-5 0.23717,6.3e-4 0.1079,7.4e-4 0.21594,0.001 0.32358,0.01 0.0803,0.008 0.15955,0.0197 0.23744,0.0411 0.009,0.002 0.026,0.008 0.0362,0.007 0.004,-2.1e-4 0.0149,-0.005 0.0116,-0.003 -0.39233,0.24828 -0.178,0.14099 -0.15556,0.0846 0.0102,-0.0416 5.29e-4,-0.0862 0.004,-0.12872 -4.9e-5,-0.0486 -1.39e-4,-0.0973 -6.9e-5,-0.14592 2.1e-4,-0.0698 7.9e-4,-0.13963 0.003,-0.20941 0.003,-0.0854 0.009,-0.17107 0.0272,-0.25476 0.0129,-0.0594 0.0208,-0.1199 0.0434,-0.17677 0.009,-0.0289 0.008,-0.0524 -0.0264,-0.0594 -0.0453,-0.004 -0.091,-6.1e-4 -0.13646,-0.002 -0.0467,5e-5 -0.0933,1.4e-4 -0.14002,2.4e-4 -0.0492,4e-5 -0.0984,1.6e-4 -0.14754,-0.002 -0.063,-0.003 -0.1259,-0.009 -0.18764,-0.022 -0.0886,-0.0176 -0.177921,-0.0309 -0.266241,-0.0499 -0.11047,-0.0196 -0.21959,-0.0473 -0.33129,-0.0595 -0.0665,-0.006 -0.13299,-0.0155 -0.19995,-0.0152 -0.07981,0.0102 -0.008,0.003 0.15329,-0.0965 0.004,-0.002 -0.009,-5e-5 -0.0122,0.002 -0.0134,0.008 -0.0184,0.0304 -0.0211,0.0441 -0.002,0.0415 -0.004,0.0838 -0.0194,0.12285 -0.007,0.0156 -0.0192,0.0305 -0.0255,0.0463 -0.009,0.022 -0.005,0.0462 -0.01,0.069 -0.007,0.0533 -0.0188,0.10613 -0.0149,0.16027 1.8e-4,0.0567 -1.8e-4,0.1134 -7e-5,0.1701 1.9e-4,0.0523 2.4e-4,0.10468 2.7e-4,0.15703 0,0.0466 0,0.0932 0,0.13988 0,0.0468 10e-6,0.0937 -5e-5,0.14049 -9e-5,0.0562 -2.6e-4,0.11238 -5.29e-4,0.16857 -5.29e-4,0.0884 -5.29e-4,0.1769 -5.29e-4,0.26536 -10e-5,0.10361 -1.4e-4,0.20723 3e-5,0.31085 10e-5,0.0958 2.7e-4,0.19166 -5e-5,0.28749 1.6e-4,0.0937 10e-6,0.18747 7.91e-4,0.2812 2.7e-4,0.0533 5.29e-4,0.10653 5.29e-4,0.1598 0,0.0468 10e-6,0.0936 -4e-5,0.14039 -6e-5,0.0537 -1.8e-4,0.10742 -5.29e-4,0.16112 -2.6e-4,0.0752 -2.6e-4,0.15036 -2.4e-4,0.22554 1.9e-4,0.0694 2.7e-4,0.13877 2.5e-4,0.20815 4e-5,0.072 -5.29e-4,0.14407 -1.5e-4,0.2161 -8e-5,0.0724 1.9e-4,0.14477 -4e-5,0.21716 0,0.0628 5.29e-4,0.12551 5.29e-4,0.18827 0,0.0468 0,0.0935 0,0.14031 0,0.0468 0,0.0935 -1e-5,0.14033 -10e-6,0.0468 -2e-5,0.0936 -9e-5,0.14043 -7e-5,0.0467 -2.1e-4,0.0934 -2e-5,0.14014 2.7e-4,0.0442 5.29e-4,0.0884 0.006,0.13234 0.006,0.0397 0.0185,0.0777 0.0238,0.11738 0.007,0.0446 0.0235,0.0862 0.034,0.12999 0.0133,0.0468 0.0288,0.0935 0.0528,0.13598 0.0175,0.0385 0.0328,0.0777 0.052,0.11543 0.0224,0.041 0.0421,0.0831 0.0552,0.12816 0.0189,0.0688 0.006,0.14081 0.005,0.21118 -0.006,0.0833 -0.014,0.16648 -0.0339,0.2478 0,0 -0.18824,0.0894 -0.18824,0.0894 z" />
    </g>
  </g>
</svg>
