<?xml version="1.0" encoding="UTF-8" standalone="no"?>
<!-- Created with Inkscape (http://www.inkscape.org/) -->

<svg
   xmlns:dc="http://purl.org/dc/elements/1.1/"
   xmlns:cc="http://creativecommons.org/ns#"
   xmlns:rdf="http://www.w3.org/1999/02/22-rdf-syntax-ns#"
   xmlns:svg="http://www.w3.org/2000/svg"
   xmlns="http://www.w3.org/2000/svg"
   xmlns:sodipodi="http://sodipodi.sourceforge.net/DTD/sodipodi-0.dtd"
   xmlns:inkscape="http://www.inkscape.org/namespaces/inkscape"
   width="3.96875mm"
   height="7.9375mm"
   viewBox="0 0 3.96875 7.9375"
   version="1.1"
   id="svg2463"
   inkscape:version="0.92.3 (2405546, 2018-03-11)"
   sodipodi:docname="obj1.svg">
  <defs
     id="defs2457" />
  <sodipodi:namedview
     id="base"
     pagecolor="#ffffff"
     bordercolor="#666666"
     borderopacity="1.0"
     inkscape:pageopacity="0.0"
     inkscape:pageshadow="2"
     inkscape:zoom="11.2"
     inkscape:cx="14.761856"
     inkscape:cy="25.689806"
     inkscape:document-units="mm"
     inkscape:current-layer="layer1"
     showgrid="false"
     fit-margin-top="0"
     fit-margin-left="0"
     fit-margin-right="0"
     fit-margin-bottom="0"
     inkscape:window-width="1920"
     inkscape:window-height="985"
     inkscape:window-x="0"
     inkscape:window-y="33"
     inkscape:window-maximized="1" />
  <metadata
     id="metadata2460">
    <rdf:RDF>
      <cc:Work
         rdf:about="">
        <dc:format>image/svg+xml</dc:format>
        <dc:type
           rdf:resource="http://purl.org/dc/dcmitype/StillImage" />
        <dc:title></dc:title>
      </cc:Work>
    </rdf:RDF>
  </metadata>
  <g
     inkscape:label="Layer 1"
     inkscape:groupmode="layer"
     id="layer1"
     transform="translate(-0.025,-289.03751)">
    <g
       id="g3033">
      <rect
         y="289.03751"
         x="0.025"
         height="7.9375"
         width="3.96875"
         id="rect3183-5"
         style="opacity:1;fill:none;fill-opacity:1;fill-rule:evenodd;stroke:none;stroke-width:0.05;stroke-linecap:round;stroke-linejoin:round;stroke-miterlimit:4;stroke-dasharray:none;stroke-dashoffset:0;stroke-opacity:1" />
      <g
         style="fill:none"
         transform="translate(-94.770517,315.91541)"
         id="g3265">
        <path
           style="opacity:1;fill:none;fill-opacity:1;fill-rule:evenodd;stroke:#000000;stroke-width:0.1;stroke-linecap:round;stroke-linejoin:bevel;stroke-miterlimit:4;stroke-dasharray:none;stroke-dashoffset:0;stroke-opacity:1"
           id="path1752-7-0"
           d="m 96.059843,-22.759991 c 0.08429,-0.09659 0.203203,-0.158465 0.318956,-0.209469 0.05452,-0.0197 0.111828,-0.03298 0.169968,-0.02958 0.05982,0.0108 0.113956,0.04029 0.169906,0.0628 0.0518,0.02008 0.10353,0.0399 0.15367,0.06389 0.0183,0.01034 0.0332,0.02566 0.0463,0.04185 0,0 -0.1546,0.09273 -0.1546,0.09273 v 0 c -0.0118,-0.0141 -0.0249,-0.02735 -0.0415,-0.03581 -0.04924,-0.02433 -0.100608,-0.04345 -0.151551,-0.06388 -0.05433,-0.02232 -0.108119,-0.05073 -0.167306,-0.05676 -0.05637,5.82e-4 -0.111681,0.01321 -0.163685,0.035 -0.06298,0.03021 -0.08444,0.04168 0.0828,-0.05247 0.01125,-0.0063 -0.02188,0.01376 -0.03238,0.0213 -0.02389,0.01719 -0.04696,0.03662 -0.06499,0.06003 0,0 -0.165638,0.07038 -0.165638,0.07038 z"
           inkscape:connector-curvature="0" />
        <path
           style="opacity:1;fill:none;fill-opacity:1;fill-rule:evenodd;stroke:#000000;stroke-width:0.1;stroke-linecap:round;stroke-linejoin:bevel;stroke-miterlimit:4;stroke-dasharray:none;stroke-dashoffset:0;stroke-opacity:1"
           id="path1777-6"
           d="m 95.989147,-22.903432 c -0.0035,0.03531 -0.0053,0.07075 -0.0087,0.106081 -0.0055,0.04823 -0.0074,0.09674 -0.0086,0.14523 -0.0013,0.06504 -0.0013,0.130101 -0.0013,0.195153 2.15e-4,0.05757 2.65e-4,0.115141 5.29e-4,0.172712 1.01e-4,0.0525 1.9e-5,0.104995 4.8e-5,0.157492 2.9e-5,0.04893 1.56e-4,0.09786 1.4e-4,0.146797 -5.3e-5,0.05043 -1.69e-4,0.100862 -8.2e-5,0.151293 -8e-6,0.0475 9e-5,0.095 1.59e-4,0.142507 -1.1e-5,0.0442 3.7e-5,0.08839 2.1e-5,0.132584 2.17e-4,0.05146 -1.48e-4,0.102875 -0.0021,0.154298 -0.0021,0.05666 -0.0033,0.113354 -0.0038,0.170051 -2.65e-4,0.05352 -5.29e-4,0.107034 -2.65e-4,0.160551 -5.2e-5,0.05191 1.06e-4,0.103816 1.27e-4,0.155724 9.3e-5,0.04374 2.49e-4,0.08749 2.6e-4,0.131229 7.6e-5,0.04387 -1.43e-4,0.08774 -2.04e-4,0.131604 -4.8e-5,0.04399 7.4e-5,0.08798 2.65e-4,0.13197 1.48e-4,0.03172 1.69e-4,0.06344 2.24e-4,0.09517 6e-6,0.02717 1.6e-5,0.05435 1.57e-4,0.08152 9e-5,0.01669 2.64e-4,0.03337 2.62e-4,0.05006 -6.7e-5,0.01995 -2.39e-4,0.03991 -2.65e-4,0.05986 7.94e-4,0.02562 -5.29e-4,0.05112 -0.0026,0.07665 -0.0028,0.02282 -0.0063,0.04553 -0.01095,0.06804 -0.0044,0.01809 -0.0073,0.03643 -0.0088,0.05497 -7.94e-4,0.01276 -7.94e-4,0.02556 -7.94e-4,0.03834 5.3e-4,0.01056 -0.0024,0.02079 -0.0039,0.03114 -0.0016,0.01209 -0.0016,0.0243 -0.0019,0.03647 -5.3e-4,0.02172 2.14e-4,0.04345 -7.94e-4,0.06514 -7.94e-4,0.01903 -0.0042,0.03773 -0.0075,0.05643 -0.005,0.02617 -0.0024,0.01388 -0.05925,0.03137 -0.0011,2.91e-4 -5.29e-4,-0.0055 -1.77e-4,-0.01437 0,0 0.05664,-0.02841 0.05664,-0.02841 v 0 c -1.96e-4,0.0024 -5.29e-4,0.0047 -5.29e-4,0.0071 -3e-5,0.0019 0.0019,0.0046 2.64e-4,0.0056 -0.08006,0.0553 -0.06021,0.05118 -0.05416,0.02634 0.0042,-0.01842 0.0074,-0.03706 0.0085,-0.05593 0.0013,-0.02151 5.29e-4,-0.04307 5.29e-4,-0.06462 2.1e-5,-0.01236 -2.6e-5,-0.02476 0.0013,-0.03707 0.0013,-0.01019 0.0044,-0.02014 0.0044,-0.0304 3e-6,-0.01297 1.1e-5,-0.02595 7.94e-4,-0.03889 0.0016,-0.01886 0.0041,-0.03757 0.0088,-0.05592 0.0049,-0.02226 0.0081,-0.04479 0.01132,-0.06734 0.0021,-0.02537 0.0037,-0.05071 0.0028,-0.0762 -3.7e-5,-0.01986 -2.09e-4,-0.03972 -2.64e-4,-0.05958 -3.2e-5,-0.01678 1.74e-4,-0.03355 2.62e-4,-0.05033 1.4e-4,-0.02723 1.5e-4,-0.05445 1.56e-4,-0.08168 5.5e-5,-0.0318 7.7e-5,-0.0636 2.25e-4,-0.0954 2.25e-4,-0.04409 2.64e-4,-0.08818 2.64e-4,-0.132276 -6.1e-5,-0.0438 -2.64e-4,-0.0876 -2.03e-4,-0.131395 1e-5,-0.04383 1.64e-4,-0.08766 2.43e-4,-0.131486 3e-6,-0.05194 1.27e-4,-0.10388 6.1e-5,-0.15582 5.3e-5,-0.05355 -8.5e-5,-0.107109 5.29e-4,-0.160661 5.29e-4,-0.05676 0.0016,-0.11352 0.0038,-0.170245 0.0016,-0.05124 0.0019,-0.102466 0.0013,-0.15373 -1.6e-5,-0.0442 3.2e-5,-0.0884 2.2e-5,-0.132605 6.8e-5,-0.04756 1.66e-4,-0.09511 1.58e-4,-0.142669 9e-5,-0.0504 -2.6e-5,-0.100807 -7.9e-5,-0.15121 -1.6e-5,-0.04898 1.11e-4,-0.09796 1.4e-4,-0.146941 2.7e-5,-0.05251 -5.8e-5,-0.105012 1.1e-5,-0.157518 6.3e-5,-0.05769 1e-4,-0.115387 2.64e-4,-0.17308 7.2e-5,-0.06498 -5.5e-5,-0.129957 5.29e-4,-0.194933 7.94e-4,-0.04851 0.0024,-0.09705 0.0078,-0.145318 0.0035,-0.03503 0.0053,-0.07015 0.007,-0.105313 0,0 0.05691,-0.02821 0.05691,-0.02821 z"
           inkscape:connector-curvature="0" />
        <path
           style="opacity:1;fill:none;fill-opacity:1;fill-rule:evenodd;stroke:#000000;stroke-width:0.1;stroke-linecap:round;stroke-linejoin:bevel;stroke-miterlimit:4;stroke-dasharray:none;stroke-dashoffset:0;stroke-opacity:1"
           id="path1779-4"
           d="m 96.995333,-22.980471 c -0.001,0.04885 -0.001,0.09772 -0.002,0.146586 -0.001,0.122088 -0.002,0.244182 -0.002,0.366276 -7.9e-4,0.160265 -5.3e-4,0.320532 -5.3e-4,0.480799 0.002,0.145464 -0.001,0.290867 -0.0101,0.436063 -0.0113,0.114106 -0.0206,0.228311 -0.0254,0.342884 -0.003,0.08664 -0.003,0.173338 -0.003,0.260019 6e-5,0.06236 5.3e-4,0.124716 8e-4,0.187074 2.6e-4,0.04687 7.9e-4,0.09371 -0.001,0.14055 -0.002,0.04021 -0.008,0.08007 -0.012,0.120187 -0.003,0.03647 -0.003,0.07306 -0.004,0.109625 -1.7e-4,0.03519 -1.8e-4,0.07038 -1.6e-4,0.105564 1.1e-4,0.03324 1.3e-4,0.06649 2.1e-4,0.09973 -2.6e-4,0.02257 10e-4,0.04519 -2.2e-4,0.06773 -0.002,0.014 -0.003,0.02795 -0.004,0.042 -8e-4,0.01353 -0.003,0.02684 -0.005,0.04029 -0.001,0.01356 -0.002,0.02718 -0.002,0.04078 -10e-4,0.0123 -0.003,0.02452 -0.006,0.03648 -0.005,0.01396 -0.008,0.02838 -0.01,0.04322 -0.002,0.01824 -0.002,0.03657 -0.002,0.05487 3e-5,0.01634 7e-5,0.03268 5e-5,0.04902 3e-5,0.01707 0,0.03415 5e-5,0.05122 9e-5,0.01549 5e-5,0.03097 -2e-5,0.04646 0,0.01643 10e-6,0.03286 6e-5,0.04928 0,0 -0.0565,0.02877 -0.0565,0.02877 v 0 c 6e-5,-0.01645 6e-5,-0.0329 7e-5,-0.04935 -7e-5,-0.01548 -1.1e-4,-0.03095 -3e-5,-0.04643 5e-5,-0.01708 1e-5,-0.03416 -10e-6,-0.05124 -6e-5,-0.01635 -1.1e-4,-0.0327 -5e-5,-0.04905 1.2e-4,-0.01848 1.3e-4,-0.03697 10e-4,-0.05542 0.001,-0.01498 0.003,-0.03003 0.009,-0.04394 0.003,-0.01157 0.005,-0.02325 0.007,-0.03512 1.4e-4,-0.01379 2.6e-4,-0.0276 0.002,-0.04135 0.001,-0.01342 0.004,-0.0266 0.005,-0.04002 7.9e-4,-0.01415 0.003,-0.0282 0.005,-0.04223 0.002,-0.02245 2.6e-4,-0.04514 0.001,-0.06766 7e-5,-0.03329 6e-5,-0.06659 10e-5,-0.09988 -4e-5,-0.03518 -2.2e-4,-0.07037 -10e-6,-0.105547 2.6e-4,-0.03676 10e-4,-0.07354 0.004,-0.110206 0.003,-0.0401 0.009,-0.07991 0.0123,-0.120058 0.002,-0.04686 0.002,-0.09373 0.002,-0.140638 2e-5,-0.06255 2.5e-4,-0.125108 5.3e-4,-0.187661 2.6e-4,-0.08705 0.001,-0.174116 0.005,-0.261106 0.005,-0.11483 0.0145,-0.229332 0.0267,-0.34364 0.01,-0.145355 0.0141,-0.290949 0.0121,-0.436643 4e-5,-0.160114 2.1e-4,-0.320228 -5.3e-4,-0.480341 -2.7e-4,-0.121467 -8e-4,-0.242934 -0.002,-0.364396 -5.3e-4,-0.04823 -8e-4,-0.09646 -0.002,-0.144673 0,0 0.0567,-0.02888 0.0567,-0.02888 z"
           inkscape:connector-curvature="0" />
        <path
           style="opacity:1;fill:none;fill-opacity:1;fill-rule:evenodd;stroke:#000000;stroke-width:0.1;stroke-linecap:round;stroke-linejoin:bevel;stroke-miterlimit:4;stroke-dasharray:none;stroke-dashoffset:0;stroke-opacity:1"
           id="path1787-6"
           d="m 96.005279,-22.644364 c 0.04147,8.47e-4 0.08292,-0.0021 0.124367,-0.0034 0.07234,-0.0018 0.14472,-0.002 0.217083,-0.0022 0.07951,-1.02e-4 0.159025,-1.06e-4 0.238538,-9.7e-5 0.06139,-4.1e-5 0.122786,-1.69e-4 0.184176,-6.62e-4 0.0217,-1.86e-4 0.0434,-4.23e-4 0.065,-5.02e-4 0.0169,5.82e-4 0.0337,0.0038 0.0503,0.0065 0.0201,0.0045 0.0405,0.0069 0.0605,0.01198 0.0139,0.0039 0.0231,0.0123 0.0288,0.02532 0.004,0.01245 0.004,0.02569 0.004,0.03865 1.3e-4,0.02861 -7.9e-4,0.05715 -0.002,0.08571 -0.003,0.05469 -0.004,0.109477 -0.005,0.164241 -7.9e-4,0.07335 -7.9e-4,0.146708 -7.9e-4,0.220062 -5e-5,0.08081 -5e-5,0.161617 -3e-5,0.242426 10e-4,0.07798 -0.002,0.155924 -0.003,0.233872 2e-5,0.06836 -0.002,0.136523 -0.007,0.204717 -0.003,0.04217 -0.005,0.08441 -0.005,0.126673 -1.1e-4,0.01797 10e-4,0.03613 -0.005,0.05343 -0.004,0.0071 -0.007,0.01492 -0.0124,0.02137 -0.0194,0.01076 -0.0382,0.0227 -0.0583,0.03228 -2e-5,1.1e-5 -0.0136,-0.0036 -0.0145,-0.0039 -0.0195,-0.0067 -0.0375,-0.01714 -0.0556,-0.0268 -0.0894,-0.05178 -0.179414,-0.102286 -0.272682,-0.146776 -0.02556,-0.01219 -0.05145,-0.02362 -0.07718,-0.03543 -0.117393,-0.05224 -0.235688,-0.102989 -0.35856,-0.140979 -0.03716,-0.01009 -0.01987,-0.0054 -0.05187,-0.0141 0,0 0.05074,-0.03472 0.05074,-0.03472 v 0 c 0.03089,0.0096 0.01416,0.0044 0.05021,0.01547 0.120843,0.04112 0.237575,0.09304 0.354208,0.144683 0.0735,0.03346 0.07993,0.03562 0.151424,0.07111 0.05715,0.02837 0.113,0.05895 0.16926,0.089 0.0117,0.0062 0.0235,0.01227 0.0352,0.01841 0.0184,0.0089 0.0368,0.01895 0.0568,0.02412 0.003,7.14e-4 0.006,0.0013 0.008,0.0015 0.002,1.24e-4 0.006,-0.0013 0.005,-4.5e-4 -0.0169,0.01079 -0.0344,0.02034 -0.0517,0.03051 0.008,-0.0036 0.008,-0.01268 0.0139,-0.01837 0.007,-0.01668 0.007,-0.03429 0.007,-0.05215 10e-4,-0.04261 0.003,-0.08519 0.007,-0.127693 0.005,-0.06826 0.008,-0.136495 0.008,-0.204976 0.002,-0.07795 0.005,-0.155885 0.004,-0.233868 0,-0.08079 -2e-5,-0.16158 -9e-5,-0.24237 -1.3e-4,-0.07323 -2.4e-4,-0.146458 0,-0.219687 2.6e-4,-0.05461 7.9e-4,-0.109231 0.003,-0.163798 0.001,-0.02823 0.002,-0.05643 0.001,-0.08468 -1.1e-4,-0.01213 2.6e-4,-0.02453 -0.003,-0.03633 -0.005,-0.01154 -0.0134,-0.01748 -0.0254,-0.02048 -0.0197,-0.005 -0.0399,-0.0076 -0.0598,-0.01173 -0.0166,-0.0025 -0.0334,-0.0053 -0.0502,-0.0054 -0.0212,-1.01e-4 -0.0424,-3.17e-4 -0.0636,-5.29e-4 -0.06076,-5.03e-4 -0.121527,-6.35e-4 -0.182291,-7.15e-4 -0.07953,-2.1e-5 -0.159059,-1.09e-4 -0.238588,1.61e-4 -0.07267,2.64e-4 -0.145362,5.83e-4 -0.217998,0.0031 -0.04237,0.0017 -0.08475,0.0051 -0.127167,0.0043 0,0 0.0518,-0.03677 0.0518,-0.03677 z"
           inkscape:connector-curvature="0" />
        <path
           style="opacity:1;fill:none;fill-opacity:1;fill-rule:evenodd;stroke:#000000;stroke-width:0.1;stroke-linecap:round;stroke-linejoin:bevel;stroke-miterlimit:4;stroke-dasharray:none;stroke-dashoffset:0;stroke-opacity:1"
           id="path1789-2"
           d="m 96.08721,-21.097893 c 0.07114,-0.01212 0.143184,-0.01594 0.215151,-0.01933 0.135549,-0.0048 0.271161,-0.0065 0.406722,-0.0018 0.0507,0.003 0.10147,0.0066 0.15151,0.0156 0.0162,0.0029 0.0414,0.0085 0.0576,0.01426 0.006,0.0022 0.0121,0.0053 0.0181,0.008 0.0308,0.01776 0.0354,0.04447 0.0448,0.07601 0.007,0.02421 0.0211,0.04566 0.0295,0.0694 0.002,0.0098 0.002,0.02038 -0.008,0.0263 -0.058,0.03544 -0.0443,0.02928 -0.0809,0.04321 -0.0702,0.02469 -0.14361,0.03845 -0.21636,0.05333 -0.102718,0.02189 -0.204374,0.04801 -0.307778,0.06661 -0.07274,0.01294 -0.14645,0.01755 -0.220165,0.0199 -0.03009,6.88e-4 -0.06096,0.0019 -0.09032,-0.0062 -0.01238,-0.0034 -0.01627,-0.0062 -0.02718,-0.01198 -0.0016,-0.0013 -0.032,-0.02293 -0.025,-0.02703 0.01947,-0.0114 0.04055,-0.01985 0.06082,-0.02978 0.01378,0.0052 0.0062,0.0023 0.02273,0.0089 0,0 -0.05183,0.03491 -0.05183,0.03491 v 0 c -0.01672,-0.0058 -0.009,-0.0036 -0.02286,-0.007 0.01685,-0.01035 0.03453,-0.01945 0.05054,-0.03105 0.0013,-9e-4 -0.0021,-0.0029 -0.0036,-0.003 -5.29e-4,-2.8e-5 0.0024,0.0041 0.0061,0.0076 0.0053,0.005 0.0094,0.0077 0.01545,0.0121 0.01048,0.0054 0.01371,0.0077 0.02561,0.01089 0.02881,0.0076 0.05901,0.0063 0.08847,0.0059 0.07287,-0.0019 0.145717,-0.0066 0.217633,-0.01913 0.103336,-0.0186 0.204965,-0.04459 0.30758,-0.06665 0.0737,-0.01546 0.14819,-0.03 0.21892,-0.05667 0.0309,-0.01321 0.0231,-0.01079 -0.0266,0.01884 -0.002,0.0014 0.005,-0.0027 0.007,-0.0043 0.005,-0.0041 0.005,-0.0089 0.004,-0.01509 -0.007,-0.0242 -0.0218,-0.0456 -0.0289,-0.06997 -0.009,-0.03029 -0.0124,-0.05438 -0.0417,-0.07169 -0.006,-0.0026 -0.0111,-0.0056 -0.017,-0.0078 -0.0646,-0.02402 -0.13654,-0.0252 -0.204189,-0.03149 -0.13575,-0.0052 -0.2716,-0.0033 -0.40731,0.0028 -0.07352,0.0042 -0.147272,0.0089 -0.219567,0.02372 0,0 0.05056,-0.03828 0.05056,-0.03828 z"
           inkscape:connector-curvature="0" />
      </g>
    </g>
  </g>
</svg>
