<?xml version="1.0" encoding="UTF-8" standalone="no"?>
<svg
   xmlns:dc="http://purl.org/dc/elements/1.1/"
   xmlns:cc="http://creativecommons.org/ns#"
   xmlns:rdf="http://www.w3.org/1999/02/22-rdf-syntax-ns#"
   xmlns:svg="http://www.w3.org/2000/svg"
   xmlns="http://www.w3.org/2000/svg"
   id="svg3073"
   version="1.1"
   viewBox="0 0 3.96875 7.9375"
   height="7.9375mm"
   width="3.96875mm">
  <defs
     id="defs3067" />
  <metadata
     id="metadata3070">
    <rdf:RDF>
      <cc:Work
         rdf:about="">
        <dc:format>image/svg+xml</dc:format>
        <dc:type
           rdf:resource="http://purl.org/dc/dcmitype/StillImage" />
        <dc:title></dc:title>
      </cc:Work>
    </rdf:RDF>
  </metadata>
  <g
     transform="translate(-0.025,-289.03751)"
     id="layer1">
    <g
       id="g3637">
      <rect
         style="opacity:1;fill:none;fill-opacity:1;fill-rule:evenodd;stroke:none;stroke-width:0.05;stroke-linecap:round;stroke-linejoin:round;stroke-miterlimit:4;stroke-dasharray:none;stroke-dashoffset:0;stroke-opacity:1"
         id="rect3183-5-5"
         width="3.96875"
         height="7.9375"
         x="0.025"
         y="289.03751" />
      <g
         transform="translate(-95.225006,308.21459)"
         id="g3312">
        <path
           d="m 96.657049,-12.208478 c 0.01989,-0.103734 0.02686,-0.209157 0.03222,-0.314447 0.0061,-0.153186 0.0063,-0.306526 0.0069,-0.459806 5.45e-4,-0.160914 -1.9e-4,-0.32183 -8.72e-4,-0.482742 0.0013,-0.120058 -0.0035,-0.24021 7.76e-4,-0.360214 0.0032,-0.08329 0.02983,-0.16059 0.06494,-0.235122 0.0463,-0.08545 0.135466,-0.204384 0.246625,-0.182462 0.04484,0.03766 0.04871,0.105457 0.06006,0.159067 0.03621,0.175718 0.06913,0.351914 0.09965,0.528699 0.03868,0.224953 0.05453,0.452788 0.06591,0.680476 0.0035,0.131516 0.01462,0.263179 -0.0013,0.394152 -0.0083,0.0544 -0.01843,0.10847 -0.02357,0.163287 -0.0031,0.03923 -0.003,0.0786 -0.0033,0.117922 -1.7e-5,0.04477 0,0.08953 4.82e-4,0.134293 -0.0069,0.09455 -0.05999,0.07373 -0.193511,0.13366 -0.003,0.0013 -0.02719,-0.01754 -0.02792,-0.01808 -0.03656,-0.03533 -0.07843,-0.06179 -0.124129,-0.0835 -0.03919,-0.01989 -0.0806,-0.03607 -0.118099,-0.05918 -0.0019,-0.0024 -0.0039,-0.0048 -0.0058,-0.0071 0,0 0.174223,-0.104524 0.174223,-0.104524 v 0 c 5.46e-4,6.08e-4 0.0011,0.0013 0.0017,0.0018 0.03678,0.02257 0.07671,0.03944 0.11519,0.05876 0.04594,0.02316 0.08806,0.05088 0.126961,0.08466 0.004,0.0022 0.0077,0.0051 0.01196,0.0067 0.0031,0.0012 0.01261,-2.93e-4 0.0098,0.0015 -0.05374,0.03452 -0.110415,0.06426 -0.164667,0.09796 -0.0021,0.0013 0.0054,10e-4 0.0075,-3.14e-4 0.0045,-0.0029 0.0067,-0.0183 0.0072,-0.0208 3.56e-4,-0.04487 1.56e-4,-0.08975 6.1e-5,-0.134625 -2.93e-4,-0.03979 -6.5e-4,-0.07963 0.0022,-0.119353 0.0048,-0.05575 0.01562,-0.110552 0.02597,-0.165497 0.0052,-0.03381 0.01031,-0.06232 0.01193,-0.09684 0.0046,-0.09885 -0.0036,-0.198276 -0.0032,-0.297118 -0.0082,-0.227352 -0.02281,-0.454877 -0.06297,-0.679168 -0.03185,-0.175517 -0.06604,-0.350402 -0.106052,-0.524274 -0.0043,-0.01783 -0.02117,-0.130347 -0.04914,-0.132118 -0.05116,0.03009 0.101603,-0.06141 0.153023,-0.09106 0.0051,-0.0029 -0.0097,0.0068 -0.01391,0.01094 -0.01738,0.0171 -0.02662,0.04009 -0.04082,0.05953 -0.03596,0.07251 -0.06611,0.14663 -0.07042,0.228793 -0.0063,0.120048 -0.0017,0.240434 -0.0035,0.360601 -5.03e-4,0.161185 -9.51e-4,0.322372 -6.5e-4,0.483559 4.1e-5,0.153162 5.04e-4,0.306373 -0.0044,0.459475 -0.0044,0.104679 -0.01038,0.209437 -0.0266,0.313071 0,0 -0.180438,0.08944 -0.180438,0.08944 z"
           id="path1929-6"
           style="opacity:1;fill:#000000;fill-opacity:1;fill-rule:evenodd;stroke:#000000;stroke-width:0.07926253;stroke-linecap:round;stroke-linejoin:bevel;stroke-miterlimit:4;stroke-dasharray:none;stroke-dashoffset:0;stroke-opacity:1" />
        <path
           d="m 96.173399,-13.814037 c -0.09738,-0.0026 -0.194825,8.72e-4 -0.29213,-0.0038 -0.07745,-0.0056 -0.131885,-0.02303 -0.191701,-0.07146 -0.03756,-0.03171 -0.07042,-0.06728 -0.08575,-0.114612 -0.0049,-0.0393 0.01459,-0.07119 0.03469,-0.103259 0.01962,-0.0313 0.04013,-0.06202 0.06019,-0.09304 0.112638,-0.184739 0.222054,-0.371481 0.330657,-0.558627 0.14876,-0.25606 0.260443,-0.530614 0.360957,-0.808432 0.07055,-0.206691 0.128791,-0.417094 0.187587,-0.627311 0.01696,-0.078 0.03702,-0.146245 0.07961,-0.213421 0.04851,-0.06542 0.140011,-0.156139 0.220069,-0.12221 0.0059,0.0025 0.02494,0.01521 0.0296,0.01824 0.08269,0.08095 0.150802,0.176535 0.220364,0.268762 0.156424,0.211181 0.288048,0.43903 0.414395,0.669011 0.09748,0.187363 0.210174,0.36648 0.300898,0.557367 0.05687,0.119666 0.05644,0.125338 0.102615,0.245913 0.06345,0.18145 0.08883,0.371669 0.101026,0.562499 0.0044,0.08587 0.0045,0.171869 0.004,0.257823 5.24e-4,0.0195 -0.0045,0.03704 -0.01181,0.05474 0,0 -0.184477,0.08279 -0.184477,0.08279 v 0 c 0.01032,-0.01469 0.0173,-0.02807 0.01756,-0.04684 0.0023,-0.08631 0.0044,-0.172664 0.0013,-0.258988 -0.0083,-0.189998 -0.03052,-0.37963 -0.09189,-0.560737 -0.04535,-0.122647 -0.04298,-0.123567 -0.0996,-0.245494 -0.08892,-0.191505 -0.200317,-0.371013 -0.299079,-0.557391 -0.127787,-0.228289 -0.261241,-0.45411 -0.420656,-0.662134 -0.0695,-0.08933 -0.137915,-0.183474 -0.223916,-0.257626 -0.0074,-0.0039 -0.01596,-0.01 -0.02501,-0.01017 -0.0032,-6.7e-5 -0.01217,0.0036 -0.0094,0.002 0.0534,-0.03255 0.108382,-0.06244 0.161857,-0.09486 0.0038,-0.0023 -0.0089,0.0018 -0.01255,0.0044 -0.0044,0.0031 -0.0072,0.0079 -0.01088,0.01188 -0.01296,0.02014 -0.029,0.03946 -0.03977,0.06086 -0.02379,0.04732 -0.03373,0.100245 -0.04901,0.150461 -0.06202,0.2115 -0.123641,0.423115 -0.194383,0.631943 -0.100802,0.278172 -0.211871,0.553407 -0.358714,0.811003 -0.106316,0.185726 -0.213871,0.370756 -0.321711,0.555587 -0.01852,0.0296 -0.03872,0.06201 -0.0576,0.09167 -0.01733,0.02723 -0.03792,0.05368 -0.03979,0.08715 0.01049,0.04439 0.04504,0.07553 0.07837,0.10442 0.0551,0.04281 0.112279,0.05893 0.182196,0.0628 0.09829,0.0038 0.196701,0.0017 0.295039,6.29e-4 0,0 -0.163162,0.118545 -0.163162,0.118545 z"
           id="path1931-2"
           style="opacity:1;fill:#000000;fill-opacity:1;fill-rule:evenodd;stroke:#000000;stroke-width:0.07926253;stroke-linecap:round;stroke-linejoin:bevel;stroke-miterlimit:4;stroke-dasharray:none;stroke-dashoffset:0;stroke-opacity:1" />
        <path
           d="m 96.253717,-15.680557 c -0.08783,-0.008 -0.174264,-0.02628 -0.260112,-0.04584 -0.04791,-0.01556 -0.105383,-0.02308 -0.141142,-0.06276 -0.0066,-0.0074 -0.01117,-0.01629 -0.01676,-0.02443 -0.04359,-0.100782 -0.01792,-0.211808 0.0033,-0.314839 0.0559,-0.210977 0.142396,-0.412154 0.219546,-0.615897 0.0889,-0.231156 0.179429,-0.461669 0.26477,-0.694174 0.05517,-0.161696 0.110518,-0.32316 0.172723,-0.482308 0.03404,-0.08815 0.08413,-0.167667 0.14362,-0.240515 0.07165,-0.07819 0.172068,-0.127599 0.271308,-0.163159 0.05018,-0.01948 0.10369,-0.02916 0.156657,-0.03778 0.100177,-0.01863 0.152697,0.03969 0.219391,0.105017 0.134379,0.141923 0.23079,0.311925 0.314502,0.487031 0.102821,0.214922 0.141956,0.450465 0.178631,0.68363 0.04046,0.215299 0.06547,0.432692 0.07983,0.651148 0.0071,0.103392 0.01797,0.206476 0.02559,0.309825 0,0 -0.176452,0.0913 -0.176452,0.0913 v 0 c -0.0054,-0.104405 -0.01271,-0.208696 -0.01947,-0.31302 -0.01248,-0.218374 -0.03577,-0.435807 -0.07643,-0.65091 -0.03614,-0.231358 -0.07435,-0.465194 -0.177127,-0.678148 -0.08329,-0.172995 -0.179117,-0.340993 -0.315907,-0.478042 -0.07138,-0.06572 -0.111427,-0.10755 -0.212404,-0.08751 -0.05301,0.0095 -0.105922,0.02109 -0.155764,0.04206 -0.06955,0.02838 -0.116966,0.06673 0.126839,-0.07983 0.0056,-0.0034 -0.01221,0.0052 -0.01787,0.0085 -0.01742,0.01042 -0.02244,0.01716 -0.03736,0.03167 -0.06087,0.07173 -0.115256,0.147999 -0.149897,0.236444 -0.06429,0.159875 -0.123225,0.321539 -0.178814,0.484652 -0.08674,0.232165 -0.176211,0.46327 -0.26531,0.694536 -0.07564,0.202159 -0.161067,0.401585 -0.215888,0.610766 -0.01938,0.09698 -0.04444,0.202442 -0.0052,0.297744 0.0047,0.0065 0.0084,0.01374 0.01394,0.01951 0.03433,0.03581 0.09029,0.04088 0.134501,0.05634 0.08587,0.02014 0.172712,0.03747 0.260983,0.04238 0,0 -0.164226,0.116562 -0.164226,0.116562 z"
           id="path1933-8"
           style="opacity:1;fill:#000000;fill-opacity:1;fill-rule:evenodd;stroke:#000000;stroke-width:0.07926253;stroke-linecap:round;stroke-linejoin:bevel;stroke-miterlimit:4;stroke-dasharray:none;stroke-dashoffset:0;stroke-opacity:1" />
      </g>
    </g>
  </g>
</svg>
