<?xml version="1.0" encoding="UTF-8" standalone="no"?>
<svg
   xmlns:dc="http://purl.org/dc/elements/1.1/"
   xmlns:cc="http://creativecommons.org/ns#"
   xmlns:rdf="http://www.w3.org/1999/02/22-rdf-syntax-ns#"
   xmlns:svg="http://www.w3.org/2000/svg"
   xmlns="http://www.w3.org/2000/svg"
   id="svg3677"
   version="1.1"
   viewBox="0 0 3.96875 7.9375"
   height="7.9375mm"
   width="3.96875mm">
  <defs
     id="defs3671" />
  <metadata
     id="metadata3674">
    <rdf:RDF>
      <cc:Work
         rdf:about="">
        <dc:format>image/svg+xml</dc:format>
        <dc:type
           rdf:resource="http://purl.org/dc/dcmitype/StillImage" />
        <dc:title></dc:title>
      </cc:Work>
    </rdf:RDF>
  </metadata>
  <g
     transform="translate(-0.025,-289.03751)"
     id="layer1">
    <g
       id="g4241">
      <rect
         style="opacity:1;fill:none;fill-opacity:1;fill-rule:evenodd;stroke:none;stroke-width:0.05;stroke-linecap:round;stroke-linejoin:round;stroke-miterlimit:4;stroke-dasharray:none;stroke-dashoffset:0;stroke-opacity:1"
         id="rect3183-5-8"
         width="3.96875"
         height="7.9375"
         x="0.025"
         y="289.03751" />
      <g
         id="g3338"
         transform="matrix(0.72339885,0,0,0.72080697,-68.36405,298.58016)">
        <path
           d="m 96.346556,-4.5096181 c 0.0017,-0.1499121 0.0042,-0.299658 0.01056,-0.449454 0.01186,-0.238447 0.05087,-0.4742201 0.07711,-0.711249 0.02391,-0.22632 0.03579,-0.4535281 0.05165,-0.6804509 0.0117,-0.09516 0.0013,-0.1980612 0.0434,-0.28698 0.237886,-0.3423912 0.261664,-0.08492 0.289017,0.05241 0.04195,0.2014098 0.0654,0.4057348 0.08194,0.610585 0.0156,0.2213938 0.02177,0.4431768 0.01006,0.664831 -0.02824,0.2213618 -0.0893,0.4367538 -0.138003,0.6541389 -0.03225,0.1140791 -0.03326,0.2343711 -0.05763,0.34965 -0.02,0.09564 0.0011,0.0093 -0.236361,0.123521 0,0 0.215388,-0.1385681 0.215388,-0.1385681 v 0 c -0.221422,0.1238472 -0.301771,0.112663 -0.209752,0.1234242 0.0149,-0.0312 0.01664,-0.0683 0.02215,-0.1020371 0.01369,-0.08372 0.0283,-0.167281 0.04659,-0.2501429 0.04876,-0.2163241 0.109135,-0.4306602 0.139914,-0.6505872 0.01296,-0.2207109 0.0067,-0.4417179 -0.0078,-0.6622798 -0.01618,-0.2031871 -0.04008,-0.4059852 -0.08582,-0.6049121 -0.01097,-0.04802 -0.02114,-0.09624 -0.03602,-0.143256 -0.0012,-0.0037 -0.0073,-0.009 -0.004,-0.011089 0.07002,-0.04414 0.144475,-0.08085 0.215988,-0.1225331 0.0037,-0.0022 -0.0082,0.00249 -0.01233,0.0038 -0.06108,0.07613 -0.04048,0.190904 -0.05735,0.2803181 -0.0188,0.2275591 -0.03108,0.4556519 -0.05468,0.6828361 -0.0252,0.2360599 -0.06462,0.4707588 -0.07486,0.7082398 -0.0052,0.1481262 -0.008,0.296213 -0.0028,0.4444032 0,0 -0.2264,0.115357 -0.2264,0.115357 z"
           id="path1923-4"
           style="opacity:1;fill:#000000;fill-opacity:1;fill-rule:evenodd;stroke:#000000;stroke-width:0.1;stroke-linecap:round;stroke-linejoin:bevel;stroke-miterlimit:4;stroke-dasharray:none;stroke-dashoffset:0;stroke-opacity:1" />
        <path
           d="m 96.3635,-6.8010981 c -0.04381,-0.18044 -0.05639,-0.36567 -0.06675,-0.5504079 -0.01348,-0.303403 -0.01248,-0.607196 -0.01283,-0.910825 -0.0052,-0.362191 0.06239,-0.7192735 0.131562,-1.0731445 0.04699,-0.224272 0.08512,-0.450553 0.140259,-0.6730845 0.02537,-0.102392 0.05316,-0.194537 0.0825,-0.295598 0.05357,-0.161683 0.108063,-0.325552 0.193357,-0.473997 0.0412,-0.07171 0.06614,-0.100003 0.115529,-0.164384 0.139513,-0.160378 0.314522,-0.291744 0.51704,-0.363788 0.165585,-0.03238 0.336918,-0.02302 0.503944,-0.0083 0.151393,0.01995 0.306423,0.05232 0.436512,0.136957 0.07727,0.05027 0.09425,0.07552 0.15714,0.141207 0.161499,0.202513 0.177534,0.461067 0.193886,0.709353 0.02068,0.323373 -0.0055,0.6470475 -0.0657,0.9650795 -0.01443,0.07622 -0.03247,0.151705 -0.0487,0.227557 -0.07298,0.305324 -0.1695,0.6054724 -0.297548,0.8923762 -0.06653,0.1490692 -0.110908,0.2255571 -0.187254,0.3674462 -0.147813,0.2516651 -0.313153,0.4935199 -0.499638,0.7181041 -0.100224,0.1203849 -0.210525,0.231879 -0.31395,0.349404 -0.05222,0.05934 -0.102205,0.1206259 -0.153354,0.1808988 -0.125001,0.1498682 -0.251225,0.297798 -0.384858,0.4400142 -0.01329,0.01351 -0.02658,0.02703 -0.03987,0.04054 0,0 -0.23105,0.09561 -0.23105,0.09561 v 0 c 0.01391,-0.013499 0.02782,-0.02699 0.04173,-0.04049 0.05862,-0.06139 0.119474,-0.1209559 0.175138,-0.1851049 0.07311,-0.08426 0.139311,-0.1744882 0.215688,-0.255982 0.05134,-0.06033 0.100974,-0.1221222 0.153114,-0.1817651 0.102922,-0.1177311 0.213564,-0.2287161 0.314284,-0.3484329 0.190416,-0.2239201 0.358521,-0.4664141 0.510708,-0.7177482 0.07528,-0.136598 0.126331,-0.2233679 0.191647,-0.3667749 0.129853,-0.2851031 0.22717,-0.5843185 0.299729,-0.8887805 0.01602,-0.07533 0.03391,-0.150279 0.04805,-0.22598 0.05892,-0.315285 0.08318,-0.635985 0.06014,-0.9562525 -0.01774,-0.241781 -0.03307,-0.494729 -0.190782,-0.691804 -0.02347,-0.02426 -0.0451,-0.05043 -0.0704,-0.07277 -0.142124,-0.125495 -0.328163,-0.171215 -0.512113,-0.191576 -0.167067,-0.01173 -0.34059,-0.02105 -0.50402,0.0224 -0.09034,0.03935 -0.113147,0.05136 0.125609,-0.08029 0.01749,-0.0096 -0.0338,0.02138 -0.04976,0.03339 -0.06202,0.04664 -0.118058,0.101547 -0.169973,0.158978 -0.04828,0.06007 -0.07883,0.09415 -0.119275,0.161118 -0.08857,0.146658 -0.144241,0.310433 -0.199328,0.471592 -0.02971,0.09911 -0.05949,0.194745 -0.08495,0.295157 -0.05642,0.2224815 -0.09525,0.4489285 -0.142572,0.6733805 -0.06979,0.352076 -0.137711,0.707605 -0.13198,1.0681743 0.0012,0.3024671 0.002,0.605115 0.01668,0.9072911 0.01179,0.1813611 0.02447,0.364013 0.07489,0.5396029 0,0 -0.222501,0.1216642 -0.222501,0.1216642 z"
           id="path1925-7"
           style="opacity:1;fill:#000000;fill-opacity:1;fill-rule:evenodd;stroke:#000000;stroke-width:0.1;stroke-linecap:round;stroke-linejoin:bevel;stroke-miterlimit:4;stroke-dasharray:none;stroke-dashoffset:0;stroke-opacity:1" />
        <path
           d="m 95.939104,-6.902166 c -0.09128,-0.1314561 -0.168548,-0.2713562 -0.241012,-0.4138181 -0.117569,-0.236542 -0.230441,-0.4753491 -0.332798,-0.718905 -0.07099,-0.197785 -0.149078,-0.3984619 -0.165529,-0.6100569 -0.0028,-0.03563 -0.0014,-0.071461 -0.0021,-0.1071925 0.0087,-0.13602 0.04221,-0.274438 0.148061,-0.368333 0.01544,-0.01369 0.0332,-0.02451 0.04979,-0.03677 0.133441,-0.0762 0.301113,-0.20785 0.474074,-0.173011 0.01816,0.0037 0.03535,0.01112 0.05302,0.01667 0.146001,0.06894 0.225726,0.209637 0.302545,0.344311 0.06637,0.115768 0.120525,0.237077 0.167449,0.3617214 0.01587,0.04514 0.0087,0.02313 0.02173,0.06597 0,0 -0.222306,0.1213012 -0.222306,0.1213012 v 0 c -0.01163,-0.04212 -0.0051,-0.02037 -0.01969,-0.06517 -0.04388,-0.124523 -0.09352,-0.2464326 -0.160045,-0.3610376 -0.0741,-0.129052 -0.152454,-0.265533 -0.296276,-0.325384 -0.07359,-0.01758 -0.125611,-0.01822 -0.199035,0.0037 -0.01729,0.0052 -0.06557,0.02883 -0.05096,0.01825 0.05112,-0.03704 0.107831,-0.06569 0.161746,-0.09853 -0.01731,0.011 -0.03567,0.0205 -0.05193,0.03299 -0.110872,0.08519 -0.149429,0.218447 -0.160907,0.352421 -1.44e-4,0.03511 -0.0025,0.07029 -4.23e-4,0.105339 0.01249,0.2100295 0.09172,0.4090756 0.16021,0.6054356 0.101668,0.2431251 0.214916,0.4809331 0.334951,0.7155111 0.07295,0.1401038 0.149962,0.2788899 0.247652,0.4035959 0,0 -0.218204,0.131009 -0.218204,0.131009 z"
           id="path1927-2"
           style="opacity:1;fill:#000000;fill-opacity:1;fill-rule:evenodd;stroke:#000000;stroke-width:0.1;stroke-linecap:round;stroke-linejoin:bevel;stroke-miterlimit:4;stroke-dasharray:none;stroke-dashoffset:0;stroke-opacity:1" />
      </g>
    </g>
  </g>
</svg>
