<?xml version="1.0" encoding="UTF-8" standalone="no"?>
<svg
   xmlns:dc="http://purl.org/dc/elements/1.1/"
   xmlns:cc="http://creativecommons.org/ns#"
   xmlns:rdf="http://www.w3.org/1999/02/22-rdf-syntax-ns#"
   xmlns:svg="http://www.w3.org/2000/svg"
   xmlns="http://www.w3.org/2000/svg"
   id="svg7496"
   version="1.1"
   viewBox="0 0 3.96875 7.9375"
   height="7.9375mm"
   width="3.96875mm">
  <defs
     id="defs7490" />
  <metadata
     id="metadata7493">
    <rdf:RDF>
      <cc:Work
         rdf:about="">
        <dc:format>image/svg+xml</dc:format>
        <dc:type
           rdf:resource="http://purl.org/dc/dcmitype/StillImage" />
        <dc:title></dc:title>
      </cc:Work>
    </rdf:RDF>
  </metadata>
  <g
     transform="translate(-0.025,-289.03751)"
     id="layer1">
    <g
       id="g8075">
      <rect
         style="opacity:1;fill:none;fill-opacity:1;fill-rule:evenodd;stroke:none;stroke-width:0.05;stroke-linecap:round;stroke-linejoin:round;stroke-miterlimit:4;stroke-dasharray:none;stroke-dashoffset:0;stroke-opacity:1"
         id="rect3559"
         width="3.96875"
         height="7.9375"
         x="0.025"
         y="289.03751" />
      <g
         transform="translate(-111.1,300.27708)"
         id="g7470">
        <path
           d="m 113.86242,-5.142796 c 0.004,-0.1466632 0.005,-0.2933912 0.006,-0.4400922 0.002,-0.2611519 0.002,-0.5223072 0.001,-0.7834608 -0.002,-0.1360892 -4.8e-4,-0.2722795 -0.007,-0.4083096 -0.0144,-0.070994 -0.0769,0.00205 0.19652,-0.090487 0.005,-0.00156 -0.003,0.00772 -0.005,0.011697 -0.0112,0.030211 0.001,8.206e-4 -0.0122,0.031123 -0.0171,0.029546 -0.0304,0.06048 -0.0425,0.091615 -0.0136,0.029702 -0.0247,0.060324 -0.0479,0.086042 -0.0954,0.069244 -0.21263,0.1692698 -0.2763,0.068086 -0.0346,-0.07239 -0.0489,-0.1504983 -0.0613,-0.2272173 -0.0208,-0.140492 -0.0191,-0.2822226 -0.003,-0.4229175 0.0158,-0.079126 0.0264,-0.1646034 0.08,-0.2337548 0.0696,-0.034014 0.13525,-0.074222 0.20883,-0.1020265 0.008,-0.00296 0.0257,0.023147 0.0367,0.042664 0.0313,0.055642 0.048,0.1144092 0.0661,0.1735773 0.0481,0.1895191 0.0882,0.3805905 0.11951,0.5724933 0.0132,0.074764 0.0182,0.1502256 0.0296,0.2251351 0,0 -0.2017,0.086739 -0.2017,0.086739 v 0 c -0.009,-0.07575 -0.0118,-0.1519316 -0.0233,-0.2275245 -0.028,-0.1913927 -0.0663,-0.3820436 -0.1192,-0.5698919 -0.0187,-0.054944 -0.0244,-0.078731 -0.049,-0.1291246 -0.006,-0.012715 -0.0135,-0.025053 -0.0212,-0.037234 -0.004,-0.00657 -0.008,-0.01343 -0.014,-0.019016 -10e-4,-0.00107 -0.006,0.00205 -0.005,0.00123 0.0613,-0.030926 0.12292,-0.06131 0.18438,-0.091968 -0.0663,0.060209 -0.0722,0.1512606 -0.0917,0.2269028 -0.0182,0.1391465 -0.02,0.2795481 0.002,0.4185837 0.0131,0.074066 0.0286,0.1493565 0.0633,0.218931 0.005,0.00772 0.007,0.013249 0.0158,0.018005 0.004,0.0023 0.02,-0.00337 0.0155,-0.00123 -0.1611,0.079643 -0.25134,0.1169234 -0.16955,0.082833 0.0301,-0.020519 0.0366,-0.050007 0.0526,-0.078132 0.0108,-0.031969 0.0245,-0.063527 0.041,-0.093763 0.003,-0.00444 0.006,-0.00852 0.008,-0.01311 0.002,-0.00476 0.004,-0.00977 0.005,-0.014777 0.001,-0.00476 -0.002,-0.011919 0.003,-0.01458 0.12208,-0.064291 0.20476,-0.164403 0.21941,-0.074772 -0.006,0.1379259 -0.005,0.2760005 -0.007,0.4139839 -0.001,0.2608661 -7.2e-4,0.5217339 0.001,0.7825975 10e-4,0.1449424 0.002,0.2899134 0.006,0.4348163 0,0 -0.20605,0.086238 -0.20605,0.086238 z"
           id="path4289-5"
           style="opacity:1;fill:#000000;fill-opacity:1;fill-rule:evenodd;stroke:#000000;stroke-width:0.08237075;stroke-linecap:round;stroke-linejoin:bevel;stroke-miterlimit:4;stroke-dasharray:none;stroke-dashoffset:0;stroke-opacity:1" />
        <path
           d="m 113.85554,-6.5994493 c 0.14991,0.09364 0.29421,0.195227 0.43324,0.304303 0.11976,0.102076 0.21791,0.228997 0.2592,0.383357 0.0272,0.10177 0.0193,0.125595 0.0166,0.228456 -0.0206,0.166002 -0.0841,0.321198 -0.13972,0.477525 0,0 -0.20662,0.09616 -0.20662,0.09616 v 0 c 0.0602,-0.15473 0.12606,-0.309033 0.15003,-0.474609 0.005,-0.100293 0.0136,-0.121442 -0.0122,-0.221055 -0.0391,-0.150851 -0.13549,-0.274192 -0.25245,-0.373184 -0.1404,-0.108228 -0.28603,-0.210059 -0.44196,-0.294932 0,0 0.19388,-0.126025 0.19388,-0.126025 z"
           id="path4291-6"
           style="opacity:1;fill:#000000;fill-opacity:1;fill-rule:evenodd;stroke:#000000;stroke-width:0.09088556;stroke-linecap:round;stroke-linejoin:bevel;stroke-miterlimit:4;stroke-dasharray:none;stroke-dashoffset:0;stroke-opacity:1" />
        <path
           d="m 113.53368,-4.072696 c 0.0101,-0.095459 0.0111,-0.191634 0.0128,-0.2875288 0.002,-0.1288224 0.002,-0.2576584 0.002,-0.3864888 -0.002,-0.1116899 0.003,-0.2237816 0.0232,-0.3337922 0.0173,-0.078467 0.0421,-0.1551776 0.0783,-0.2269252 0.0331,-0.062202 0.0856,-0.1088189 0.14014,-0.1517449 0.07,-0.052912 0.14483,-0.093947 0.22246,-0.1369338 0.01,-0.00545 0.0185,-0.00347 0.0288,-0.00283 0.0374,0.00526 0.0522,0.045324 0.0659,0.075719 0.0335,0.081787 0.0482,0.1689352 0.0614,0.2557878 0.021,0.1438995 0.0236,0.289523 0.0265,0.434652 0.002,0.1411533 0.003,0.282322 0.003,0.4234862 7.9e-4,0.087167 7.9e-4,0.174339 0.002,0.2615039 2.6e-4,0.023516 5.3e-4,0.047033 10e-4,0.07055 0,0 -0.15328,0.078091 -0.15328,0.078091 v 0 c 2.7e-4,-0.02386 8e-4,-0.047722 0.001,-0.071582 10e-4,-0.087858 10e-4,-0.1757236 0.002,-0.2635829 0.001,-0.1415579 0.002,-0.2831288 -2.6e-4,-0.4246814 -0.003,-0.1440037 -0.007,-0.2884832 -0.0282,-0.4311491 -0.0144,-0.084628 -0.0301,-0.1695686 -0.0647,-0.2487399 -0.0123,-0.025537 -0.0227,-0.059114 -0.0562,-0.057241 -0.0517,0.012412 -0.15623,0.083402 0.10862,-0.06843 0.006,-0.00347 -0.0119,0.00741 -0.0176,0.011343 -0.007,0.00473 -0.0137,0.00975 -0.0206,0.014621 -0.008,0.0055 -0.0165,0.011001 -0.0247,0.016502 -0.0546,0.041162 -0.10828,0.085112 -0.14316,0.145103 -0.0384,0.070006 -0.0639,0.1459987 -0.0826,0.2235105 -0.0228,0.1090015 -0.0278,0.2208276 -0.0267,0.3319891 -5.3e-4,0.1288772 -2.7e-4,0.2577571 -0.001,0.3866319 -7.9e-4,0.095057 -0.002,0.1901227 -0.005,0.2851264 0,0 -0.15463,0.077032 -0.15463,0.077032 z"
           id="path3631"
           style="opacity:1;fill:#000000;fill-opacity:1;fill-rule:evenodd;stroke:#000000;stroke-width:0.05;stroke-linecap:round;stroke-linejoin:round;stroke-miterlimit:4;stroke-dasharray:none;stroke-dashoffset:0;stroke-opacity:1" />
        <path
           d="m 111.67597,-4.0516982 c 0.0187,-0.04969 0.0245,-0.1014339 0.0319,-0.1526904 0.008,-0.066738 0.0283,-0.131887 0.0494,-0.196688 0.0124,-0.04475 0.037,-0.084921 0.0705,-0.1220604 0.0689,-0.068664 0.16297,-0.099969 0.26017,-0.1442904 0.0444,-0.013538 0.0921,-0.018475 0.13919,-0.022589 0.0369,-0.0039 0.073,-0.00424 0.10922,0.0029 0.0311,0.00565 0.0598,0.016499 0.0871,0.029035 0.0365,0.02027 0.073,0.040278 0.11153,0.058043 0.0451,0.02253 0.092,0.043016 0.13487,0.068016 0.0315,0.020073 0.0586,0.044589 0.0797,0.071757 0.0224,0.03356 0.0367,0.070044 0.0537,0.1054356 0.019,0.039665 0.0325,0.08057 0.0413,0.1222907 0.005,0.024749 0.006,0.049816 0.007,0.074822 0.004,0.051836 0.0551,-0.00497 -0.16056,0.064446 -0.003,8.759e-4 2e-5,-0.00458 3e-5,-0.00686 4e-5,-0.00992 2.8e-4,-0.00525 -8.2e-4,-0.014187 -0.003,-0.016708 -0.008,-0.033037 -0.0153,-0.049187 -0.0128,-0.027984 -0.0154,-0.057742 -0.0174,-0.087183 -0.002,-0.056565 -8.2e-4,-0.113167 -2.7e-4,-0.1697422 1e-5,-0.088668 2e-4,-0.1772749 0.006,-0.2658246 0.007,-0.1171413 0.0392,-0.2319448 0.0683,-0.3466283 0.0272,-0.097261 0.0638,-0.1924302 0.10807,-0.2856736 0.037,-0.074688 0.0762,-0.1487221 0.12189,-0.2204231 0.0452,-0.068633 0.0957,-0.1349365 0.14302,-0.2026163 0.0282,-0.033784 0.0454,-0.07203 0.0691,-0.107528 0.009,-0.01338 0.0219,-0.025377 0.0301,-0.039165 0.008,-0.018625 -0.002,0.00387 0.007,4.72e-4 0.11318,-0.042829 0.203,-0.094128 0.14709,-0.062399 -0.0368,0.019971 -0.07,0.043344 -0.10295,0.066978 -0.053,0.039386 -0.0954,0.086296 -0.14011,0.1312676 -0.0638,0.065129 -0.13052,0.1285043 -0.19796,0.1913536 -0.0663,0.063351 -0.12888,0.1291858 -0.18698,0.1973096 -0.0617,0.076115 -0.11839,0.1545931 -0.17834,0.2315548 -0.0594,0.076029 -0.12394,0.1495016 -0.18201,0.2261611 -0.0417,0.052731 -0.0752,0.1089837 -0.10835,0.1651961 -0.0227,0.04369 -0.0501,0.085398 -0.0813,0.1256575 -0.0212,0.025076 -0.0434,0.050076 -0.0696,0.072214 -0.0163,0.011157 -0.0315,0.022139 -0.0443,0.035749 -0.0121,0.013914 -0.0231,0.028775 -0.0311,0.044466 -0.005,0.015236 -0.0121,0.029941 -0.0161,0.045414 -0.002,0.01015 -0.007,0.019775 -0.0105,0.029618 0,0 -0.16743,0.053682 -0.16743,0.053682 v 0 c 0.0116,4.291e-4 0.012,-0.015106 0.0164,-0.021413 0.003,-0.016412 0.009,-0.031569 0.0149,-0.047376 0.006,-0.017551 0.0179,-0.03268 0.0288,-0.048591 0.006,-0.00662 0.0114,-0.014264 0.018,-0.020631 0.007,-0.00749 0.007,-0.00459 0.0165,-0.010786 0.003,-0.0021 0.006,-0.00456 0.009,-0.00685 0.0298,-0.0189 0.05,-0.045957 0.0732,-0.069518 0.0325,-0.039569 0.0614,-0.080652 0.0834,-0.1245261 0.0341,-0.056755 0.0675,-0.1139451 0.10996,-0.1672729 0.0587,-0.07695 0.12403,-0.1505656 0.1839,-0.2269756 0.0599,-0.076726 0.11617,-0.1550551 0.17666,-0.2314777 0.0573,-0.069058 0.12076,-0.1348347 0.18666,-0.198943 0.0672,-0.062286 0.13348,-0.1252566 0.19646,-0.1902237 0.0441,-0.045076 0.0859,-0.092023 0.13685,-0.1326449 0.0317,-0.023349 0.0631,-0.047523 0.0989,-0.066923 0.0309,-0.020708 0.19199,-0.1212202 0.1762,-0.050177 -0.005,0.015977 -0.018,0.028365 -0.0294,0.042081 -0.0114,0.012375 -0.0175,0.024994 -0.0257,0.038812 -0.0143,0.024016 -0.0317,0.046723 -0.0484,0.069718 -0.0478,0.067604 -0.0987,0.1339057 -0.14423,0.2025146 -0.0466,0.071085 -0.0856,0.1450332 -0.12313,0.2192958 -0.0459,0.09291 -0.0846,0.1876791 -0.11267,0.2849637 -0.0296,0.1138393 -0.0611,0.2278661 -0.0679,0.3442926 -0.006,0.087958 -0.004,0.1759088 -0.004,0.2639582 5.5e-4,0.055918 5.5e-4,0.1118608 0.003,0.1677446 0.002,0.028073 0.004,0.056579 0.0166,0.083239 0.007,0.016674 0.0132,0.033597 0.0173,0.05099 5.5e-4,0.0021 0.005,0.021194 0.002,0.022687 -0.23706,0.1124776 -0.16417,0.1154857 -0.16032,0.063972 5.5e-4,-0.024657 -8.1e-4,-0.049362 -0.004,-0.073859 -0.007,-0.041068 -0.0201,-0.081172 -0.0389,-0.1199907 -0.0169,-0.034443 -0.0314,-0.069907 -0.053,-0.102713 -0.02,-0.025577 -0.046,-0.048435 -0.0757,-0.067374 -0.0423,-0.024797 -0.0884,-0.045357 -0.13331,-0.067028 -0.0385,-0.017893 -0.0752,-0.03793 -0.11268,-0.057105 -0.0266,-0.011223 -0.0544,-0.020789 -0.0842,-0.025468 -0.0348,-0.00466 -0.0697,-0.00332 -0.1047,2.095e-4 -0.0462,0.00462 -0.0933,0.010191 -0.13511,0.02716 0.25521,-0.1169574 0.1411,-0.0698 0.0946,-0.039684 -0.0193,0.01248 -0.0361,0.027386 -0.0536,0.041308 -0.035,0.035534 -0.0618,0.073868 -0.0752,0.1179539 -0.0221,0.064217 -0.0436,0.1286935 -0.0514,0.1951607 -0.007,0.051167 -0.0122,0.1025017 -0.0257,0.1529443 0,0 -0.16246,0.060419 -0.16246,0.060419 z"
           id="path3651"
           style="opacity:1;fill:#000000;fill-opacity:1;fill-rule:evenodd;stroke:#000000;stroke-width:0.0458235;stroke-linecap:round;stroke-linejoin:round;stroke-miterlimit:4;stroke-dasharray:none;stroke-dashoffset:0;stroke-opacity:1" />
        <path
           d="m 112.02667,-5.0805701 c 0.0304,-0.074797 0.0744,-0.1431007 0.11922,-0.209859 0.0771,-0.1126583 0.16492,-0.2171359 0.25357,-0.3207531 0.0832,-0.094059 0.17248,-0.1823593 0.2662,-0.2659052 0.0555,-0.046026 0.11254,-0.09016 0.16692,-0.1374759 0.0282,-0.025421 0.0547,-0.052831 0.0863,-0.074204 0.0535,-0.03004 0.10698,-0.06008 0.16048,-0.09012 0,0 -0.13574,0.1075449 -0.13574,0.1075449 v 0 c 0.0456,-0.026523 0.0911,-0.053046 0.13668,-0.079569 -0.0346,0.017626 -0.0613,0.046138 -0.0897,0.072082 -0.055,0.048558 -0.11327,0.093268 -0.17059,0.1389579 -0.0956,0.082679 -0.18591,0.1710478 -0.2704,0.2651048 -0.0879,0.1026271 -0.17563,0.2055842 -0.25138,0.3177275 -0.0433,0.064477 -0.0863,0.1303187 -0.1149,0.2028725 0,0 -0.15671,0.073596 -0.15671,0.073596 z"
           id="path3659"
           style="opacity:1;fill:#000000;fill-opacity:1;fill-rule:evenodd;stroke:#000000;stroke-width:0.05;stroke-linecap:round;stroke-linejoin:round;stroke-miterlimit:4;stroke-dasharray:none;stroke-dashoffset:0;stroke-opacity:1" />
        <path
           d="m 113.79508,-6.4633501 c -0.0642,0.00618 -0.12097,0.035288 -0.17655,0.065728 0.0352,-0.020061 0.0701,-0.04075 0.10571,-0.060181 0.0138,-0.00756 -0.027,0.016306 -0.0405,0.024561 -0.052,0.031897 -0.10296,0.065081 -0.15355,0.099129 -0.046,0.031891 -0.092,0.064025 -0.13606,0.09859 -0.0279,0.021542 -0.0502,0.048883 -0.0768,0.071769 -0.0144,0.012835 -0.0309,0.023437 -0.0427,0.038877 -0.01,0.013197 -0.0247,0.020116 -0.0383,0.028585 0,0 -0.16063,0.067741 -0.16063,0.067741 v 0 c 0.008,-0.015161 0.0248,-0.019703 0.0388,-0.02825 0.0155,-0.017216 -0.005,0.0061 0.0104,-0.014587 0.008,-0.011149 0.0218,-0.018235 0.032,-0.027153 0.0138,-0.01243 0.006,-0.00634 0.0222,-0.018158 0.0198,-0.016965 0.0343,-0.039432 0.0556,-0.054886 0.0446,-0.035999 0.0919,-0.068399 0.1389,-0.1011877 0.12215,-0.081963 0.24674,-0.1601042 0.37611,-0.2304008 0.0582,-0.030452 0.11795,-0.05727 0.18428,-0.06325 0,0 -0.13893,0.1030745 -0.13893,0.1030745 z"
           id="path3663"
           style="opacity:1;fill:#000000;fill-opacity:1;fill-rule:evenodd;stroke:#000000;stroke-width:0.05;stroke-linecap:round;stroke-linejoin:round;stroke-miterlimit:4;stroke-dasharray:none;stroke-dashoffset:0;stroke-opacity:1" />
        <path
           d="m 111.82072,-4.9465793 c 0.0531,0.024691 0.10744,0.046779 0.16185,0.06844 0.0646,0.026665 0.13304,0.042515 0.20147,0.055835 0.10977,0.018613 0.0913,-0.00607 -0.0865,0.098133 -0.0169,-0.020476 -0.0326,-0.0418 -0.0475,-0.063796 -0.0306,-0.04312 -0.0604,-0.087064 -0.0863,-0.133177 -0.021,-0.033432 -0.0349,-0.069121 -0.0412,-0.1079653 -0.007,-0.046264 0.0125,-0.089932 0.0294,-0.1319448 0.0162,-0.038308 0.0351,-0.075848 0.0663,-0.1039905 0.0422,-0.021828 0.11563,-0.1048494 0.18308,-0.088804 0,0 -0.1413,0.1010362 -0.1413,0.1010362 v 0 c -0.0557,0.00811 -0.1389,0.083591 0.11883,-0.076149 -0.0356,0.022098 -0.0548,0.058966 -0.0717,0.096271 -0.0161,0.038746 -0.0362,0.08011 -0.032,0.1229762 0.005,0.037039 0.0173,0.071224 0.037,0.1032299 0.0252,0.045882 0.0545,0.089468 0.0858,0.1314235 0.016,0.022164 0.0338,0.042585 0.0508,0.06387 -0.15997,0.10892 -0.0945,0.1083162 -0.20472,0.086323 -0.0684,-0.015417 -0.1368,-0.032183 -0.20167,-0.059202 -0.0554,-0.021849 -0.11072,-0.043999 -0.16597,-0.066252 0,0 0.14444,-0.096258 0.14444,-0.096258 z"
           id="path3665"
           style="opacity:1;fill:#000000;fill-opacity:1;fill-rule:evenodd;stroke:#000000;stroke-width:0.05;stroke-linecap:round;stroke-linejoin:round;stroke-miterlimit:4;stroke-dasharray:none;stroke-dashoffset:0;stroke-opacity:1" />
        <path
           d="m 112.19127,-5.3916172 c 0.0224,-0.03399 0.0478,-0.066034 0.0796,-0.09158 0.0536,-0.031035 0.10649,-0.06348 0.16092,-0.093106 0.0289,-0.015737 0.0626,0.027887 0.0777,0.04465 0.0444,0.055671 0.0841,0.114976 0.12209,0.1751888 0.0238,0.032251 0.0378,0.072769 0.0667,0.1011489 0.0104,0.00787 0.0227,0.00885 0.0352,0.00987 0,0 -0.14199,0.099883 -0.14199,0.099883 v 0 c -0.0155,-0.00339 -0.0298,-0.00809 -0.0413,-0.019696 -0.0274,-0.031419 -0.0421,-0.071592 -0.0651,-0.1060349 -0.0363,-0.05993 -0.0761,-0.1180545 -0.12173,-0.1713606 -0.0102,-0.010213 -0.0188,-0.020627 -0.0316,-0.027594 -0.004,-0.00204 -0.008,-0.0035 -0.0122,-0.00401 -0.008,-0.00101 -0.0149,0.00315 -0.0222,0.00631 0.0447,-0.026204 0.0894,-0.052406 0.13409,-0.078609 -0.0339,0.021323 -0.0588,0.051697 -0.0816,0.084306 0,0 -0.15845,0.070627 -0.15845,0.070627 z"
           id="path3667"
           style="opacity:1;fill:#000000;fill-opacity:1;fill-rule:evenodd;stroke:#000000;stroke-width:0.05;stroke-linecap:round;stroke-linejoin:round;stroke-miterlimit:4;stroke-dasharray:none;stroke-dashoffset:0;stroke-opacity:1" />
      </g>
    </g>
  </g>
</svg>
