<?xml version="1.0" encoding="UTF-8" standalone="no"?>
<svg
   xmlns:dc="http://purl.org/dc/elements/1.1/"
   xmlns:cc="http://creativecommons.org/ns#"
   xmlns:rdf="http://www.w3.org/1999/02/22-rdf-syntax-ns#"
   xmlns:svg="http://www.w3.org/2000/svg"
   xmlns="http://www.w3.org/2000/svg"
   id="svg2439"
   version="1.1"
   viewBox="0 0 3.9687519 7.9375"
   height="7.9375mm"
   width="3.9687519mm">
  <defs
     id="defs2433" />
  <metadata
     id="metadata2436">
    <rdf:RDF>
      <cc:Work
         rdf:about="">
        <dc:format>image/svg+xml</dc:format>
        <dc:type
           rdf:resource="http://purl.org/dc/dcmitype/StillImage" />
        <dc:title></dc:title>
      </cc:Work>
    </rdf:RDF>
  </metadata>
  <g
     transform="translate(-0.02165064,-289.04086)"
     id="layer1">
    <g
       id="g3009">
      <rect
         style="opacity:1;fill:none;fill-opacity:1;fill-rule:evenodd;stroke:none;stroke-width:0.04330128;stroke-linecap:round;stroke-linejoin:round;stroke-miterlimit:4;stroke-dasharray:none;stroke-dashoffset:0;stroke-opacity:1"
         id="rect3352-2"
         width="3.9687519"
         height="7.9375"
         x="0.02165064"
         y="289.04086" />
      <g
         id="g3780"
         transform="matrix(1.1803069,0,0,1.1803069,-112.83321,308.31321)">
        <path
           d="m 96.807172,-10.12721 c 0.0016,-0.10077 7.94e-4,-0.201347 0.0086,-0.301886 0.0093,-0.103476 0.03428,-0.204242 0.07102,-0.301164 0.02357,-0.05753 0.05183,-0.112627 0.09601,-0.15685 0.07287,-0.06339 0.157498,-0.123754 0.254108,-0.138467 0.03594,-0.0044 0.06151,-0.0071 0.0913,0.01565 0.04017,0.03401 0.06088,0.0832 0.08293,0.12968 0.04749,0.09752 0.0738,0.202849 0.09355,0.308943 0.0172,0.10354 0.02093,0.208565 0.0232,0.313291 0.0011,0.06406 0.0013,0.128136 0.0016,0.192208 8e-6,0.0067 1.9e-5,0.01345 2.1e-5,0.02017 1.1e-5,0.01405 -5.29e-4,0.01996 0.0016,0.03327 1.35e-4,7.94e-4 0.0028,0.01229 0.0047,0.014261 5.29e-4,6.35e-4 5.9e-5,-0.0018 8.8e-5,-0.0027 0,0 -0.153112,0.09751 -0.153112,0.09751 v 0 c -0.01778,-0.02272 -0.01265,-0.05434 -0.01288,-0.08127 7.94e-4,-0.0644 0.0019,-0.128809 0.0013,-0.193219 -0.0013,-0.104059 -0.0042,-0.208436 -0.02059,-0.311413 -0.01894,-0.104546 -0.04492,-0.208297 -0.09331,-0.303592 -0.02175,-0.04311 -0.04162,-0.08987 -0.08093,-0.120109 -0.02545,-0.01485 -0.0549,-0.0085 -0.0828,-0.0042 -0.01373,0.0033 -0.01881,0.004 -0.03199,0.0094 -0.0054,0.0022 -0.0209,0.01064 -0.01587,0.0076 0.251058,-0.150607 0.151302,-0.0953 0.102788,-0.05501 -0.04876,0.04265 -0.07566,0.09136 -0.101425,0.150581 -0.03857,0.09536 -0.06532,0.194754 -0.07521,0.297446 -0.0081,0.09934 -0.0078,0.19879 -0.0048,0.298389 0,0 -0.159869,0.08146 -0.159869,0.08146 z"
           id="path1521-6"
           style="opacity:1;fill:#000000;fill-opacity:1;fill-rule:evenodd;stroke:#000000;stroke-width:0.1;stroke-linecap:round;stroke-linejoin:bevel;stroke-miterlimit:4;stroke-dasharray:none;stroke-dashoffset:0;stroke-opacity:1" />
        <path
           d="m 97.083653,-11.01562 c -0.02482,-0.09584 -0.03763,-0.19405 -0.04656,-0.292461 -0.0097,-0.127838 -0.01135,-0.256079 -0.01286,-0.384215 7.94e-4,-0.07351 -0.0064,-0.151176 0.0222,-0.220611 0.04533,-0.06163 0.132802,-0.146017 0.209145,-0.115126 0.01651,0.0067 0.02373,0.01613 0.0367,0.02835 0.05467,0.0613 0.08576,0.138234 0.111202,0.215202 0.03024,0.108003 0.03583,0.2203 0.03992,0.331727 0.0021,0.0953 -0.01331,0.189429 -0.02947,0.282956 -0.0016,0.0088 -0.0031,0.01767 -0.0047,0.0265 0,0 -0.160608,0.0779 -0.160608,0.0779 v 0 c 0.0019,-0.0089 0.0039,-0.01782 0.0059,-0.02673 0.01765,-0.09265 0.03477,-0.18589 0.03331,-0.280662 -0.0035,-0.109772 -0.0084,-0.220558 -0.03818,-0.326963 -0.02468,-0.07372 -0.0548,-0.148163 -0.109206,-0.205375 -0.01114,-0.0087 -0.01704,-0.01647 -0.03126,-0.01822 -0.0044,-5.56e-4 -0.01717,0.0038 -0.01339,0.0014 0.254407,-0.164961 0.161604,-0.103225 0.113889,-0.06485 -0.03747,0.06378 -0.0269,0.144265 -0.02994,0.215179 5.29e-4,0.127777 0.0016,0.255701 0.01167,0.383153 0.0093,0.09646 0.02162,0.193176 0.04954,0.286285 0,0 -0.157276,0.08662 -0.157276,0.08662 z"
           id="path1523-0"
           style="opacity:1;fill:#000000;fill-opacity:1;fill-rule:evenodd;stroke:#000000;stroke-width:0.1;stroke-linecap:round;stroke-linejoin:bevel;stroke-miterlimit:4;stroke-dasharray:none;stroke-dashoffset:0;stroke-opacity:1" />
        <path
           d="m 97.067278,-12.102304 c -0.04264,-0.09005 -0.07225,-0.185161 -0.09719,-0.281371 -0.02825,-0.106177 -0.04612,-0.214605 -0.05782,-0.323733 -0.01368,-0.141829 0.02771,-0.115647 0.179935,-0.204118 0.04282,-0.0086 0.06376,0.0022 0.0918,0.03421 0.04263,0.05697 0.06319,0.125259 0.07849,0.193725 0.01535,0.08061 0.01918,0.162615 0.01159,0.244194 -0.0048,0.06127 -0.0254,0.11985 -0.02964,0.181092 0.0016,0.01464 2.7e-5,0.0081 0.0038,0.01978 0,0 -0.15825,0.08713 -0.15825,0.08713 v 0 c -0.0054,-0.01603 -0.0031,-0.0072 -0.0061,-0.02652 0.0044,-0.06207 0.02535,-0.120999 0.03196,-0.182838 0.0086,-0.07983 0.0051,-0.160024 -0.0092,-0.239139 -0.01416,-0.06551 -0.03347,-0.130968 -0.07595,-0.184305 -0.02519,-0.02555 -0.04584,-0.02954 -0.07932,-0.01485 0.04725,-0.02818 0.09451,-0.05637 0.141764,-0.08455 -0.01016,0.0059 -0.01429,0.0063 -0.01958,0.01798 -0.01074,0.02365 -0.0051,0.05175 -0.0044,0.07638 0.0089,0.108892 0.02513,0.21712 0.05362,0.322769 0.02495,0.09489 0.0545,0.189356 0.101433,0.276012 0,0 -0.156953,0.08815 -0.156953,0.08815 z"
           id="path1557-2"
           style="opacity:1;fill:#000000;fill-opacity:1;fill-rule:evenodd;stroke:#000000;stroke-width:0.1;stroke-linecap:round;stroke-linejoin:bevel;stroke-miterlimit:4;stroke-dasharray:none;stroke-dashoffset:0;stroke-opacity:1" />
        <path
           d="m 96.814898,-11.691678 c -0.05503,-0.02538 -0.112374,-0.04565 -0.165982,-0.07403 -0.03628,-0.02114 -0.06636,-0.05053 -0.09342,-0.08225 -0.01749,-0.02027 -0.03018,-0.04403 -0.04776,-0.06418 -0.02516,-0.02048 -0.0199,0.0013 -0.03943,0.0019 -0.02207,-0.0021 -0.03838,-0.07332 -0.04373,-0.08936 -0.02848,-0.08985 -0.04349,-0.18253 -0.05352,-0.275978 -0.006,-0.0755 -0.01191,-0.151181 -0.006,-0.226819 0.0026,-0.02904 0.01225,-0.05508 0.02818,-0.07917 0,0 0.165663,-0.07043 0.165663,-0.07043 v 0 c -0.02008,0.01917 -0.03009,0.04245 -0.03408,0.07005 -0.0081,0.07486 -0.0037,0.149976 0.0021,0.224924 0.0091,0.09209 0.0236,0.183418 0.05317,0.271461 0.01045,0.02832 0.01003,0.02846 0.02072,0.05336 0.0021,0.0048 0.0045,0.0094 0.0064,0.01428 1.72e-4,4.23e-4 -5.29e-4,0.0017 -2.6e-4,0.0014 0.0029,-0.0042 -0.0026,-10e-4 0.0051,-0.0039 0.01826,-0.01098 0.03672,0.0025 0.05024,0.01539 0.01691,0.02062 0.03041,0.04366 0.04722,0.06439 0.02569,0.03004 0.05406,0.05773 0.08893,0.07705 0.05358,0.02802 0.110185,0.0497 0.166256,0.07214 0,0 -0.149799,0.09983 -0.149799,0.09983 z"
           id="path1561-7"
           style="opacity:1;fill:#000000;fill-opacity:1;fill-rule:evenodd;stroke:#000000;stroke-width:0.1;stroke-linecap:round;stroke-linejoin:bevel;stroke-miterlimit:4;stroke-dasharray:none;stroke-dashoffset:0;stroke-opacity:1" />
        <path
           d="m 97.520105,-11.817114 c 0.04557,0.06756 0.08088,0.140352 0.106185,0.217646 0.02622,0.08792 0.03015,0.179865 0.03377,0.270894 0.0016,0.06463 0.0038,0.129242 -0.0026,0.193652 -7.94e-4,0.0071 -0.0016,0.01429 -0.0026,0.02143 0,0 -0.160758,0.07919 -0.160758,0.07919 v 0 c 0.0011,-0.0071 0.0021,-0.01419 0.0033,-0.02128 0.0079,-0.06386 0.0066,-0.127978 0.0055,-0.192253 -0.0024,-0.08962 -0.0061,-0.180051 -0.03083,-0.266811 -0.0245,-0.07558 -0.05893,-0.147206 -0.106741,-0.211078 0,0 0.154811,-0.09139 0.154811,-0.09139 z"
           id="path1567-6"
           style="opacity:1;fill:#000000;fill-opacity:1;fill-rule:evenodd;stroke:#000000;stroke-width:0.1;stroke-linecap:round;stroke-linejoin:bevel;stroke-miterlimit:4;stroke-dasharray:none;stroke-dashoffset:0;stroke-opacity:1" />
      </g>
    </g>
  </g>
</svg>
