<?xml version="1.0" encoding="UTF-8" standalone="no"?>
<svg
   xmlns:dc="http://purl.org/dc/elements/1.1/"
   xmlns:cc="http://creativecommons.org/ns#"
   xmlns:rdf="http://www.w3.org/1999/02/22-rdf-syntax-ns#"
   xmlns:svg="http://www.w3.org/2000/svg"
   xmlns="http://www.w3.org/2000/svg"
   id="svg3060"
   version="1.1"
   viewBox="0 0 3.9687519 7.9375"
   height="7.9375mm"
   width="3.9687519mm">
  <defs
     id="defs3054" />
  <metadata
     id="metadata3057">
    <rdf:RDF>
      <cc:Work
         rdf:about="">
        <dc:format>image/svg+xml</dc:format>
        <dc:type
           rdf:resource="http://purl.org/dc/dcmitype/StillImage" />
        <dc:title></dc:title>
      </cc:Work>
    </rdf:RDF>
  </metadata>
  <g
     transform="translate(-0.02165064,-289.04086)"
     id="layer1">
    <g
       id="g3657">
      <rect
         style="opacity:1;fill:none;fill-opacity:1;fill-rule:evenodd;stroke:none;stroke-width:0.04330128;stroke-linecap:round;stroke-linejoin:round;stroke-miterlimit:4;stroke-dasharray:none;stroke-dashoffset:0;stroke-opacity:1"
         id="rect3352-2-2"
         width="3.9687519"
         height="7.9375"
         x="0.02165064"
         y="289.04086" />
      <g
         id="g4016"
         transform="matrix(1,0,0,1.1606003,-80.642742,329.5036)">
        <path
           d="m 81.573969,-30.69257 c -0.02942,-0.115067 -0.03983,-0.233376 -0.04811,-0.351476 -0.0067,-0.10499 -0.0097,-0.211027 0.0072,-0.315313 0.0083,-0.05102 0.01365,-0.06198 0.02886,-0.108785 0.01508,-0.03585 0.03611,-0.06821 0.07114,-0.08743 0.141195,-0.07744 0.143518,-0.113173 0.257765,-0.09146 0.09018,0.03538 0.12504,0.120342 0.149059,0.207447 0.03154,0.134656 0.01624,0.270244 -0.0054,0.404833 -0.0088,0.09792 -0.05756,0.18816 -0.06606,0.285671 7.94e-4,0.0049 0.0016,0.0098 0.0024,0.01467 0,0 -0.158726,0.08436 -0.158726,0.08436 v 0 c -0.0013,-0.0064 -0.0024,-0.01278 -0.0036,-0.01916 0.0079,-0.09944 0.06155,-0.189955 0.07099,-0.289677 0.02215,-0.131855 0.03764,-0.264806 0.0063,-0.396844 -0.02215,-0.08029 -0.05342,-0.161992 -0.140103,-0.18905 -0.01093,-0.0012 -0.02183,-0.0036 -0.03281,-0.0035 -0.01146,1.76e-4 -0.04289,0.01184 -0.0341,0.0045 0.03631,-0.03039 0.08036,-0.05013 0.119843,-0.07626 0.0095,-0.0063 -0.02066,0.0099 -0.02984,0.01669 -0.02895,0.02136 -0.02926,0.02946 -0.04784,0.06081 -0.01638,0.04402 -0.02365,0.05838 -0.03279,0.106619 -0.01953,0.103026 -0.01654,0.208675 -0.0097,0.31271 0.0089,0.116171 0.0186,0.233291 0.05373,0.345081 0,0 -0.158207,0.08555 -0.158207,0.08555 z"
           id="path1597-9"
           style="opacity:1;fill:#000000;fill-opacity:1;fill-rule:evenodd;stroke:#000000;stroke-width:0.1;stroke-linecap:round;stroke-linejoin:bevel;stroke-miterlimit:4;stroke-dasharray:none;stroke-dashoffset:0;stroke-opacity:1" />
        <path
           d="m 81.653199,-30.629673 c -0.01214,0.08574 -0.01357,0.172617 -0.0158,0.259057 -0.0037,0.123603 -0.0035,0.24822 0.01992,0.370182 0.0051,0.02655 0.01244,0.05262 0.01868,0.07893 0.04031,0.161668 0.102071,0.316617 0.162311,0.471597 0.03357,0.07484 0.05862,0.16107 0.123066,0.216046 0.0046,0.0013 0.0091,0.0046 0.01389,0.0039 0.0044,-6.09e-4 0.01487,-0.0094 0.01095,-0.0074 -0.04722,0.0247 -0.09167,0.05521 -0.141001,0.07538 -0.0089,0.0036 0.01143,-0.0156 0.01579,-0.02419 0.01887,-0.03701 0.02249,-0.05797 0.03461,-0.09958 0.04703,-0.201216 0.0543,-0.408849 0.06171,-0.614526 0.01005,-0.175135 -0.0042,-0.349592 -0.04242,-0.520513 0,0 0.153895,-0.08248 0.153895,-0.08248 v 0 c 0.03441,0.173741 0.04857,0.350354 0.03798,0.527508 -0.0071,0.205596 -0.01371,0.412584 -0.05383,0.614954 -0.01402,0.05771 -0.01045,0.05179 -0.02948,0.101559 -0.0038,0.0098 -0.0037,0.02285 -0.01222,0.029 -0.06641,0.04795 -0.129397,0.133707 -0.20202,0.09051 -0.06287,-0.06081 -0.08921,-0.147354 -0.121708,-0.226356 -0.05868,-0.156379 -0.121031,-0.311903 -0.162616,-0.473969 -0.0065,-0.02671 -0.01407,-0.05318 -0.0195,-0.08013 -0.0245,-0.122311 -0.02585,-0.24747 -0.02349,-0.37166 0.0011,-0.08619 0.0019,-0.172476 0.0096,-0.258393 0,0 0.16166,-0.0795 0.16166,-0.0795 z"
           id="path1599-0"
           style="opacity:1;fill:#000000;fill-opacity:1;fill-rule:evenodd;stroke:#000000;stroke-width:0.1;stroke-linecap:round;stroke-linejoin:bevel;stroke-miterlimit:4;stroke-dasharray:none;stroke-dashoffset:0;stroke-opacity:1" />
        <path
           d="m 81.575467,-28.512849 c -0.01,-0.117621 -0.0173,-0.235334 -0.02162,-0.353309 -0.0041,-0.162414 -0.0079,-0.324943 -0.0049,-0.487402 0.0076,-0.08683 0.0049,-0.182082 0.04736,-0.260933 0.08031,-0.09788 0.166712,-0.154854 0.248304,-0.07069 0.01056,0.01088 0.0195,0.02319 0.02924,0.03479 0.09319,0.122891 0.146484,0.267593 0.19253,0.413113 0.05709,0.190507 0.07594,0.388988 0.09062,0.586428 0.0036,0.05544 0.0036,0.11116 -0.0024,0.166434 -0.0019,0.01704 -0.0052,0.03373 -0.0064,0.05083 0,0 -0.162097,0.08026 -0.162097,0.08026 v 0 c 0.01127,-0.07255 0.02686,-0.144482 0.01868,-0.218759 -0.0113,-0.196607 -0.02959,-0.394095 -0.08768,-0.583289 -0.04603,-0.142927 -0.0994,-0.285229 -0.194379,-0.403823 -0.02053,-0.02236 -0.02838,-0.03501 -0.05376,-0.04955 -0.0059,-0.0034 -0.01236,-0.006 -0.01902,-0.007 -0.0048,-7.41e-4 -0.01855,0.0045 -0.0145,0.0019 0.224438,-0.147461 0.173337,-0.109624 0.124587,-0.07276 -0.05287,0.0712 -0.04685,0.171423 -0.05738,0.255144 -0.0046,0.162163 -5.29e-4,0.324468 0.0041,0.486597 0.0052,0.116564 0.01212,0.233018 0.02776,0.348722 0,0 -0.159166,0.08333 -0.159166,0.08333 z"
           id="path1605-2"
           style="opacity:1;fill:#000000;fill-opacity:1;fill-rule:evenodd;stroke:#000000;stroke-width:0.1;stroke-linecap:round;stroke-linejoin:bevel;stroke-miterlimit:4;stroke-dasharray:none;stroke-dashoffset:0;stroke-opacity:1" />
        <path
           d="m 81.462966,-30.47462 c -0.07959,0.10176 -0.118901,0.220549 -0.149725,0.344171 -0.03688,0.171384 -0.03734,0.34669 -0.02318,0.520548 0.007,0.0436 0.0096,0.161717 0.05506,0.187943 0.01434,-0.0033 0.0071,-5.03e-4 0.0213,-0.0094 0,0 -0.142592,0.110055 -0.142592,0.110055 v 0 c -0.0213,0.0014 -0.01095,0.0029 -0.03103,-0.0046 -0.05188,-0.04762 -0.04702,-0.140982 -0.05595,-0.204512 -0.01214,-0.175541 -0.01238,-0.352371 0.0217,-0.525796 0.0284,-0.122673 0.06586,-0.243526 0.139642,-0.347441 0,0 0.164777,-0.07101 0.164777,-0.07101 z"
           id="path1607-8"
           style="opacity:1;fill:#000000;fill-opacity:1;fill-rule:evenodd;stroke:#000000;stroke-width:0.1;stroke-linecap:round;stroke-linejoin:bevel;stroke-miterlimit:4;stroke-dasharray:none;stroke-dashoffset:0;stroke-opacity:1" />
        <path
           d="m 82.233166,-30.296022 c -0.0036,0.08729 -0.0011,0.174483 0.0073,0.261412 0.0081,0.0838 0.03446,0.163494 0.07265,0.238082 0.0051,0.0076 0.0094,0.0157 0.01513,0.02276 0.0043,0.0053 0.01871,0.01987 0.02818,0.02029 0.0034,1.49e-4 0.01175,-0.0066 0.0088,-0.0051 -0.151124,0.07977 -0.176074,0.122217 -0.132352,0.05853 0.04605,-0.08957 0.0708,-0.187458 0.0917,-0.285354 0.02058,-0.114993 0.03043,-0.232129 0.02854,-0.348934 -7.94e-4,-0.0224 -0.0024,-0.04685 -0.0087,-0.06784 0,0 0.157014,-0.09084 0.157014,-0.09084 v 0 c 0.0114,0.02378 0.0047,0.05345 0.0085,0.07856 7.94e-4,0.118131 -0.0096,0.236612 -0.02854,0.35317 -0.02,0.09837 -0.04364,0.196177 -0.08523,0.288018 -0.0032,0.0076 -0.0029,0.01811 -0.0097,0.0228 -0.03721,0.02564 -0.134046,0.140079 -0.195876,0.08437 -0.01675,-0.01508 -0.01953,-0.02284 -0.03189,-0.04245 -0.03813,-0.07698 -0.06491,-0.159015 -0.07401,-0.244772 -0.0086,-0.08686 -0.0114,-0.173884 -0.01162,-0.261149 0,0 0.160088,-0.08157 0.160088,-0.08157 z"
           id="path1609-3"
           style="opacity:1;fill:#000000;fill-opacity:1;fill-rule:evenodd;stroke:#000000;stroke-width:0.1;stroke-linecap:round;stroke-linejoin:bevel;stroke-miterlimit:4;stroke-dasharray:none;stroke-dashoffset:0;stroke-opacity:1" />
        <path
           d="m 81.56164,-31.933854 c 0.0075,-0.04467 0.009,-0.08996 0.01746,-0.134474 0.0071,-0.03285 0.01656,-0.06525 0.02596,-0.09753 0.0104,-0.02847 0.02897,-0.05243 0.0457,-0.0773 0.01945,-0.02941 0.04509,-0.05421 0.07097,-0.07792 0.03372,-0.0324 0.06812,-0.06363 0.106339,-0.09067 0.05814,-0.03381 0.116224,-0.06772 0.174421,-0.10143 0.103032,-0.05968 -0.192153,0.113892 -0.0891,0.05091 0.0073,-0.0045 0.01437,-0.0093 0.02175,-0.01356 0.05846,-0.03387 0.117207,-0.06726 0.17581,-0.100894 0.05552,-0.02475 0.112948,-0.0443 0.168148,-0.07004 0.05652,-0.02291 0.112982,-0.04609 0.170299,-0.06693 0.06328,-0.0263 0.130649,-0.03811 0.197406,-0.0515 0.07369,-0.01286 0.148338,-0.02061 0.22162,-0.03574 0.04485,-0.0094 0.08723,-0.02658 0.132702,-0.0333 0.05327,-0.0048 0.106881,-0.0047 0.160329,-0.0051 0.04163,-0.0015 0.07704,-0.0032 0.115274,0.01498 0.02148,0.0081 0.03272,0.02561 0.04732,0.04194 0.02844,0.03188 0.05126,0.06827 0.07745,0.102022 0.03839,0.05192 0.0789,0.10229 0.119819,0.152242 0.03624,0.04479 0.07375,0.08868 0.108998,0.134254 0.02619,0.02904 0.05256,0.05764 0.07144,0.09211 0.0086,0.02082 0.0042,0.01098 0.01299,0.02955 0,0 -0.156647,0.08867 -0.156647,0.08867 v 0 c -0.0088,-0.01894 -0.0047,-0.0094 -0.01228,-0.02876 -0.0181,-0.03376 -0.04481,-0.06092 -0.06919,-0.09015 -0.03474,-0.04569 -0.07196,-0.08955 -0.107807,-0.134372 -0.04069,-0.05037 -0.08175,-0.100504 -0.120906,-0.152078 -0.0259,-0.03345 -0.04892,-0.06938 -0.07825,-0.09999 -0.0132,-0.01453 -0.0236,-0.02878 -0.04299,-0.03565 -0.03508,-0.01396 -0.07271,-0.009 -0.109747,-0.0096 -0.05308,3.18e-4 -0.10651,3.1e-5 -0.159115,0.008 -0.04428,0.0091 -0.08673,0.02512 -0.131379,0.03263 -0.07344,0.01294 -0.147544,0.02186 -0.220884,0.03538 -0.06679,0.01338 -0.133342,0.02818 -0.196522,0.05441 -0.05673,0.02182 -0.113602,0.0433 -0.169275,0.06773 -0.05558,0.02493 -0.113761,0.04355 -0.167945,0.07145 0.04328,-0.0253 0.08632,-0.05102 0.129842,-0.07591 0.01474,-0.0084 -0.02853,0.01842 -0.0432,0.02697 -0.05782,0.03369 -0.115707,0.06724 -0.173609,0.100783 -0.0071,0.0041 -0.02838,0.01626 -0.02133,0.01212 0.04356,-0.02552 0.08723,-0.05087 0.130839,-0.0763 -0.03891,0.02531 -0.07443,0.05474 -0.106344,0.08852 -0.02677,0.02137 -0.05051,0.04656 -0.07259,0.07271 -0.01482,0.02527 -0.03435,0.04717 -0.04739,0.0735 -0.0122,0.0306 -0.01773,0.06425 -0.02742,0.09571 -0.0098,0.04393 -0.01265,0.08848 -0.01736,0.133198 0,0 -0.161661,0.0795 -0.161661,0.0795 z"
           id="path1647-8"
           style="opacity:1;fill:#000000;fill-opacity:1;fill-rule:evenodd;stroke:#000000;stroke-width:0.1;stroke-linecap:round;stroke-linejoin:bevel;stroke-miterlimit:4;stroke-dasharray:none;stroke-dashoffset:0;stroke-opacity:1" />
        <path
           d="m 81.926392,-31.993149 c 0.06656,0.01033 0.13312,0.01961 0.200295,0.0251 0.06464,0.0048 0.129484,0.0054 0.19427,0.0058 0.06628,7e-5 0.132551,1.23e-4 0.198826,1.17e-4 0.0819,-0.0065 0.163889,-0.01098 0.246007,-0.01351 0.08952,-0.0021 0.179076,-0.0027 0.268619,-0.0031 0.06401,0.0016 0.127449,-0.0076 0.190351,-0.01823 0.05752,-0.0095 0.114507,-0.02254 0.17094,-0.03717 0.04548,-0.01299 0.09533,-0.01753 0.135514,-0.04414 -0.148426,0.08554 -0.196646,0.05667 -0.144642,0.08663 0,0 0.161858,-0.08169 0.161858,-0.08169 v 0 c 0.01601,0.07197 0.0057,0.0092 -0.157384,0.108112 -0.04347,0.01946 -0.09089,0.02703 -0.136666,0.03921 -0.05693,0.014 -0.114106,0.02744 -0.172108,0.0362 -0.06312,0.0103 -0.126921,0.01675 -0.190985,0.01512 -0.08922,6.2e-5 -0.178461,2.18e-4 -0.267649,0.0031 -0.08256,0.0031 -0.164886,0.0091 -0.247346,0.01377 -0.06644,1.22e-4 -0.132884,5.03e-4 -0.199327,6.8e-5 -0.06492,-5.56e-4 -0.129905,-0.0014 -0.194614,-0.0072 -0.06799,-0.0062 -0.135392,-0.01649 -0.203192,-0.02427 0,0 0.147233,-0.103811 0.147233,-0.103811 z"
           id="path1649-0"
           style="opacity:1;fill:#000000;fill-opacity:1;fill-rule:evenodd;stroke:#000000;stroke-width:0.1;stroke-linecap:round;stroke-linejoin:bevel;stroke-miterlimit:4;stroke-dasharray:none;stroke-dashoffset:0;stroke-opacity:1" />
        <path
           d="m 82.696298,-31.720191 c -0.0019,0.08314 -0.0019,0.166326 -0.0019,0.249489 -2.06e-4,0.09901 -1.4e-4,0.198028 -3.1e-5,0.297042 -7.94e-4,0.07995 0.0045,0.160028 -0.0053,0.239551 -0.0034,0.03271 -0.01429,0.06365 -0.02477,0.09456 0,0 -0.162521,0.07612 -0.162521,0.07612 v 0 c 0.01064,-0.03034 0.02389,-0.06003 0.02788,-0.09224 0.01252,-0.0788 0.0064,-0.158645 0.008,-0.238154 1.09e-4,-0.099 1.75e-4,-0.198007 -3.2e-5,-0.29701 6.4e-5,-0.08256 1.46e-4,-0.165137 -0.0019,-0.247676 0,0 0.160309,-0.08168 0.160309,-0.08168 z"
           id="path1651-4"
           style="opacity:1;fill:#000000;fill-opacity:1;fill-rule:evenodd;stroke:#000000;stroke-width:0.1;stroke-linecap:round;stroke-linejoin:bevel;stroke-miterlimit:4;stroke-dasharray:none;stroke-dashoffset:0;stroke-opacity:1" />
        <path
           d="m 82.51796,-32.692254 c -0.0073,-0.05878 -0.01011,-0.117679 -0.0036,-0.176598 0.0182,-0.119206 0.06332,-0.100281 0.195826,-0.17102 0.03736,0.02791 0.04047,0.08158 0.04868,0.124013 0.01249,0.05929 0.0114,0.120351 0.02045,0.180014 0.0067,0.027 0.02119,0.02814 0.04646,0.02628 0,0 -0.145629,0.105072 -0.145629,0.105072 v 0 c -0.03207,-0.0039 -0.05126,-0.01473 -0.05945,-0.04758 -0.0086,-0.05964 -0.0054,-0.120839 -0.01857,-0.180046 -0.0035,-0.0173 -0.01267,-0.09879 -0.03726,-0.100062 0.04952,-0.02881 0.09922,-0.05731 0.148566,-0.08642 0.0027,-0.0016 -0.0059,0.0021 -0.0085,0.0038 -0.02217,0.01453 -0.02635,0.04313 -0.03057,0.06705 -0.0088,0.05707 -0.0067,0.114527 0.0029,0.17146 0,0 -0.159338,0.08406 -0.159338,0.08406 z"
           id="path1653-0"
           style="opacity:1;fill:#000000;fill-opacity:1;fill-rule:evenodd;stroke:#000000;stroke-width:0.1;stroke-linecap:round;stroke-linejoin:bevel;stroke-miterlimit:4;stroke-dasharray:none;stroke-dashoffset:0;stroke-opacity:1" />
        <path
           d="m 83.032083,-30.661434 c 0.0013,-0.08758 7.94e-4,-0.174952 0.0084,-0.262266 0.01281,-0.102174 0.04459,-0.186073 0.106005,-0.268311 0.02191,-0.02469 0.04596,-0.0484 0.07495,-0.06481 0.108286,-0.0613 0.134167,-0.09304 0.226118,-0.108594 0.05933,-0.0032 0.08559,0.04206 0.103238,0.09157 0.02548,0.08988 0.0016,0.179311 -0.02233,0.266545 -0.02585,0.08627 -0.05756,0.170614 -0.09006,0.254547 -0.01474,0.03508 -0.0076,0.01817 -0.02141,0.05073 0,0 -0.162356,0.07461 -0.162356,0.07461 v 0 c 0.01423,-0.03284 0.0067,-0.01593 0.02252,-0.05069 0.03365,-0.08363 0.06674,-0.167555 0.09301,-0.253868 0.02336,-0.08336 0.04857,-0.169305 0.02469,-0.255614 -0.01683,-0.04747 -0.03447,-0.07772 -0.09005,-0.0698 -0.06965,0.01609 -0.12527,0.06236 0.08285,-0.06386 0.0083,-0.005 -0.01709,0.009 -0.02516,0.01432 -0.02569,0.01693 -0.03062,0.02363 -0.05349,0.04528 -0.06482,0.07831 -0.09733,0.158838 -0.111619,0.25973 -0.0081,0.08613 -0.0079,0.172345 -0.005,0.258778 0,0 -0.160308,0.08168 -0.160308,0.08168 z"
           id="path1657-9"
           style="opacity:1;fill:#000000;fill-opacity:1;fill-rule:evenodd;stroke:#000000;stroke-width:0.1;stroke-linecap:round;stroke-linejoin:bevel;stroke-miterlimit:4;stroke-dasharray:none;stroke-dashoffset:0;stroke-opacity:1" />
        <path
           d="m 83.076636,-30.529566 c -0.0021,0.09583 -0.0021,0.191702 -0.0027,0.287554 -0.0013,0.135971 -0.0042,0.271817 0.01397,0.406832 0.01455,0.07902 0.02887,0.129277 0.08792,0.184359 0.03258,0.02721 0.0687,0.04219 0.110064,0.049 0.05816,0.0083 0.112311,-0.01541 0.164031,-0.03886 0.09404,-0.05675 -0.0425,0.02633 -0.09201,0.04773 -0.01048,0.0045 0.01717,-0.01517 0.02445,-0.02395 0.02659,-0.03201 0.03651,-0.06841 0.04711,-0.107673 0.02548,-0.117445 0.01156,-0.236604 -0.0016,-0.354489 -0.015,-0.107293 -0.02837,-0.215281 -0.05752,-0.319838 -0.01971,-0.04634 -0.035,-0.09649 -0.06135,-0.13974 0,0 0.156358,-0.08993 0.156358,-0.08993 v 0 c 0.02379,0.04656 0.04135,0.09666 0.06041,0.145206 0.0282,0.106049 0.04009,0.215403 0.05573,0.323813 0.01384,0.119198 0.02946,0.239385 0.007,0.358734 -0.009,0.04062 -0.01762,0.08088 -0.04222,0.115623 -0.05501,0.07769 -0.154805,0.107879 -0.235373,0.154548 -0.05489,0.02306 -0.111763,0.04336 -0.172093,0.03147 -0.04339,-0.0096 -0.08165,-0.02816 -0.115102,-0.058 -0.05929,-0.05868 -0.07712,-0.114656 -0.09029,-0.19676 -0.0168,-0.135894 -0.01482,-0.272393 -0.01439,-0.409121 -5.29e-4,-0.09494 -5.29e-4,-0.189898 -0.0027,-0.284819 0,0 0.160309,-0.08168 0.160309,-0.08168 z"
           id="path1659-1"
           style="opacity:1;fill:#000000;fill-opacity:1;fill-rule:evenodd;stroke:#000000;stroke-width:0.1;stroke-linecap:round;stroke-linejoin:bevel;stroke-miterlimit:4;stroke-dasharray:none;stroke-dashoffset:0;stroke-opacity:1" />
        <path
           d="m 83.126026,-29.483701 c -0.0028,0.113209 -0.0027,0.226468 -0.0026,0.339704 2.65e-4,0.09154 0.0013,0.183069 0.0019,0.274605 0.0051,0.03587 -0.01241,0.09371 0.01257,0.123556 0.0024,0.0016 0.0043,0.004 0.007,0.0049 0.0036,0.0012 0.01143,-0.0095 0.0081,-0.0078 -0.370988,0.197475 -0.165238,0.124065 -0.142293,0.0748 0.0069,-0.01946 -0.0013,-0.0329 -0.0095,-0.05072 -0.03379,-0.08645 -0.04323,-0.180276 -0.05257,-0.271925 -0.0117,-0.108078 -0.0091,-0.216916 0.02037,-0.321806 0.04373,-0.104268 0.159853,-0.165722 0.269647,-0.180165 0.04836,-0.0042 0.09794,-0.0031 0.142365,0.01793 0.03844,0.01621 0.04976,0.048 0.05558,0.08651 0.01206,0.07435 0.01397,0.149762 0.01617,0.224892 0.0024,0.106597 0.0021,0.21323 0.0021,0.319848 -0.0019,0.09212 6e-6,0.184024 0.01527,0.274989 0.0039,0.01759 0.0039,0.02296 0.0108,0.03807 0.0051,0.01112 0.0087,0.01298 0.0094,0.01171 0.0013,-0.0023 0.0019,-0.0091 -5.29e-4,-0.0079 -0.0518,0.02655 -0.101303,0.05736 -0.151955,0.08605 0.0046,-0.0078 0.0026,-0.0034 0.0053,-0.01342 0,0 0.162417,-0.07931 0.162417,-0.07931 v 0 c -0.0013,0.01316 -5.29e-4,0.0068 -0.0024,0.01905 -0.127397,0.07805 -0.166772,0.157296 -0.190336,0.02898 -0.01416,-0.09239 -0.01585,-0.185494 -0.01386,-0.278865 -2.64e-4,-0.106284 -2.01e-4,-0.212586 -0.0029,-0.318843 -0.0024,-0.07407 -0.0048,-0.148511 -0.01818,-0.221601 -0.0046,-0.03374 -0.0123,-0.05762 -0.0465,-0.07066 -0.04327,-0.01675 -0.0904,-0.0161 -0.135874,-0.0099 -0.06733,0.01409 -0.142819,0.066 0.08711,-0.06614 0.0069,-0.004 -0.01336,0.0087 -0.01918,0.01407 -0.01929,0.01784 -0.02122,0.02566 -0.03466,0.04903 -0.03373,0.102484 -0.03781,0.209805 -0.02593,0.31675 0.0094,0.08907 0.01871,0.180834 0.05457,0.263844 0.01027,0.02019 0.02191,0.03848 0.01622,0.06174 -0.01085,0.07767 -0.132673,0.157538 -0.191074,0.09791 -0.02743,-0.03923 -0.01312,-0.08989 -0.0158,-0.134929 5.29e-4,-0.09214 0.0016,-0.184275 0.0019,-0.276415 1.06e-4,-0.112367 2.41e-4,-0.224759 -0.0026,-0.337099 0,0 0.159869,-0.08146 0.159869,-0.08146 z"
           id="path1661-9"
           style="opacity:1;fill:#000000;fill-opacity:1;fill-rule:evenodd;stroke:#000000;stroke-width:0.1;stroke-linecap:round;stroke-linejoin:bevel;stroke-miterlimit:4;stroke-dasharray:none;stroke-dashoffset:0;stroke-opacity:1" />
        <path
           d="m 83.632243,-30.424438 c 0.0767,0.07247 0.131529,0.162141 0.182528,0.253481 0.0598,0.107707 0.09808,0.223475 0.122671,0.343633 0.0084,0.03236 0.0068,0.107171 0.04259,0.12563 0.03028,-0.05622 0.0021,-0.0018 -0.149423,0.07823 -0.0021,0.0011 0.0037,-0.0034 0.0048,-0.0056 0.0058,-0.01169 0.0049,-0.02634 0.0048,-0.03884 -0.0021,-0.0244 -0.01154,-0.0463 -0.02109,-0.06848 0,0 0.1553,-0.08751 0.1553,-0.08751 v 0 c 0.0109,0.02374 0.02146,0.04725 0.02545,0.07336 0.0084,0.07824 -0.03992,0.214118 -0.172681,0.14526 -0.03745,-0.0357 -0.03761,-0.09141 -0.04485,-0.139284 -0.02159,-0.119161 -0.05854,-0.233629 -0.118053,-0.339763 -0.0507,-0.08936 -0.104927,-0.178075 -0.184464,-0.245119 0,0 0.152424,-0.09502 0.152424,-0.09502 z"
           id="path1663-6"
           style="opacity:1;fill:#000000;fill-opacity:1;fill-rule:evenodd;stroke:#000000;stroke-width:0.1;stroke-linecap:round;stroke-linejoin:bevel;stroke-miterlimit:4;stroke-dasharray:none;stroke-dashoffset:0;stroke-opacity:1" />
        <path
           d="m 83.022725,-30.346385 c -0.03928,0.08882 -0.07113,0.180499 -0.104532,0.271599 -0.03533,0.09709 -0.0631,0.196416 -0.08039,0.29825 -5.29e-4,0.03181 -0.0172,0.07284 0.02397,0.07914 0.0056,4.23e-4 0.01117,8.2e-4 0.01672,0.0012 0,0 -0.146746,0.103629 -0.146746,0.103629 v 0 c -0.0063,-0.0012 -0.01265,-0.0024 -0.01897,-0.0036 -0.04652,-0.02109 -0.03834,-0.05802 -0.03418,-0.102727 0.01839,-0.103038 0.04641,-0.203717 0.08164,-0.302305 0.03278,-0.0901 0.06401,-0.180778 0.0989,-0.270061 0,0 0.163573,-0.07517 0.163573,-0.07517 z"
           id="path1665-2"
           style="opacity:1;fill:#000000;fill-opacity:1;fill-rule:evenodd;stroke:#000000;stroke-width:0.1;stroke-linecap:round;stroke-linejoin:bevel;stroke-miterlimit:4;stroke-dasharray:none;stroke-dashoffset:0;stroke-opacity:1" />
      </g>
    </g>
  </g>
</svg>
