<?xml version="1.0" encoding="UTF-8" standalone="no"?>
<svg
   xmlns:dc="http://purl.org/dc/elements/1.1/"
   xmlns:cc="http://creativecommons.org/ns#"
   xmlns:rdf="http://www.w3.org/1999/02/22-rdf-syntax-ns#"
   xmlns:svg="http://www.w3.org/2000/svg"
   xmlns="http://www.w3.org/2000/svg"
   id="svg5594"
   version="1.1"
   viewBox="0 0 3.96875 7.9375"
   height="7.9375mm"
   width="3.96875mm">
  <defs
     id="defs5588" />
  <metadata
     id="metadata5591">
    <rdf:RDF>
      <cc:Work
         rdf:about="">
        <dc:format>image/svg+xml</dc:format>
        <dc:type
           rdf:resource="http://purl.org/dc/dcmitype/StillImage" />
        <dc:title></dc:title>
      </cc:Work>
    </rdf:RDF>
  </metadata>
  <g
     transform="translate(-0.025,-289.03751)"
     id="layer1">
    <g
       id="g6197">
      <rect
         style="opacity:1;fill:none;fill-opacity:1;fill-rule:evenodd;stroke:none;stroke-width:0.05;stroke-linecap:round;stroke-linejoin:round;stroke-miterlimit:4;stroke-dasharray:none;stroke-dashoffset:0;stroke-opacity:1"
         id="rect3389"
         width="3.96875"
         height="7.9375"
         x="0.025"
         y="289.03751" />
      <g
         id="g3557"
         transform="matrix(1.0406793,0,0,1.0406793,-120.37895,310.56282)">
        <path
           d="m 117.83831,-15.017826 c 0.002,-0.09721 0.002,-0.19446 0.002,-0.291689 -9e-5,-0.09913 -5.3e-4,-0.198267 -7.9e-4,-0.297401 -1.5e-4,-0.08134 -0.003,-0.162576 0.006,-0.243539 0.0122,-0.07706 0.0344,-0.152022 0.0599,-0.225581 0.0162,-0.04972 0.0446,-0.09249 0.0778,-0.132278 0.0672,-0.06874 0.15535,-0.126308 0.25156,-0.138762 0.0334,-0.0029 0.0669,-0.0022 0.10036,-0.0019 0.0337,0.0028 0.0547,0.01952 0.0754,0.04468 0.0304,0.04298 0.0401,0.09545 0.0517,0.145723 0.0249,0.107916 0.0251,0.217774 0.016,0.327446 -0.0149,0.134006 -0.0493,0.264864 -0.0804,0.395784 -0.0169,0.07464 -0.0288,0.150283 -0.0419,0.225658 -0.006,0.03773 -0.008,0.07582 -0.0186,0.112665 -0.01,0.03082 -0.0302,0.05643 -0.0432,0.08586 -0.011,0.02115 -0.0161,0.04677 -0.0256,0.06741 0,0 -0.16196,0.08185 -0.16196,0.08185 v 0 c -0.003,-0.01538 0.0193,-0.05726 0.0243,-0.07376 0.0111,-0.03062 0.03,-0.05581 0.0435,-0.08514 0.015,-0.03506 0.0141,-0.07358 0.021,-0.110632 0.0142,-0.0763 0.028,-0.152684 0.0451,-0.228379 0.032,-0.130214 0.0672,-0.260435 0.0827,-0.393901 0.009,-0.110118 0.008,-0.212509 -0.017,-0.320689 -0.0116,-0.04723 -0.021,-0.09682 -0.0499,-0.137117 -0.0184,-0.02115 -0.0377,-0.03206 -0.0667,-0.03183 -0.0328,-1.18e-4 -0.0659,-6.88e-4 -0.0984,0.0045 -0.0134,0.0029 -0.0191,0.0036 -0.0319,0.0087 -0.005,0.0021 -0.0205,0.01031 -0.0156,0.0073 0.25217,-0.152012 0.15113,-0.09715 0.10439,-0.05513 -0.0337,0.03797 -0.0643,0.07832 -0.0815,0.126762 -0.0264,0.07245 -0.0495,0.146182 -0.0624,0.222391 -0.0102,0.08035 -0.007,0.161069 -0.007,0.241916 -1.5e-4,0.09938 -5.3e-4,0.198756 -8e-4,0.298134 9e-5,0.09652 -1e-5,0.193061 0.002,0.289563 0,0 -0.15987,0.08146 -0.15987,0.08146 z"
           id="path1139-9"
           style="opacity:1;fill:#000000;fill-opacity:1;fill-rule:evenodd;stroke:#000000;stroke-width:0.1;stroke-linecap:round;stroke-linejoin:bevel;stroke-miterlimit:4;stroke-dasharray:none;stroke-dashoffset:0;stroke-opacity:1" />
        <path
           d="m 118.66531,-16.279598 c 0.0396,0.05736 0.0773,0.115918 0.11366,0.175396 0.0512,0.09361 0.0921,0.192247 0.13066,0.291584 0.0381,0.09836 0.0694,0.199276 0.0963,0.301243 0.0215,0.09122 0.0353,0.183837 0.0437,0.277104 0.004,0.05245 0.006,0.105026 0.007,0.157611 0,0 -0.1593,0.08138 -0.1593,0.08138 v 0 c -9e-5,-0.05251 -7.9e-4,-0.105049 -0.004,-0.157456 -0.007,-0.09257 -0.0202,-0.184387 -0.0415,-0.274882 -0.0262,-0.101522 -0.0567,-0.202082 -0.0945,-0.299916 -0.0381,-0.09834 -0.079,-0.19581 -0.13037,-0.288071 -0.0366,-0.05917 -0.0748,-0.117274 -0.11659,-0.17293 0,0 0.1554,-0.09106 0.1554,-0.09106 z"
           id="path1141-6"
           style="opacity:1;fill:#000000;fill-opacity:1;fill-rule:evenodd;stroke:#000000;stroke-width:0.1;stroke-linecap:round;stroke-linejoin:bevel;stroke-miterlimit:4;stroke-dasharray:none;stroke-dashoffset:0;stroke-opacity:1" />
        <path
           d="m 119.03719,-14.995657 c -0.0186,0.06269 -0.0413,0.124076 -0.0637,0.185492 -0.0233,0.05324 -0.0378,0.108611 -0.045,0.166101 -0.006,0.05399 -0.008,0.107551 0.008,0.159899 0.0102,0.03612 0.0316,0.06107 0.0653,0.07653 0.0321,0.0072 0.0645,0.01988 0.0977,0.01931 0.0542,-0.0325 0.12355,-0.06422 -0.13156,0.07474 -0.003,0.0015 0.004,-0.0044 0.005,-0.0072 0.004,-0.01045 0.005,-0.02767 0.006,-0.03795 -0.001,-0.07772 -0.0187,-0.154126 -0.0301,-0.230766 -0.0134,-0.08979 -0.0314,-0.178676 -0.054,-0.266568 -0.0141,-0.04564 -0.0202,-0.093 -0.0297,-0.139625 -2.2e-4,-5.02e-4 -5.3e-4,-10e-4 -5.3e-4,-0.0015 0,0 0.15908,-0.08743 0.15908,-0.08743 v 0 c 5.3e-4,0.0014 7.9e-4,0.0029 0.001,0.0043 0.006,0.04718 0.0131,0.09412 0.0256,0.140112 0.0217,0.0887 0.0404,0.178022 0.0545,0.2683 0.0115,0.07759 0.029,0.154499 0.0342,0.23287 -1.4e-4,0.0039 -0.002,0.05378 -0.004,0.0557 -0.0527,0.03613 -0.11151,0.09864 -0.18168,0.09995 -0.0345,-0.0049 -0.0692,-0.01286 -0.10168,-0.02556 -0.0358,-0.02035 -0.0604,-0.04895 -0.0716,-0.08937 -0.0169,-0.05459 -0.0172,-0.10999 -0.0109,-0.166584 0.006,-0.05886 0.0187,-0.116043 0.0437,-0.170108 0.0218,-0.06065 0.0455,-0.1207 0.0625,-0.182928 0,0 0.16221,-0.0777 0.16221,-0.0777 z"
           id="path1143-9"
           style="opacity:1;fill:#000000;fill-opacity:1;fill-rule:evenodd;stroke:#000000;stroke-width:0.1;stroke-linecap:round;stroke-linejoin:bevel;stroke-miterlimit:4;stroke-dasharray:none;stroke-dashoffset:0;stroke-opacity:1" />
        <path
           d="m 117.87542,-16.203109 c -0.0465,0.05783 -0.0926,0.116062 -0.13459,0.177314 -0.0507,0.07707 -0.0823,0.163238 -0.10335,0.252496 -0.0169,0.08249 -0.0195,0.166816 -0.021,0.250714 -5.3e-4,0.06654 -1.8e-4,0.133083 5.3e-4,0.19962 2.6e-4,0.0461 5.3e-4,0.0922 8e-4,0.138299 0,0 -0.15994,0.08151 -0.15994,0.08151 v 0 c 1.3e-4,-0.04626 2.6e-4,-0.09252 2.1e-4,-0.138784 1.1e-4,-0.06684 -2.6e-4,-0.133672 2.7e-4,-0.200504 0.002,-0.0851 0.004,-0.17061 0.0204,-0.254449 0.0198,-0.09097 0.0506,-0.178803 0.10023,-0.258189 0.0403,-0.06159 0.0868,-0.118599 0.13066,-0.177653 0,0 0.16563,-0.07038 0.16563,-0.07038 z"
           id="path1145-3"
           style="opacity:1;fill:#000000;fill-opacity:1;fill-rule:evenodd;stroke:#000000;stroke-width:0.1;stroke-linecap:round;stroke-linejoin:bevel;stroke-miterlimit:4;stroke-dasharray:none;stroke-dashoffset:0;stroke-opacity:1" />
        <path
           d="m 118.03653,-16.287065 c 7.9e-4,-0.08658 0.002,-0.173021 0.007,-0.2595 0.005,-0.09722 0.0209,-0.193104 0.0424,-0.287932 0.014,-0.05012 0.0293,-0.103352 0.0676,-0.140449 0.0763,-0.0468 0.15618,-0.126012 0.24964,-0.09371 0.0456,0.02197 0.0498,0.06667 0.0543,0.112146 0.005,0.1063 0.003,0.212775 0.002,0.319146 7.9e-4,0.105694 -0.0112,0.210112 -0.0294,0.313984 -0.009,0.04012 -0.004,0.02092 -0.0139,0.05763 0,0 -0.16113,0.0768 -0.16113,0.0768 v 0 c 0.0104,-0.03641 0.005,-0.01745 0.0157,-0.05689 0.0204,-0.103208 0.035,-0.206943 0.0337,-0.31253 5e-5,-0.105241 7.9e-4,-0.210625 -0.005,-0.315735 -0.004,-0.03744 -0.004,-0.07819 -0.0447,-0.09285 -0.0802,-0.01626 -0.18929,0.07624 0.0656,-0.07474 -0.0451,0.02771 -0.0599,0.08303 -0.0754,0.130665 -0.0229,0.09393 -0.0395,0.189024 -0.045,0.285697 -0.004,0.08551 -0.006,0.17099 -0.003,0.256599 0,0 -0.16031,0.08168 -0.16031,0.08168 z"
           id="path1147-3"
           style="opacity:1;fill:#000000;fill-opacity:1;fill-rule:evenodd;stroke:#000000;stroke-width:0.1;stroke-linecap:round;stroke-linejoin:bevel;stroke-miterlimit:4;stroke-dasharray:none;stroke-dashoffset:0;stroke-opacity:1" />
        <path
           d="m 117.96402,-14.91585 c -0.0134,0.0922 -0.0269,0.18434 -0.0392,0.276719 -0.0156,0.112028 -0.0221,0.224964 -0.0256,0.337929 0.002,0.09729 -0.007,0.193794 -0.021,0.289913 -0.0126,0.07984 -0.0288,0.158967 -0.0385,0.239244 -0.002,0.03361 -0.01,0.07523 0.009,0.105541 0.0138,0.01956 0.0247,0.04107 0.036,0.06223 0.009,0.01239 0.0301,0.02265 0.0396,0.0061 -0.28885,0.161635 -0.15894,0.115717 -0.1273,0.06092 0.0174,-0.03022 0.0263,-0.06329 0.0363,-0.09646 0.0318,-0.11556 0.0488,-0.234446 0.0608,-0.353483 0.01,-0.1133 0.0111,-0.227087 0.0121,-0.34074 2.6e-4,-0.09835 -1e-4,-0.196708 -5.3e-4,-0.295061 3e-5,-0.06614 -0.005,-0.132403 0.01,-0.197357 0,0 0.16188,-0.07709 0.16188,-0.07709 v 0 c -0.0204,0.06296 -0.0133,0.129063 -0.0144,0.194341 -2e-4,0.09859 0,0.197187 -5.3e-4,0.295779 -8e-4,0.114314 -0.003,0.228728 -0.0124,0.342689 -0.0115,0.119405 -0.0284,0.238457 -0.057,0.355089 -0.0109,0.04071 -0.0212,0.07959 -0.041,0.116908 -0.002,0.0044 -0.003,0.01061 -0.007,0.01331 -0.0526,0.0336 -0.10784,0.06294 -0.16176,0.09442 -0.0224,-2.37e-4 -0.0429,-0.01053 -0.0552,-0.02976 -0.0107,-0.02103 -0.0218,-0.04201 -0.0352,-0.06141 -0.0205,-0.03505 -0.0174,-0.07814 -0.013,-0.117188 0.0105,-0.0807 0.0268,-0.160288 0.04,-0.24054 0.0154,-0.09546 0.0238,-0.191469 0.0225,-0.288247 0.004,-0.113577 0.0104,-0.227123 0.0255,-0.339849 0.012,-0.09139 0.0252,-0.182759 0.0341,-0.274447 0,0 0.16166,-0.0795 0.16166,-0.0795 z"
           id="path1161-8"
           style="opacity:1;fill:#000000;fill-opacity:1;fill-rule:evenodd;stroke:#000000;stroke-width:0.1;stroke-linecap:round;stroke-linejoin:bevel;stroke-miterlimit:4;stroke-dasharray:none;stroke-dashoffset:0;stroke-opacity:1" />
        <path
           d="m 118.21157,-14.810874 c -0.0117,0.108312 -0.0135,0.217418 -0.0156,0.326248 -5.3e-4,0.13361 -0.002,0.267078 -0.0112,0.400398 -0.009,0.109027 -0.023,0.217489 -0.0317,0.326531 -0.003,0.04892 -0.008,0.09791 -0.002,0.146699 0.002,0.02488 0.009,0.04763 0.0351,0.05483 0.0192,0.0064 0.0353,-0.0045 0.0537,-0.009 0.0502,-0.01849 0.19303,-0.108064 -0.13518,0.07866 -0.002,0.0012 0.004,-0.0031 0.006,-0.0044 0.0118,-0.0079 8e-4,0.0011 0.0111,-0.0078 0.0211,-0.02298 0.0358,-0.05116 0.0489,-0.07925 0.0296,-0.07362 0.0355,-0.14558 0.0298,-0.223935 -0.006,-0.09359 -0.0342,-0.182826 -0.0588,-0.272543 -0.026,-0.08165 -0.0411,-0.165804 -0.0489,-0.250959 -0.006,-0.07385 -0.005,-0.147956 -0.006,-0.221971 8e-5,-0.06428 2.2e-4,-0.128566 -10e-6,-0.192849 10e-6,-0.02867 -0.001,-0.05728 10e-4,-0.08588 0,0 0.16106,-0.07975 0.16106,-0.07975 v 0 c -0.004,0.02802 -0.002,0.05632 -0.003,0.08464 -5.2e-4,0.06441 -7.9e-4,0.128824 -7.9e-4,0.193237 -1.9e-4,0.07363 -1.5e-4,0.147345 0.005,0.220855 0.007,0.08429 0.0206,0.167796 0.0466,0.248576 0.0248,0.09073 0.0539,0.180826 0.0604,0.275376 0.007,0.08032 0.004,0.153801 -0.0239,0.230467 -0.0111,0.02962 -0.0258,0.05816 -0.0443,0.08382 -0.005,0.007 -0.008,0.01121 -0.0153,0.01555 -0.10829,0.06324 -0.10612,0.08104 -0.17644,0.0982 -0.0207,0.0062 -0.0401,0.0089 -0.0605,-9e-4 -0.0277,-0.01493 -0.0412,-0.03995 -0.0438,-0.07127 -0.007,-0.05054 -0.002,-0.100919 0.003,-0.151592 0.0106,-0.109312 0.025,-0.218211 0.0345,-0.327617 0.0104,-0.132992 0.0115,-0.266202 0.0117,-0.399549 0.002,-0.108368 0.004,-0.216757 0.01,-0.324984 0,0 0.16066,-0.07985 0.16066,-0.07985 z"
           id="path1163-0"
           style="opacity:1;fill:#000000;fill-opacity:1;fill-rule:evenodd;stroke:#000000;stroke-width:0.1;stroke-linecap:round;stroke-linejoin:bevel;stroke-miterlimit:4;stroke-dasharray:none;stroke-dashoffset:0;stroke-opacity:1" />
        <path
           d="m 118.26021,-16.039212 c -0.029,0.09444 -0.0567,0.189217 -0.0873,0.283153 -0.0508,0.139092 -0.097,0.279509 -0.12829,0.424333 -0.0169,0.08145 -0.0335,0.16312 -0.0365,0.246408 0,0 -0.15902,0.08006 -0.15902,0.08006 v 0 c 0.005,-0.08494 0.0221,-0.168205 0.04,-0.251282 0.0307,-0.145227 0.0762,-0.286149 0.12682,-0.425621 0.0299,-0.09248 0.0569,-0.185807 0.0817,-0.279789 0,0 0.16269,-0.07727 0.16269,-0.07727 z"
           id="path1165-5"
           style="opacity:1;fill:#000000;fill-opacity:1;fill-rule:evenodd;stroke:#000000;stroke-width:0.1;stroke-linecap:round;stroke-linejoin:bevel;stroke-miterlimit:4;stroke-dasharray:none;stroke-dashoffset:0;stroke-opacity:1" />
      </g>
      <g
         id="g3547"
         transform="translate(-120.44305,309.93431)">
        <path
           d="m 121.27778,-15.313449 c 0.002,-0.09189 0.002,-0.183832 0.002,-0.275747 -9e-5,-0.08944 -2.6e-4,-0.178881 -5.3e-4,-0.268321 -1.8e-4,-0.0619 0.0106,-0.122469 0.0264,-0.182051 0.0322,-0.101148 0.10849,-0.107842 0.21094,-0.161668 0.0397,0.02004 0.0498,0.07139 0.064,0.10992 0.0204,0.06201 0.0394,0.124575 0.0545,0.188101 0.0157,0.05846 0.0139,0.117903 0.01,0.177589 -0.007,0.05054 -0.0131,0.101425 -0.025,0.151105 -0.009,0.02758 -0.009,0.05741 -0.0197,0.08427 -0.0449,0.06034 -0.1195,0.09867 -0.19037,0.120799 -0.002,6.61e-4 -0.005,0.0013 -0.007,0.002 0,0 0.14272,-0.111373 0.14272,-0.111373 v 0 c 0.002,-9e-4 0.004,-0.0018 0.006,-0.0027 0.0657,-0.03632 -0.22067,0.141158 -0.11687,0.06409 0.0201,-0.01983 0.0124,-0.05464 0.0231,-0.0796 0.0132,-0.04885 0.0196,-0.09888 0.0277,-0.148803 0.004,-0.05807 0.007,-0.115827 -0.007,-0.17294 -0.0143,-0.06292 -0.0331,-0.124733 -0.0536,-0.185895 -0.007,-0.0176 -0.0247,-0.08107 -0.0445,-0.08837 -0.003,-9.79e-4 -0.006,-10e-5 -0.008,-1.51e-4 0.0487,-0.02834 0.098,-0.05579 0.14622,-0.085 0.004,-0.0022 -0.009,0.0016 -0.0122,0.0038 -0.0193,0.01165 -0.0297,0.03923 -0.0388,0.05801 -0.0166,0.05839 -0.0291,0.117532 -0.0301,0.178562 -2.6e-4,0.08964 -5.3e-4,0.179289 -5.3e-4,0.268934 -1.5e-4,0.0913 -5.2e-4,0.18262 0.002,0.273894 0,0 -0.16008,0.08157 -0.16008,0.08157 z"
           id="path1167-6"
           style="opacity:1;fill:#000000;fill-opacity:1;fill-rule:evenodd;stroke:#000000;stroke-width:0.1;stroke-linecap:round;stroke-linejoin:bevel;stroke-miterlimit:4;stroke-dasharray:none;stroke-dashoffset:0;stroke-opacity:1" />
        <path
           d="m 121.19499,-14.335763 c 0.002,-0.08635 0.002,-0.172727 0.002,-0.259091 7.9e-4,-0.104513 -0.003,-0.208995 0.006,-0.313196 0.009,-0.08389 0.0356,-0.162921 0.0756,-0.236766 0.0285,-0.04759 0.0609,-0.09318 0.10677,-0.125127 0.12346,-0.07452 0.15265,-0.11357 0.26944,-0.09812 0.0504,0.0082 0.0835,0.03881 0.11202,0.07891 0.0419,0.06795 0.0625,0.145326 0.0794,0.222577 0.0199,0.0847 0.0288,0.171109 0.0335,0.25781 0.002,0.107605 -0.0267,0.212765 -0.0575,0.314956 -0.0211,0.056 -0.0353,0.118354 -0.0774,0.163097 -0.14467,0.09476 -0.1376,0.127686 -0.21844,0.04848 -0.025,-0.02032 -0.0506,-0.04041 -0.0812,-0.05108 -0.0303,-0.0091 -0.0604,-0.01708 -0.0918,-0.02101 -0.005,0.0032 -0.0307,-0.0061 -0.0363,-0.003 -0.002,8.73e-4 -5.3e-4,0.0036 -0.001,0.0053 0,0 0.14233,-0.112504 0.14233,-0.112504 v 0 c 0.0134,0.005 0.0279,0.0039 0.0419,0.0065 0.0322,0.0053 0.0635,0.01387 0.0944,0.02438 0.0314,0.01388 0.0587,0.03492 0.0847,0.05709 0.01,0.0093 0.0208,0.02157 0.0335,0.02747 0.009,0.0043 0.0143,-0.0021 0.0121,-8.2e-4 -0.0489,0.02912 -0.0981,0.05781 -0.14723,0.08672 0.0514,-0.03455 0.0632,-0.102431 0.086,-0.15585 0.0317,-0.09995 0.0605,-0.203173 0.0592,-0.308892 -0.004,-0.08581 -0.0123,-0.171489 -0.0322,-0.255308 -0.0158,-0.07488 -0.0358,-0.149943 -0.0776,-0.215039 -0.0272,-0.03613 -0.0577,-0.06158 -0.10449,-0.06613 -0.0154,-0.0014 -0.0242,-0.0028 -0.0394,-0.0018 -0.0695,0.0043 -0.169,0.07665 0.0834,-0.06849 -0.0496,0.02626 -0.0823,0.07102 -0.11218,0.117537 -0.0418,0.07138 -0.0695,0.148259 -0.08,0.230725 -0.0111,0.103651 -0.007,0.207807 -0.007,0.311906 1.3e-4,0.08567 1e-4,0.171357 0.002,0.257008 0,0 -0.16031,0.08168 -0.16031,0.08168 z"
           id="path1169-6"
           style="opacity:1;fill:#000000;fill-opacity:1;fill-rule:evenodd;stroke:#000000;stroke-width:0.1;stroke-linecap:round;stroke-linejoin:bevel;stroke-miterlimit:4;stroke-dasharray:none;stroke-dashoffset:0;stroke-opacity:1" />
        <path
           d="m 121.28915,-14.170823 c -0.002,0.07743 -0.002,0.1549 -0.001,0.23235 5.3e-4,0.06544 5.3e-4,0.130877 5.3e-4,0.196316 -0.003,0.05598 -0.009,0.111693 -0.0128,0.167651 0.001,0.03383 -0.009,0.07057 0.002,0.103203 0.002,0.0016 0.002,0.0042 0.004,0.0049 0.002,4.77e-4 0.01,-0.01391 0.005,-0.01125 -0.17961,0.09336 -0.183,0.122232 -0.13106,0.06599 0.0323,-0.0349 0.0393,-0.08329 0.0464,-0.128438 0.0118,-0.08906 0.0275,-0.177468 0.0435,-0.265862 0.0166,-0.08896 0.0356,-0.177437 0.0528,-0.266295 0.0218,-0.08202 0.0591,-0.05803 0.17425,-0.122572 0,0 -0.14429,0.109163 -0.14429,0.109163 v 0 c 0.0492,-0.02942 0.0984,-0.05885 0.1476,-0.08827 -0.003,0.0021 -0.007,0.0032 -0.01,0.0064 -0.004,0.0052 -0.005,0.01182 -0.007,0.01773 -0.0204,0.08861 -0.0387,0.177668 -0.0555,0.267026 -0.0157,0.08783 -0.0309,0.175731 -0.0418,0.264315 -0.006,0.04703 -0.0114,0.09752 -0.0396,0.137264 -0.0515,0.05513 -0.14809,0.170209 -0.20204,0.09751 -0.0136,-0.0353 -0.006,-0.07358 -0.005,-0.110568 0.004,-0.05577 0.01,-0.111354 0.0142,-0.16706 -1e-5,-0.06558 -5e-5,-0.131169 5.3e-4,-0.196752 2.4e-4,-0.077 8e-4,-0.154022 -10e-4,-0.231005 0,0 0.16031,-0.08168 0.16031,-0.08168 z"
           id="path1171-4"
           style="opacity:1;fill:#000000;fill-opacity:1;fill-rule:evenodd;stroke:#000000;stroke-width:0.1;stroke-linecap:round;stroke-linejoin:bevel;stroke-miterlimit:4;stroke-dasharray:none;stroke-dashoffset:0;stroke-opacity:1" />
        <path
           d="m 121.63788,-14.122203 c 0.006,0.08851 0.0201,0.175933 0.0347,0.263284 0.015,0.08137 0.0373,0.161094 0.0525,0.242416 0.002,0.01338 0.0186,0.06811 0.0408,0.06031 0.0374,-0.04976 -0.007,0.0099 -0.14741,0.0788 -0.003,0.0017 0.003,-0.0071 0.004,-0.01091 0.005,-0.02131 0.004,-0.04459 0.004,-0.06623 7.9e-4,-0.07306 2.2e-4,-0.146125 -1.3e-4,-0.219185 -2.6e-4,-0.0643 -5.3e-4,-0.128597 -0.001,-0.192895 0.003,-0.03105 -0.006,-0.06077 -0.0121,-0.09072 -0.004,-0.02056 -0.005,-0.0415 -0.005,-0.06238 7e-5,-0.03197 1.6e-4,-0.06395 2e-4,-0.09592 0.003,-0.03059 -0.004,-0.05997 -0.009,-0.08979 0.002,-0.0016 -0.009,-0.02698 -7.9e-4,-0.0084 0,0 0.15097,-0.10119 0.15097,-0.10119 v 0 c 0.006,0.0084 0.008,0.0146 0.009,0.02505 0.005,0.03083 0.0135,0.0611 0.0105,0.09272 -3e-5,0.03174 -1.6e-4,0.06349 5.3e-4,0.09522 2.7e-4,0.01987 5.3e-4,0.03981 0.004,0.05948 0.006,0.03136 0.0148,0.0625 0.0119,0.09483 -2.6e-4,0.0645 -5.3e-4,0.128991 -2.6e-4,0.193486 1.8e-4,0.07295 5.3e-4,0.145888 10e-4,0.21883 6e-5,0.08223 0.001,0.231659 -0.16888,0.182153 -0.0298,-0.01688 -0.0439,-0.04651 -0.0491,-0.07965 -0.0133,-0.08202 -0.0347,-0.162251 -0.05,-0.243859 -0.0147,-0.08704 -0.0294,-0.174032 -0.0391,-0.261805 0,0 0.15926,-0.08366 0.15926,-0.08366 z"
           id="path1173-0"
           style="opacity:1;fill:#000000;fill-opacity:1;fill-rule:evenodd;stroke:#000000;stroke-width:0.1;stroke-linecap:round;stroke-linejoin:bevel;stroke-miterlimit:4;stroke-dasharray:none;stroke-dashoffset:0;stroke-opacity:1" />
        <path
           d="m 121.99083,-15.070621 c 0.0515,0.08677 0.0845,0.181447 0.10779,0.279144 0.0266,0.107113 0.0183,0.215646 0.004,0.323531 -0.003,0.02816 -0.009,0.05559 -0.0164,0.08281 0,0 -0.16205,0.07661 -0.16205,0.07661 v 0 c 0.009,-0.02658 0.0172,-0.05334 0.0198,-0.08151 0.017,-0.106054 0.0277,-0.212778 0.002,-0.318676 -0.0228,-0.09521 -0.0541,-0.188553 -0.10917,-0.270517 0,0 0.15481,-0.09139 0.15481,-0.09139 z"
           id="path1175-0"
           style="opacity:1;fill:#000000;fill-opacity:1;fill-rule:evenodd;stroke:#000000;stroke-width:0.1;stroke-linecap:round;stroke-linejoin:bevel;stroke-miterlimit:4;stroke-dasharray:none;stroke-dashoffset:0;stroke-opacity:1" />
        <path
           d="m 121.43521,-15.096634 c -0.0192,0.08243 -0.0298,0.166746 -0.0381,0.250916 -0.009,0.100367 -0.0114,0.201016 -0.006,0.301586 0.005,0.05493 0.0104,0.117452 0.058,0.152725 0.0251,0.01267 0.0529,0.01693 0.0799,0.02339 0,0 -0.14676,0.101558 -0.14676,0.101558 v 0 c -0.0295,-0.0068 -0.0599,-0.01199 -0.0853,-0.02962 -0.048,-0.04273 -0.0576,-0.105563 -0.0625,-0.167165 -0.005,-0.101461 -0.002,-0.202917 0.005,-0.304231 0.008,-0.08438 0.0192,-0.168233 0.0326,-0.251889 0,0 0.16268,-0.07727 0.16268,-0.07727 z"
           id="path1177-4"
           style="opacity:1;fill:#000000;fill-opacity:1;fill-rule:evenodd;stroke:#000000;stroke-width:0.1;stroke-linecap:round;stroke-linejoin:bevel;stroke-miterlimit:4;stroke-dasharray:none;stroke-dashoffset:0;stroke-opacity:1" />
        <path
           d="m 121.38155,-15.162573 c -0.0443,0.04166 -0.0806,0.09081 -0.11499,0.140707 -0.0402,0.0573 -0.0683,0.121183 -0.0897,0.187505 -0.0149,0.04691 -0.0178,0.09505 -0.009,0.143298 0.007,0.03154 0.0229,0.05982 0.031,0.09119 0.001,0.0052 0.002,0.0103 0.003,0.01545 0,0 -0.15894,0.08451 -0.15894,0.08451 v 0 c -7.9e-4,-0.0048 -0.002,-0.0096 -0.002,-0.01436 -0.007,-0.03196 -0.0237,-0.06042 -0.0309,-0.09239 -0.0101,-0.05073 -0.008,-0.101994 0.007,-0.151815 0.0209,-0.06764 0.048,-0.133394 0.0878,-0.1923 0.0333,-0.05028 0.0688,-0.09981 0.11131,-0.142853 0,0 0.16644,-0.06894 0.16644,-0.06894 z"
           id="path1179-6"
           style="opacity:1;fill:#000000;fill-opacity:1;fill-rule:evenodd;stroke:#000000;stroke-width:0.1;stroke-linecap:round;stroke-linejoin:bevel;stroke-miterlimit:4;stroke-dasharray:none;stroke-dashoffset:0;stroke-opacity:1" />
      </g>
    </g>
  </g>
</svg>
