<?xml version="1.0" encoding="UTF-8" standalone="no"?>
<!-- Created with Inkscape (http://www.inkscape.org/) -->

<svg
   xmlns:dc="http://purl.org/dc/elements/1.1/"
   xmlns:cc="http://creativecommons.org/ns#"
   xmlns:rdf="http://www.w3.org/1999/02/22-rdf-syntax-ns#"
   xmlns:svg="http://www.w3.org/2000/svg"
   xmlns="http://www.w3.org/2000/svg"
   xmlns:sodipodi="http://sodipodi.sourceforge.net/DTD/sodipodi-0.dtd"
   xmlns:inkscape="http://www.inkscape.org/namespaces/inkscape"
   width="3.9687519mm"
   height="7.9375mm"
   viewBox="0 0 3.9687519 7.9375"
   version="1.1"
   id="svg1824"
   inkscape:version="0.92.3 (2405546, 2018-03-11)"
   sodipodi:docname="pers0.svg">
  <defs
     id="defs1818" />
  <sodipodi:namedview
     id="base"
     pagecolor="#ffffff"
     bordercolor="#666666"
     borderopacity="1.0"
     inkscape:pageopacity="0.0"
     inkscape:pageshadow="2"
     inkscape:zoom="18.941412"
     inkscape:cx="7.5000036"
     inkscape:cy="15"
     inkscape:document-units="mm"
     inkscape:current-layer="layer1"
     showgrid="false"
     fit-margin-top="0"
     fit-margin-left="0"
     fit-margin-right="0"
     fit-margin-bottom="0"
     inkscape:window-width="1920"
     inkscape:window-height="985"
     inkscape:window-x="0"
     inkscape:window-y="33"
     inkscape:window-maximized="1" />
  <metadata
     id="metadata1821">
    <rdf:RDF>
      <cc:Work
         rdf:about="">
        <dc:format>image/svg+xml</dc:format>
        <dc:type
           rdf:resource="http://purl.org/dc/dcmitype/StillImage" />
        <dc:title></dc:title>
      </cc:Work>
    </rdf:RDF>
  </metadata>
  <g
     inkscape:label="Layer 1"
     inkscape:groupmode="layer"
     id="layer1"
     transform="translate(-0.02165064,-289.04086)">
    <g
       id="g2397">
      <rect
         y="289.04086"
         x="0.02165064"
         height="7.9375"
         width="3.9687519"
         id="rect3352"
         style="opacity:1;fill:none;fill-opacity:1;fill-rule:evenodd;stroke:none;stroke-width:0.04330128;stroke-linecap:round;stroke-linejoin:round;stroke-miterlimit:4;stroke-dasharray:none;stroke-dashoffset:0;stroke-opacity:1" />
      <g
         id="g1258-6-7-5-4"
         transform="matrix(-0.87506035,0,0,0.87506035,50.698797,312.31091)">
        <path
           style="opacity:1;fill:#000000;fill-opacity:1;fill-rule:evenodd;stroke:#000000;stroke-width:0.1;stroke-linecap:round;stroke-linejoin:bevel;stroke-miterlimit:4;stroke-dasharray:none;stroke-dashoffset:0;stroke-opacity:1"
           id="path1079-2-8-4-0"
           d="m 55.198647,-17.975485 c 0.02822,-0.11362 0.05116,-0.228593 0.07362,-0.343485 0.02421,-0.152571 0.04835,-0.305228 0.06716,-0.458573 0.01572,-0.132505 0.03656,-0.264226 0.05964,-0.395615 0.01402,-0.09312 0.03288,-0.185388 0.05793,-0.27615 0.01982,-0.0648 0.0497,-0.125236 0.09146,-0.178485 0.09247,-0.09522 0.215238,-0.172201 0.348165,-0.18665 0.04672,-0.0059 0.08478,0.0096 0.116734,0.04284 0.04715,0.05874 0.06619,0.135866 0.08567,0.207207 0.03749,0.146336 0.07351,0.292888 0.104224,0.4408 0.02961,0.152265 0.06576,0.303126 0.09731,0.454966 0.01701,0.08622 0.02737,0.173494 0.03193,0.261206 0.0021,0.04979 0.0016,0.09963 0.0013,0.149444 -1.64e-4,0.04989 -5.29e-4,0.09977 -5.29e-4,0.149654 2e-6,0.0355 -6e-6,0.01785 2.3e-5,0.05295 0,0 -0.226292,0.11529 -0.226292,0.11529 v 0 c 5.8e-5,-0.03514 3.1e-5,-0.01747 8.2e-5,-0.05302 3.1e-5,-0.04984 -2.49e-4,-0.09968 1.61e-4,-0.149522 2.65e-4,-0.0496 7.94e-4,-0.09922 -7.4e-5,-0.148821 -0.0026,-0.08708 -0.01037,-0.17396 -0.0263,-0.259705 -0.0295,-0.152419 -0.06501,-0.303661 -0.09488,-0.456016 -0.03117,-0.146981 -0.06751,-0.292582 -0.106706,-0.437637 -0.01889,-0.06654 -0.03809,-0.139219 -0.08305,-0.193435 -0.02941,-0.02669 -0.0646,-0.03048 -0.103143,-0.0237 -0.0182,0.0034 -0.0267,0.0043 -0.0442,0.01063 -0.0072,0.0026 -0.0277,0.0131 -0.02114,0.0091 0.358868,-0.21781 0.221875,-0.140382 0.154176,-0.08484 -0.04383,0.04984 -0.07615,0.106269 -0.09718,0.169553 -0.02653,0.09013 -0.04667,0.182026 -0.06104,0.274892 -0.02442,0.131138 -0.04573,0.262777 -0.06205,0.395194 -0.0186,0.15383 -0.04396,0.306721 -0.06633,0.460033 -0.02138,0.114366 -0.04527,0.228249 -0.06661,0.342611 0,0 -0.230065,0.10927 -0.230065,0.10927 z"
           inkscape:connector-curvature="0" />
        <path
           style="opacity:1;fill:#000000;fill-opacity:1;fill-rule:evenodd;stroke:#000000;stroke-width:0.1;stroke-linecap:round;stroke-linejoin:bevel;stroke-miterlimit:4;stroke-dasharray:none;stroke-dashoffset:0;stroke-opacity:1"
           id="path1103-9-4-7-6"
           d="m 54.805032,-20.735829 c 0.05209,-0.08977 0.119541,-0.168794 0.187968,-0.246299 0.05796,-0.07161 0.131746,-0.124856 0.209679,-0.172294 0.10097,-0.05803 0.191469,-0.156498 0.308531,-0.171208 0.01278,-0.0016 0.0492,5.03e-4 0.06106,0.001 0.07989,0.0077 0.139793,0.05337 0.192802,0.109911 0.05137,0.06798 0.07973,0.14846 0.09954,0.230414 0.0249,0.0913 0.03645,0.184563 0.04187,0.278764 0.0013,0.127472 -0.03717,0.25161 -0.07106,0.373397 -0.03135,0.12053 -0.06047,0.241686 -0.08653,0.363474 -0.0113,0.05519 -0.01976,0.111069 -0.02228,0.16739 0.0013,0.01722 -0.0013,-0.02436 -0.01151,-0.02007 -0.280966,0.119246 -0.216921,0.190602 -0.197459,0.06647 0.005,-0.04454 0.0047,-0.08946 0.0049,-0.134219 0,0 0.226619,-0.115421 0.226619,-0.115421 v 0 c -6e-6,0.04564 2.64e-4,0.09136 -0.0031,0.136907 -0.0011,0.0092 -0.0011,0.05227 -0.0093,0.05833 -0.06559,0.04763 -0.197887,0.230318 -0.238919,0.122257 0.0068,-0.05773 0.01122,-0.115858 0.02506,-0.172535 0.0274,-0.122327 0.0577,-0.244005 0.08784,-0.365679 0.03346,-0.119098 0.07208,-0.240562 0.07301,-0.365121 -0.0056,-0.0926 -0.01582,-0.184712 -0.04054,-0.274461 -0.01842,-0.07769 -0.0447,-0.154349 -0.0937,-0.218535 -0.05011,-0.05215 -0.107119,-0.09108 -0.182157,-0.09247 -0.02342,8.2e-4 -0.0347,-4.5e-4 -0.05675,0.0062 -0.0076,0.0023 -0.02893,0.01347 -0.02209,0.0093 0.357138,-0.215325 0.22547,-0.134478 0.150313,-0.08491 -0.0797,0.04449 -0.156237,0.09536 -0.215395,0.166046 -0.06756,0.07521 -0.137557,0.151218 -0.184991,0.241189 0,0 -0.233363,0.102104 -0.233363,0.102104 z"
           inkscape:connector-curvature="0" />
        <path
           style="opacity:1;fill:#000000;fill-opacity:1;fill-rule:evenodd;stroke:#000000;stroke-width:0.1;stroke-linecap:round;stroke-linejoin:bevel;stroke-miterlimit:4;stroke-dasharray:none;stroke-dashoffset:0;stroke-opacity:1"
           id="path1105-1-5-4-2"
           d="m 54.707541,-20.03346 c 0.04103,-0.120937 0.05846,-0.247635 0.07644,-0.373514 0.02151,-0.169973 0.03153,-0.34117 0.05942,-0.510299 0.0217,-0.09737 0.06001,-0.189696 0.135411,-0.256753 0.101235,-0.04453 0.240157,-0.180673 0.37624,-0.178245 0.0204,0.0045 0.03315,0.01328 0.04691,0.0281 0,0 -0.217723,0.133833 -0.217723,0.133833 v 0 c -0.01048,-0.0084 -0.02043,-0.01171 -0.03427,-0.01124 -0.102182,0.01399 -0.305131,0.149004 0.06341,-0.06648 -0.08618,0.06064 -0.118478,0.142917 -0.146958,0.241949 -0.03109,0.16873 -0.04199,0.33993 -0.06137,0.510241 -0.0164,0.125382 -0.03183,0.251385 -0.06745,0.373126 0,0 -0.230065,0.109271 -0.230065,0.109271 z"
           inkscape:connector-curvature="0" />
        <path
           style="opacity:1;fill:#000000;fill-opacity:1;fill-rule:evenodd;stroke:#000000;stroke-width:0.1;stroke-linecap:round;stroke-linejoin:bevel;stroke-miterlimit:4;stroke-dasharray:none;stroke-dashoffset:0;stroke-opacity:1"
           id="path1107-2-0-4-9"
           d="m 55.902047,-21.59998 c 0.0825,0.05574 0.141216,0.130588 0.184785,0.218991 0.04806,0.129032 0.05318,0.268984 0.06847,0.40464 0.02072,0.152258 0.04747,0.303505 0.0652,0.456162 0.01304,0.122257 0.01601,0.24519 0.0177,0.368023 0.0011,0.08623 2.65e-4,0.17249 0.0019,0.25872 0.0087,0.100955 -0.193855,0.218604 -0.246359,0.123499 0,0 0.22125,-0.127217 0.22125,-0.127217 v 0 c 0.04887,0.08789 0.01434,0.01494 -0.210756,0.145259 -0.0029,0.0016 0.0044,-0.0051 0.0056,-0.0082 0.0021,-0.0058 0.0028,-0.01215 0.0041,-0.01823 0.0019,-0.08665 0.0016,-0.173334 0.0016,-0.259996 -7.93e-4,-0.122339 -0.0031,-0.244817 -0.01487,-0.366683 -0.01625,-0.152924 -0.04285,-0.304277 -0.06423,-0.456525 -0.01588,-0.132506 -0.02154,-0.26916 -0.06719,-0.395622 -0.04157,-0.08409 -0.09804,-0.156131 -0.180303,-0.204187 0,0 0.213315,-0.138664 0.213315,-0.138664 z"
           inkscape:connector-curvature="0" />
        <path
           style="opacity:1;fill:#000000;fill-opacity:1;fill-rule:evenodd;stroke:#000000;stroke-width:0.1;stroke-linecap:round;stroke-linejoin:bevel;stroke-miterlimit:4;stroke-dasharray:none;stroke-dashoffset:0;stroke-opacity:1"
           id="path1109-7-3-3-9"
           d="m 56.128147,-21.609654 c 0.06709,-0.03517 0.140705,-0.05485 0.214886,-0.06811 0.05562,-0.0082 0.110734,-0.01485 0.164844,0.0026 0.05598,0.01819 0.105817,0.05215 0.150878,0.08935 0.05293,0.0447 0.09566,0.09585 0.127154,0.157409 0.03127,0.07432 0.04528,0.152775 0.05381,0.232409 0.0075,0.09996 0.007,0.200286 0.007,0.300456 0.0048,0.101308 -0.0013,0.199789 -0.0321,0.296566 -0.02635,0.07829 -0.07508,0.14083 -0.135009,0.196005 -0.133656,0.09618 -0.280918,0.174887 -0.433675,0.236201 0.02307,-0.01188 -0.07367,0.03818 -0.05574,0.02772 0.348768,-0.203635 0.23382,-0.131976 0.157599,-0.08811 -0.0044,-0.007 -0.0043,-0.0035 -0.0013,-0.01066 0,0 -0.213829,0.141051 -0.213829,0.141051 v 0 c -0.0177,-0.01685 -0.01111,-0.0071 -0.02011,-0.0291 0.0074,-0.01777 0.02032,-0.02389 0.03688,-0.03346 0.09889,-0.05721 0.191103,-0.118937 0.294825,-0.163738 0.03672,-0.01548 0.07359,-0.03095 0.109159,-0.04898 0.01249,-0.0063 0.04894,-0.02713 0.03693,-0.01996 -0.05922,0.0354 -0.119052,0.06975 -0.178578,0.104625 0.01138,-0.0069 0.02273,-0.01374 0.03409,-0.02061 0.06112,-0.05071 0.112114,-0.108708 0.140859,-0.184079 0.03425,-0.0958 0.04248,-0.188109 0.0369,-0.289765 -5.3e-4,-0.09918 -8e-6,-0.19852 -0.0072,-0.297501 -0.0075,-0.07668 -0.02072,-0.152102 -0.05015,-0.223832 -0.02949,-0.05862 -0.07184,-0.105901 -0.122073,-0.14804 -0.0436,-0.03454 -0.09152,-0.0653 -0.145693,-0.07999 -0.05213,-0.01059 -0.10523,-0.0025 -0.157253,0.006 -0.07345,0.0153 -0.145846,0.03715 -0.210872,0.07555 0,0 0.197794,-0.160026 0.197794,-0.160026 z"
           inkscape:connector-curvature="0" />
        <path
           style="opacity:1;fill:#000000;fill-opacity:1;fill-rule:evenodd;stroke:#000000;stroke-width:0.1;stroke-linecap:round;stroke-linejoin:bevel;stroke-miterlimit:4;stroke-dasharray:none;stroke-dashoffset:0;stroke-opacity:1"
           id="path1111-0-61-0-0"
           d="m 55.584264,-21.427704 c -0.05177,-0.09809 -0.08578,-0.204527 -0.117515,-0.310447 -0.04017,-0.120313 -0.06163,-0.244874 -0.07536,-0.37058 -0.0084,-0.07618 -0.01508,-0.150907 0.02096,-0.220602 0.07885,-0.08863 0.222528,-0.221756 0.334423,-0.150832 0.04889,0.05462 0.06978,0.130454 0.0949,0.198093 0.03994,0.104994 0.07836,0.210714 0.109844,0.318584 0.01654,0.06215 0.03123,0.125525 0.02532,0.190063 -0.0034,0.02637 -0.01347,0.05265 5.29e-4,0.07712 0,0 -0.221684,0.12738 -0.221684,0.12738 v 0 c -0.01643,-0.03052 -0.0159,-0.05847 -0.007,-0.09181 0.01008,-0.06167 -0.0029,-0.122416 -0.01775,-0.182574 -0.02941,-0.10778 -0.06718,-0.213105 -0.108193,-0.316979 -0.02358,-0.06066 -0.04328,-0.132398 -0.08912,-0.180096 -0.01363,-0.0051 -0.01529,-0.0076 -0.03062,-0.0051 -0.0059,9.53e-4 -0.02225,0.0084 -0.01714,0.0052 0.352724,-0.217198 0.230904,-0.141728 0.158866,-0.09157 -0.04597,0.0611 -0.03776,0.13447 -0.03123,0.207161 0.01135,0.124601 0.03158,0.24808 0.07184,0.367001 0.03143,0.103669 0.0639,0.20915 0.119391,0.302854 0,0 -0.220393,0.127114 -0.220393,0.127114 z"
           inkscape:connector-curvature="0" />
      </g>
    </g>
  </g>
</svg>
