<?xml version="1.0" encoding="UTF-8" standalone="no"?>
<svg
   xmlns:dc="http://purl.org/dc/elements/1.1/"
   xmlns:cc="http://creativecommons.org/ns#"
   xmlns:rdf="http://www.w3.org/1999/02/22-rdf-syntax-ns#"
   xmlns:svg="http://www.w3.org/2000/svg"
   xmlns="http://www.w3.org/2000/svg"
   width="47.095844mm"
   height="18.52083mm"
   viewBox="0 0 47.095844 18.52083"
   version="1.1"
   id="svg2212">
  <defs
     id="defs2206" />
  <metadata
     id="metadata2209">
    <rdf:RDF>
      <cc:Work
         rdf:about="">
        <dc:format>image/svg+xml</dc:format>
        <dc:type
           rdf:resource="http://purl.org/dc/dcmitype/StillImage" />
        <dc:title></dc:title>
      </cc:Work>
    </rdf:RDF>
  </metadata>
  <g
     transform="translate(-0.0499965,-278.42917)"
     id="g981">
    <path
       style="opacity:0.19599998;fill:#ffffff;fill-opacity:1;fill-rule:evenodd;stroke:none;stroke-width:0.1;stroke-linecap:round;stroke-linejoin:bevel;stroke-miterlimit:4;stroke-dasharray:none;stroke-dashoffset:0;stroke-opacity:1"
       d="M 0.0499965,278.42917 H 47.145841 V 296.95 H 0.0499965 Z"
       id="rect2113" />
    <path
       style="opacity:1;fill:#3d85c6;fill-opacity:1;fill-rule:evenodd;stroke:none;stroke-width:0.20016716;stroke-linecap:round;stroke-linejoin:round;stroke-miterlimit:4;stroke-dasharray:none;stroke-dashoffset:0;stroke-opacity:1"
       d="m 1.58469,287.14042 c -0.0491,-0.31331 -0.18573,-1.33421 -0.18573,-1.38778 0,-0.0287 -0.11723,-0.0522 -0.26051,-0.0522 H 0.87792 v -2.66638 c 0,-2.93723 -0.002,-2.91563 0.31976,-3.15287 l 0.17524,-0.12911 h 7.95516 c 7.95337,0 7.95519,1e-5 8.09905,0.11103 0.0791,0.061 0.19223,0.17786 0.25132,0.25959 0.10466,0.1448 0.1078,0.21777 0.12228,2.8603 l 0.0148,2.71171 -0.27538,0.0163 -0.27536,0.0163 -0.1,0.79401 -0.1,0.79401 H 9.33841 1.61202 Z"
       id="path2604-0-5-6-9-5-2-3" />
    <g
       aria-label="BUS"
       transform="matrix(0.14300931,0,0,0.14300931,79.30545,284.27235)"
       style="font-style:normal;font-variant:normal;font-weight:bold;font-stretch:normal;font-size:21.33333397px;line-height:125%;font-family:'Ubuntu Mono';-inkscape-font-specification:'Ubuntu Mono Bold';letter-spacing:5.95000219px;word-spacing:0px;fill:#ffffff;fill-opacity:1;stroke:#000000;stroke-width:1.39851034;stroke-linecap:butt;stroke-linejoin:miter;stroke-miterlimit:4;stroke-dasharray:none;stroke-opacity:1"
       id="flowRoot1451-5-6-6">
      <path
         d="m -356.52612,29.484897 q 0,1.92 -0.64,3.733333 -0.64,1.813334 -2.08,3.573334 -1.38666,1.76 -4.21333,2.826667 -2.82667,1.066666 -6.72,1.066666 h -17.49334 V 1.8048954 h 17.33334 q 3.62666,0 6.24,1.0666667 2.66666,1.0666667 3.94667,2.7733335 1.33333,1.6533334 1.92,3.2533334 0.58666,1.6 0.58666,3.146667 0,2.506667 -1.22666,4.373333 -1.22667,1.813334 -4.10667,3.626667 6.45333,3.786667 6.45333,9.440001 z M -379.67279,8.4715624 v 8.8000006 h 8.69334 q 5.65333,0 5.65333,-4.373334 0,-4.4266666 -5.65333,-4.4266666 z m 0,15.4666676 v 10.08 h 9.54667 q 5.92,0 5.92,-5.013333 0,-5.066667 -5.92,-5.066667 z"
         style="font-style:normal;font-variant:normal;font-weight:bold;font-stretch:normal;font-size:53.33333588px;font-family:FreeSans;-inkscape-font-specification:'FreeSans Bold';letter-spacing:5.95000219px;fill:#ffffff;fill-opacity:1;stroke:#000000;stroke-width:1.39851034;stroke-miterlimit:4;stroke-dasharray:none;stroke-opacity:1"
         id="path931" />
      <path
         d="m -324.70278,41.538231 q -1.97334,0.373333 -4.10667,0.373333 -2.13333,0 -4.16,-0.373333 -1.97334,-0.373334 -4.10667,-1.333334 -2.08,-0.96 -3.62667,-2.453333 -1.54666,-1.493334 -2.56,-3.946667 -0.96,-2.506667 -0.96,-5.653334 V 1.8048954 h 8 V 28.151563 q 0,6.933334 7.41334,6.933334 7.41333,0 7.41333,-6.933334 V 1.8048954 h 8 V 28.151563 q 0,3.146667 -1.01333,5.653334 -0.96,2.453333 -2.50667,3.946667 -1.54666,1.493333 -3.68,2.453333 -2.08,0.96 -4.10666,1.333334 z"
         style="font-style:normal;font-variant:normal;font-weight:bold;font-stretch:normal;font-size:53.33333588px;font-family:FreeSans;-inkscape-font-specification:'FreeSans Bold';letter-spacing:5.95000219px;fill:#ffffff;fill-opacity:1;stroke:#000000;stroke-width:1.39851034;stroke-miterlimit:4;stroke-dasharray:none;stroke-opacity:1"
         id="path933" />
      <path
         d="m -270.36445,13.644896 h -7.46667 q -0.42666,-6.0800003 -8.16,-6.0800003 -3.09333,0 -4.90666,1.3333333 -1.81334,1.28 -1.81334,3.466667 0,2.133333 1.54667,3.2 1.54667,1.013333 5.81333,1.866667 l 6.08,1.173333 q 5.38667,1.066667 7.84,3.626667 2.45334,2.506667 2.45334,7.093334 0,5.92 -4.21334,9.28 -4.21333,3.306667 -11.73333,3.306667 -7.46667,0 -11.62667,-3.306667 -4.10666,-3.306667 -4.48,-9.546667 h 7.78667 q 0.21333,3.146667 2.45333,4.8 2.24,1.653334 6.29334,1.653334 3.62666,0 5.70666,-1.386667 2.13334,-1.386667 2.13334,-3.84 0,-2.346667 -1.65334,-3.626667 -1.65333,-1.28 -5.65333,-2.026667 l -5.44,-1.066667 q -5.92,-1.12 -8.42667,-3.52 -2.50666,-2.4 -2.50666,-6.933333 0,-5.7066674 3.84,-8.8000008 3.89333,-3.1466669 10.88,-3.1466669 2.02666,0 3.89333,0.2666667 1.92,0.2666667 4.05333,1.1200001 2.13334,0.8 3.68,2.1333334 1.54667,1.2800001 2.56,3.6266669 1.06667,2.2933336 1.06667,5.3333336 z"
         style="font-style:normal;font-variant:normal;font-weight:bold;font-stretch:normal;font-size:53.33333588px;font-family:FreeSans;-inkscape-font-specification:'FreeSans Bold';letter-spacing:5.95000219px;fill:#ffffff;fill-opacity:1;stroke:#000000;stroke-width:1.39851034;stroke-miterlimit:4;stroke-dasharray:none;stroke-opacity:1"
         id="path935" />
    </g>
    <g
       aria-label="DI"
       transform="matrix(0.14300931,0,0,0.14300931,61.77185,284.28474)"
       style="font-style:normal;font-variant:normal;font-weight:bold;font-stretch:normal;font-size:21.33333397px;line-height:125%;font-family:'Ubuntu Mono';-inkscape-font-specification:'Ubuntu Mono Bold';letter-spacing:5.95000219px;word-spacing:0px;fill:#ffffff;fill-opacity:1;stroke:#575757;stroke-width:1.39851034;stroke-linecap:butt;stroke-linejoin:miter;stroke-miterlimit:4;stroke-dasharray:none;stroke-opacity:1"
       id="flowRoot1451-5-7-5-5">
      <path
         d="M -387.67279,40.684897 V 1.8048954 h 15.2 q 4.48,0 7.36,1.0666667 2.93334,1.0666667 4.90667,3.4133335 4.74667,5.6533334 4.74667,14.9333344 0,9.386667 -4.74667,14.933334 -3.78667,4.533333 -12.26667,4.533333 z m 8,-6.666667 h 7.2 q 9.01334,0 9.01334,-12.746667 0,-12.8000006 -9.01334,-12.8000006 h -7.2 z"
         style="font-style:normal;font-variant:normal;font-weight:bold;font-stretch:normal;font-size:53.33333588px;font-family:FreeSans;-inkscape-font-specification:'FreeSans Bold';letter-spacing:5.95000219px;fill:#ffffff;stroke:#575757;stroke-width:1.39851034;stroke-miterlimit:4;stroke-dasharray:none;stroke-opacity:1"
         id="path939" />
      <path
         d="M -335.07695,1.8048954 V 40.684897 h -8 V 1.8048954 Z"
         style="font-style:normal;font-variant:normal;font-weight:bold;font-stretch:normal;font-size:53.33333588px;font-family:FreeSans;-inkscape-font-specification:'FreeSans Bold';letter-spacing:5.95000219px;fill:#ffffff;stroke:#575757;stroke-width:1.39851034;stroke-miterlimit:4;stroke-dasharray:none;stroke-opacity:1"
         id="path941" />
    </g>
    <path
       style="opacity:1;fill:#ffffff;fill-opacity:1;fill-rule:evenodd;stroke:none;stroke-width:0.21573393;stroke-linecap:round;stroke-linejoin:round;stroke-miterlimit:4;stroke-dasharray:none;stroke-dashoffset:0;stroke-opacity:1"
       d="M 2.1259928,287.53986 H 46.458882 v 0.33279 H 2.1259928 Z"
       id="rect5284-1-1" />
    <g
       transform="matrix(0.54050766,0,0,0.54050766,-3.59438,275.78556)"
       id="g5309-27-2"
       style="fill:#ffffff;stroke-width:0.37002251;stroke-miterlimit:4;stroke-dasharray:none">
      <path
         id="path5290-0-7"
         d="m 11.90625,21.833333 -0.380252,-2.793642 h -0.968852 l 0.02619,2.793643 z"
         style="fill:#ffffff;fill-opacity:1;fill-rule:evenodd;stroke:none;stroke-width:0.37002251;stroke-linecap:butt;stroke-linejoin:miter;stroke-miterlimit:4;stroke-dasharray:none;stroke-opacity:1" />
      <path
         id="path5290-5-9-0"
         d="m 11.906247,22.362502 -0.380252,2.793642 h -0.968852 l 0.02619,-2.793643 z"
         style="fill:#ffffff;fill-opacity:1;fill-rule:evenodd;stroke:none;stroke-width:0.37002251;stroke-linecap:butt;stroke-linejoin:miter;stroke-miterlimit:4;stroke-dasharray:none;stroke-opacity:1" />
    </g>
    <g
       transform="matrix(0.54050766,0,0,0.54050766,14.1709,275.79387)"
       id="g5309-2-3-9"
       style="fill:#ffffff;stroke-width:0.37002251;stroke-miterlimit:4;stroke-dasharray:none">
      <path
         id="path5290-1-6-3"
         d="m 11.90625,21.833333 -0.380252,-2.793642 h -0.968852 l 0.02619,2.793643 z"
         style="fill:#ffffff;fill-opacity:1;fill-rule:evenodd;stroke:none;stroke-width:0.37002251;stroke-linecap:butt;stroke-linejoin:miter;stroke-miterlimit:4;stroke-dasharray:none;stroke-opacity:1" />
      <path
         id="path5290-5-0-0-6"
         d="m 11.906247,22.362502 -0.380252,2.793642 h -0.968852 l 0.02619,-2.793643 z"
         style="fill:#ffffff;fill-opacity:1;fill-rule:evenodd;stroke:none;stroke-width:0.37002251;stroke-linecap:butt;stroke-linejoin:miter;stroke-miterlimit:4;stroke-dasharray:none;stroke-opacity:1" />
    </g>
    <g
       transform="matrix(-0.54050766,0,0,0.54050766,24.30079,275.77726)"
       id="g5309-20-6-0"
       style="fill:#ffffff;stroke-width:0.37002251;stroke-miterlimit:4;stroke-dasharray:none">
      <path
         id="path5290-6-2-6"
         d="m 11.90625,21.833333 -0.380252,-2.793642 h -0.968852 l 0.02619,2.793643 z"
         style="fill:#ffffff;fill-opacity:1;fill-rule:evenodd;stroke:none;stroke-width:0.37002251;stroke-linecap:butt;stroke-linejoin:miter;stroke-miterlimit:4;stroke-dasharray:none;stroke-opacity:1" />
      <path
         id="path5290-5-3-6-2"
         d="m 11.906247,22.362502 -0.380252,2.793642 h -0.968852 l 0.02619,-2.793643 z"
         style="fill:#ffffff;fill-opacity:1;fill-rule:evenodd;stroke:none;stroke-width:0.37002251;stroke-linecap:butt;stroke-linejoin:miter;stroke-miterlimit:4;stroke-dasharray:none;stroke-opacity:1" />
    </g>
    <g
       transform="matrix(-0.54050766,0,0,0.54050766,50.74454,275.77581)"
       id="g5309-6-1-6"
       style="fill:#ffffff;stroke-width:0.37002251;stroke-miterlimit:4;stroke-dasharray:none">
      <path
         id="path5290-9-87-1"
         d="m 11.90625,21.833333 -0.380252,-2.793642 h -0.968852 l 0.02619,2.793643 z"
         style="fill:#ffffff;fill-opacity:1;fill-rule:evenodd;stroke:none;stroke-width:0.37002251;stroke-linecap:butt;stroke-linejoin:miter;stroke-miterlimit:4;stroke-dasharray:none;stroke-opacity:1" />
      <path
         id="path5290-5-4-9-8"
         d="m 11.906247,22.362502 -0.380252,2.793642 h -0.968852 l 0.02619,-2.793643 z"
         style="fill:#ffffff;fill-opacity:1;fill-rule:evenodd;stroke:none;stroke-width:0.37002251;stroke-linecap:butt;stroke-linejoin:miter;stroke-miterlimit:4;stroke-dasharray:none;stroke-opacity:1" />
    </g>
    <g
       transform="matrix(0.54050766,0,0,0.54050766,-3.59438,275.78556)"
       id="g1969-2-7"
       style="fill:#000000;fill-opacity:0;stroke-width:0.37002251;stroke-miterlimit:4;stroke-dasharray:none">
      <path
         transform="scale(0.26458333)"
         id="path1963-0-9"
         d="m 77.486723,75.175981 v -7.232143 l 4.151786,0.0026 c 4.552648,0.0029 5.75833,0.170291 7.310257,1.014956 2.958644,1.610295 4.609386,5.800707 4.609386,11.700934 v 1.745756 h -8.035714 -8.035715 z"
         style="opacity:1;fill:#000000;fill-opacity:0;fill-rule:evenodd;stroke:none;stroke-width:1.39851034;stroke-linecap:round;stroke-linejoin:round;stroke-miterlimit:4;stroke-dasharray:none;stroke-dashoffset:0;stroke-opacity:1" />
      <path
         transform="scale(0.26458333)"
         id="path1965-2-2"
         d="m 44.985626,82.274195 c -0.0016,-0.195505 -1.224259,-9.136928 -1.34299,-9.821428 L 43.541969,71.87241 h -1.780998 -1.780998 l 0.04802,-17.735945 0.04802,-17.735946 0.538886,-1.053602 c 0.59766,-1.168515 1.803335,-2.219024 2.936405,-2.5585 0.493848,-0.14796 14.877275,-0.201722 53.968973,-0.201722 59.156053,0 54.151263,-0.107026 55.667053,1.190433 0.40823,0.349434 0.96001,1.048198 1.22618,1.552808 l 0.48393,0.917474 0.048,17.8125 0.048,17.8125 h -1.78907 c -1.58269,0 -1.78973,0.03605 -1.79471,0.3125 -0.003,0.171875 -0.30926,2.522321 -0.68036,5.223214 l -0.67472,4.910714 -13.96109,0.04573 -13.96108,0.04573 -0.0461,-10.581447 -0.0461,-10.581444 -4.0625,-0.048 -4.0625,-0.048 V 71.77976 82.408112 h -6.16071 -6.16071 v -2.253868 c 0,-4.149518 -0.81862,-7.833848 -2.443269,-10.996407 -2.008271,-3.909445 -4.52246,-6.134613 -8.099521,-7.16849 -2.473427,-0.714894 -4.858453,-0.85383 -13.653562,-0.795359 l -8.035715,0.05342 -0.04606,10.580357 -0.04606,10.580357 H 57.128164 c -6.677792,0 -12.141934,-0.06027 -12.142538,-0.133929 z"
         style="opacity:1;fill:#000000;fill-opacity:0;fill-rule:evenodd;stroke:none;stroke-width:1.39851034;stroke-linecap:round;stroke-linejoin:round;stroke-miterlimit:4;stroke-dasharray:none;stroke-dashoffset:0;stroke-opacity:1" />
    </g>
    <path
       style="fill:none;fill-rule:evenodd;stroke:#000000;stroke-width:0.2;stroke-linecap:round;stroke-linejoin:round;stroke-miterlimit:4;stroke-dasharray:none;stroke-opacity:1"
       d="m 17.85702,287.58664 v 0 l 0.28601,-1.43009 h 0.42903 v -5.00533 l -1.28708,0.42903 0.57204,-1.14407 H 2.84103 c 0,0 -0.71504,0 -0.71504,0.71504 v 5.00533 h 0.42902 l 0.28602,1.43009"
       id="path2993-3-0" />
    <path
       style="fill:none;fill-rule:evenodd;stroke:#000000;stroke-width:0.2;stroke-linecap:butt;stroke-linejoin:bevel;stroke-miterlimit:4;stroke-dasharray:none;stroke-opacity:1"
       d="m 20.7172,287.58664 -0.28602,-1.43009 h -0.42902 v -5.00533 l 1.28708,0.42903 -0.57204,-1.14407 h 23.59654 c 0,0 0.71505,0 0.71505,0.71504 v 5.00533 h -0.42903 l -0.28602,1.43009"
       id="path3012-7-2" />
    <path
       style="fill:none;fill-rule:evenodd;stroke:#000000;stroke-width:0.2;stroke-linecap:round;stroke-linejoin:round;stroke-miterlimit:4;stroke-dasharray:none;stroke-opacity:1"
       d="m 17.85701,287.87266 v 0 l 0.28602,1.4301 h 0.42903 v 5.00532 c 0,0.71505 -0.71505,0.71505 -0.71505,0.71505 H 2.84103 c 0,0 -0.71504,0 -0.71504,-0.71505 v -5.00532 h 0.42902 l 0.28602,-1.4301"
       id="path2993-5-5-3" />
    <path
       style="fill:none;fill-rule:evenodd;stroke:#000000;stroke-width:0.2;stroke-linecap:round;stroke-linejoin:round;stroke-miterlimit:4;stroke-dasharray:none;stroke-opacity:1"
       d="m 20.7172,287.87266 -0.28602,1.4301 h -0.42902 v 5.00532 c 0,0.71505 0.71504,0.71505 0.71504,0.71505 h 23.59654 c 0,0 0.71505,0 0.71505,-0.71505 v -5.00532 h -0.42903 l -0.28602,-1.4301"
       id="path3012-4-2-7" />
    <path
       style="fill:none;fill-rule:evenodd;stroke:#000000;stroke-width:0.2;stroke-linecap:butt;stroke-linejoin:miter;stroke-miterlimit:4;stroke-dasharray:none;stroke-opacity:1"
       d="M 2.84103,287.87267 H 17.85702"
       id="path3092-2-5" />
    <path
       style="fill:none;fill-rule:evenodd;stroke:#000000;stroke-width:0.2;stroke-linecap:butt;stroke-linejoin:miter;stroke-miterlimit:4;stroke-dasharray:none;stroke-opacity:1"
       d="m 12.71327,287.87339 -0.009,2.21207 1.14666,-0.0181 v -2.17595"
       id="path3108-8-9" />
    <path
       style="fill:none;fill-rule:evenodd;stroke:#000000;stroke-width:0.2;stroke-linecap:butt;stroke-linejoin:miter;stroke-miterlimit:4;stroke-dasharray:none;stroke-opacity:1"
       d="m 12.69655,287.57069 v -3.03991 l 1.16195,0.0137 0.0132,3.02649"
       id="path3110-9-2" />
    <path
       style="fill:none;fill-rule:evenodd;stroke:#000000;stroke-width:0.2;stroke-linecap:butt;stroke-linejoin:miter;stroke-miterlimit:4;stroke-dasharray:none;stroke-opacity:1"
       d="m 6.31181,287.57069 0.0132,-3.02618 2.51734,-0.0223 c 1.48062,0.02 2.12747,1.37597 2.09215,3.04853 v 0 0"
       id="path3112-7-2" />
    <path
       style="fill:none;fill-rule:evenodd;stroke:#000000;stroke-width:0.2;stroke-linecap:butt;stroke-linejoin:miter;stroke-miterlimit:4;stroke-dasharray:none;stroke-opacity:1"
       d="m 7.48694,287.57068 v -2.06852 l 1.24046,-0.01 c 0.86681,0.0217 1.12246,1.07588 1.05791,2.0781 v 0"
       id="path3114-36-8" />
    <path
       style="fill:none;fill-rule:evenodd;stroke:#000000;stroke-width:0.2;stroke-linecap:butt;stroke-linejoin:miter;stroke-miterlimit:4;stroke-dasharray:none;stroke-opacity:1"
       d="m 6.326,287.82776 4e-4,2.22176 2.51733,0.0224 c 1.18694,-0.0711 1.85933,-0.878 2.06662,-2.2058"
       id="path3112-0-1-9" />
    <path
       style="fill:none;fill-rule:evenodd;stroke:#000000;stroke-width:0.2;stroke-linecap:butt;stroke-linejoin:miter;stroke-miterlimit:4;stroke-dasharray:none;stroke-opacity:1"
       d="m 7.48404,287.85479 v 1.27692 l 1.24046,0.01 c 0.6407,-0.016 0.9475,-0.59615 1.03789,-1.30245"
       id="path3114-0-2-7" />
  </g>
</svg>
