<?xml version="1.0" encoding="UTF-8" standalone="no"?>
<svg
   xmlns:dc="http://purl.org/dc/elements/1.1/"
   xmlns:cc="http://creativecommons.org/ns#"
   xmlns:rdf="http://www.w3.org/1999/02/22-rdf-syntax-ns#"
   xmlns:svg="http://www.w3.org/2000/svg"
   xmlns="http://www.w3.org/2000/svg"
   id="svg6231"
   version="1.1"
   viewBox="0 0 9.260417 7.9375"
   height="7.9375mm"
   width="9.260417mm">
  <defs
     id="defs6225" />
  <metadata
     id="metadata6228">
    <rdf:RDF>
      <cc:Work
         rdf:about="">
        <dc:format>image/svg+xml</dc:format>
        <dc:type
           rdf:resource="http://purl.org/dc/dcmitype/StillImage" />
        <dc:title></dc:title>
      </cc:Work>
    </rdf:RDF>
  </metadata>
  <g
     transform="translate(-0.025,-289.03751)"
     id="layer1">
    <g
       id="g6819">
      <g
         id="g2941"
         transform="translate(-101.13523,304.24794)">
        <path
           d="m 103.2389,-12.516309 c 0.21066,-0.02641 0.42369,-0.02687 0.63567,-0.03026 0.49522,-0.0045 0.99047,-0.0026 1.48571,-0.0023 0.58021,6.88e-4 1.16043,3.18e-4 1.74064,-7.41e-4 0.41024,-9.52e-4 0.82048,-0.0027 1.23072,-0.0035 0.26502,-6.08e-4 0.53003,-0.0016 0.79505,-0.0023 0.176,0.0029 0.35161,-0.002 0.52727,-0.01226 0.0756,-0.0052 0.15124,-0.0086 0.22688,-0.01261 0,0 -0.2011,0.147351 -0.2011,0.147351 v 0 c -0.0741,0.002 -0.14814,0.0059 -0.22218,0.0096 -0.17474,0.0087 -0.34943,0.01149 -0.5244,0.0086 -0.26292,-7.14e-4 -0.52584,-0.0017 -0.78876,-0.0023 -0.40697,-7.67e-4 -0.81393,-0.0026 -1.2209,-0.0037 -0.5794,-0.0013 -1.1588,-0.002 -1.7382,-10e-4 -0.49928,9.53e-4 -0.99861,0.0015 -1.49781,0.0117 -0.21658,0.0061 -0.43433,0.0095 -0.64888,0.04264 0,0 0.20029,-0.148932 0.20029,-0.148932 z"
           id="path3803-7-7-3-3"
           style="opacity:1;fill:#000000;fill-opacity:1;fill-rule:evenodd;stroke:#000000;stroke-width:0.1;stroke-linecap:round;stroke-linejoin:bevel;stroke-miterlimit:4;stroke-dasharray:none;stroke-dashoffset:0;stroke-opacity:1" />
        <path
           d="m 104.37591,-12.423352 c 0.008,0.169226 0.0362,0.336617 0.0628,0.503643 0.045,0.236732 0.0989,0.47167 0.14934,0.70727 0.0546,0.251405 0.11195,0.501649 0.14976,0.756253 0.0317,0.246738 0.0395,0.4956858 0.0449,0.7441348 0.003,0.134882 0.004,0.269784 0.004,0.404694 0,0.09075 -4.3e-4,0.181492 -2e-4,0.272238 -1.6e-4,0.07403 2.3e-4,0.148063 6e-4,0.222092 2.7e-4,0.05013 3.7e-4,0.100266 4e-4,0.150399 3e-5,0.04577 2e-5,0.09154 2e-5,0.137315 0,0.04587 0,0.09174 0,0.137612 0,0.04594 0,0.09189 0,0.137833 0,0.04595 0,0.0919 0,0.137844 10e-4,0.03931 -0.0176,0.0729 -0.0307,0.108562 -0.0112,0.03124 -0.0112,0.06464 -0.0194,0.09653 -0.001,0.0038 -0.002,0.0075 -0.004,0.01132 0,0 -0.228,0.105634 -0.228,0.105634 v 0 c 0.002,-0.0033 0.003,-0.0067 0.005,-0.01002 0.0123,-0.03149 0.0105,-0.06439 0.0198,-0.09677 0.01,-0.0351 0.0308,-0.06509 0.0346,-0.101823 0,-0.04595 0,-0.0919 0,-0.137844 0,-0.04594 0,-0.09189 0,-0.137833 0,-0.04587 0,-0.09174 0,-0.137607 0,-0.04578 -1e-5,-0.09156 2e-5,-0.137334 4e-5,-0.05027 1.3e-4,-0.100539 4e-4,-0.150807 3.7e-4,-0.07426 7.7e-4,-0.148531 7.1e-4,-0.222797 4e-4,-0.09092 2.5e-4,-0.181834 10e-4,-0.272748 0.001,-0.135805 0.003,-0.271611 0.002,-0.407425 -0.003,-0.248062 -0.008,-0.4966448 -0.0404,-0.7429928 -0.037,-0.254127 -0.096,-0.503328 -0.15051,-0.754118 -0.0503,-0.235917 -0.10367,-0.471211 -0.15076,-0.707803 -0.0282,-0.166066 -0.0573,-0.332235 -0.0729,-0.500071 0,0 0.22095,-0.115366 0.22095,-0.115366 z"
           id="path3805-3-1-9-8"
           style="opacity:1;fill:#000000;fill-opacity:1;fill-rule:evenodd;stroke:#000000;stroke-width:0.1;stroke-linecap:round;stroke-linejoin:bevel;stroke-miterlimit:4;stroke-dasharray:none;stroke-dashoffset:0;stroke-opacity:1" />
        <path
           d="m 108.58013,-12.472248 c 0.0125,0.131917 0.0105,0.264156 0.002,0.396216 -0.0137,0.161119 -0.0427,0.320201 -0.0718,0.479061 -0.0372,0.174716 -0.067,0.350877 -0.10204,0.526021 -0.0343,0.198736 -0.0737,0.396581 -0.10729,0.595425 -0.041,0.218729 -0.0857,0.436714 -0.1213,0.6564158 -0.0241,0.162614 -0.0452,0.325447 -0.0563,0.489484 -0.0108,0.128953 -0.007,0.257076 0.008,0.38532 0.0123,0.119244 0.055,0.231121 0.0926,0.343888 0.0289,0.09832 0.068,0.193302 0.0957,0.291924 0.0201,0.08375 0.054,0.163104 0.087,0.242374 0.0217,0.06516 0.0501,0.129028 0.0627,0.196785 0.002,0.026 0.002,0.01349 2.6e-4,0.03753 0,0 -0.22608,0.108738 -0.22608,0.108738 v 0 c 0.008,-0.01688 0.005,-0.0072 0.005,-0.0296 -0.008,-0.06664 -0.0388,-0.128776 -0.058,-0.192522 -0.0332,-0.08031 -0.0678,-0.160486 -0.0883,-0.245181 -0.0265,-0.09864 -0.0643,-0.193834 -0.0936,-0.291637 -0.0376,-0.114501 -0.0813,-0.227731 -0.0942,-0.348611 -0.0154,-0.129739 -0.022,-0.259252 -0.01,-0.389769 0.0112,-0.165489 0.0339,-0.329519 0.0592,-0.49341 0.036,-0.219739 0.0813,-0.4376898 0.1216,-0.6566458 0.0325,-0.198874 0.0721,-0.396545 0.10519,-0.595344 0.0358,-0.174591 0.0637,-0.35063 0.10084,-0.524949 0.0291,-0.158091 0.0587,-0.316238 0.0732,-0.476509 0.008,-0.129739 0.0111,-0.260051 -0.007,-0.389234 0,0 0.22112,-0.115766 0.22112,-0.115766 z"
           id="path3807-6-1-4-5"
           style="opacity:1;fill:#000000;fill-opacity:1;fill-rule:evenodd;stroke:#000000;stroke-width:0.1;stroke-linecap:round;stroke-linejoin:bevel;stroke-miterlimit:4;stroke-dasharray:none;stroke-dashoffset:0;stroke-opacity:1" />
        <path
           d="m 104.91758,-9.6598782 c 0.14817,0.01474 0.29729,0.01672 0.44606,0.01943 0.27178,0.0039 0.54359,0.0043 0.81539,0.0047 0.30644,7.41e-4 0.61288,1.5e-5 0.91931,-0.0011 0.15273,-3.71e-4 0.30544,-0.002 0.45816,-0.0033 0.0538,-5.02e-4 0.10754,-6.61e-4 0.16131,-7.14e-4 0.0414,8e-5 0.0827,-1.4e-4 0.12411,-1.36e-4 0.0267,-9.9e-5 0.0535,-1.36e-4 0.0802,-1.3e-4 0,0 -0.2029,0.147416 -0.2029,0.147416 v 0 c -0.0266,5e-6 -0.0532,-3.1e-5 -0.0798,-1.31e-4 -0.0413,4e-6 -0.0825,-2.17e-4 -0.12374,-1.37e-4 -0.0531,-5.2e-5 -0.10623,-2.11e-4 -0.15935,-7.15e-4 -0.14973,-0.0013 -0.29947,-0.0029 -0.44921,-0.0032 -0.30552,-10e-4 -0.61103,-0.0016 -0.91655,-9e-4 -0.27381,2.03e-4 -0.54764,0.0013 -0.82145,-7.67e-4 -0.15175,-0.002 -0.30366,-0.0041 -0.45504,-0.01585 0,0 0.20353,-0.144463 0.20353,-0.144463 z"
           id="path3811-2-9-1-6"
           style="opacity:1;fill:#000000;fill-opacity:1;fill-rule:evenodd;stroke:#000000;stroke-width:0.1;stroke-linecap:round;stroke-linejoin:bevel;stroke-miterlimit:4;stroke-dasharray:none;stroke-dashoffset:0;stroke-opacity:1" />
        <path
           d="m 107.83679,-7.8001282 c 0.035,0.0013 0.07,0.0013 0.10495,0.0011 0.037,-0.0053 0.0735,-0.02667 0.11006,-0.04419 0.0384,-0.01746 0.0773,-0.02188 0.11609,-0.02479 0.0352,-0.0021 0.0704,-0.0019 0.10558,-0.0016 0.0454,5.29e-4 0.0908,7.93e-4 0.13621,7.93e-4 0.0384,1.6e-5 0.0769,-2.64e-4 0.11531,-7.93e-4 0.0207,0.0019 0.0411,-0.01169 0.0617,-0.01849 0.0142,-0.0042 0.0285,-0.0055 0.0427,-0.0056 0.0206,2.3e-5 0.0412,2.46e-4 0.0618,5.29e-4 0.0175,2.11e-4 0.035,1.85e-4 0.0526,8.7e-5 0,0 -0.0548,0.121423 -0.0548,0.121423 v 0 c -0.0175,-1.33e-4 -0.035,-1.96e-4 -0.0526,-6.7e-5 -0.0207,8.2e-5 -0.0414,-3.7e-5 -0.0622,7.94e-4 -0.0141,7.94e-4 -0.0282,0.0024 -0.0422,0.0071 -0.0205,0.0074 -0.0409,0.01844 -0.0616,0.0154 -0.0382,-5.29e-4 -0.0764,-7.93e-4 -0.11462,-7.93e-4 -0.0455,-2.17e-4 -0.0911,-7.9e-5 -0.13665,1.96e-4 -0.0351,10e-5 -0.0703,-2.46e-4 -0.10539,0.0019 -0.0387,0.0032 -0.0774,0.0085 -0.11561,0.02709 -0.0366,0.01804 -0.0734,0.03847 -0.11056,0.04131 -0.0353,-1.8e-5 -0.0707,-10e-5 -0.10601,0.0011 0,0 0.0552,-0.122368 0.0552,-0.122368 z"
           id="path2500-2-1"
           style="opacity:1;fill:#000000;fill-opacity:1;fill-rule:evenodd;stroke:#000000;stroke-width:0.15171215;stroke-linecap:round;stroke-linejoin:bevel;stroke-miterlimit:4;stroke-dasharray:none;stroke-dashoffset:0;stroke-opacity:1" />
        <path
           d="m 103.16066,-12.462907 c 0.0309,-0.05033 0.0518,-0.105959 0.0773,-0.159123 0.0285,-0.05706 0.0575,-0.11387 0.0858,-0.17106 0.0295,-0.06711 0.0711,-0.104363 0.15471,-0.119028 0.0935,-0.0055 0.18746,-0.0026 0.28111,-0.0022 0.17472,9e-4 0.34945,0.0012 0.52417,0.0015 0.22624,5.56e-4 0.45248,9e-4 0.67871,8.73e-4 0.21352,-6.6e-5 0.42702,-4.76e-4 0.64053,-7.93e-4 0.16962,-1.7e-4 0.33924,-2.65e-4 0.50886,-5.3e-4 0.14464,-1.07e-4 0.28927,-1.65e-4 0.43391,-2.3e-4 0.11727,-7.1e-5 0.23455,-4.5e-4 0.35182,-5.55e-4 0.10161,-5.4e-5 0.20321,-3.4e-5 0.30481,1.5e-5 0.0981,-2.8e-5 0.19616,-9.9e-5 0.29424,-1.63e-4 0.0875,-4.2e-5 0.17499,-1.32e-4 0.26248,-1.05e-4 0.0814,4e-6 0.16275,-7.4e-5 0.24412,-1.45e-4 0.0647,-1.03e-4 0.12943,-2.57e-4 0.19415,-2.33e-4 0.0631,3.7e-5 0.12609,7.3e-5 0.18913,2.5e-5 0.057,1.8e-5 0.11396,-1.04e-4 0.17094,-1.69e-4 0.0368,-5.8e-5 0.0735,-3.18e-4 0.11032,-3.18e-4 0.048,1.95e-4 0.096,3.18e-4 0.14394,5.03e-4 0.0761,2.64e-4 0.15223,2.53e-4 0.22834,2.15e-4 0.0625,10e-7 0.125,-2.05e-4 0.1875,-4.5e-4 0.0392,-2.91e-4 0.0785,-1.17e-4 0.11772,-6e-5 0.0455,1.33e-4 0.0909,1.9e-5 0.13638,-1.3e-5 0.0324,-6.5e-5 0.0649,-1.79e-4 0.0973,-2.41e-4 0.0233,-2.64e-4 0.0458,-0.0038 0.0641,0.01288 0.013,0.01635 0.0193,0.03536 0.0264,0.05467 0.0161,0.03967 0.031,0.07975 0.0429,0.120907 0.01,0.0363 0.0198,0.07256 0.0335,0.107649 0.003,0.01144 0.009,0.02194 0.014,0.03263 0,0 -0.0906,0.05132 -0.0906,0.05132 v 0 c -0.005,-0.01098 -0.0108,-0.02176 -0.014,-0.03351 -0.0135,-0.03557 -0.0233,-0.07216 -0.0333,-0.108826 -0.0113,-0.04095 -0.0262,-0.08073 -0.0431,-0.119728 -0.007,-0.01736 -0.0124,-0.03496 -0.0243,-0.04977 -0.017,-0.01231 -0.04,-0.0057 -0.0596,-0.0072 -0.0322,-6.2e-5 -0.0644,-1.76e-4 -0.0966,-2.4e-4 -0.0455,-3.3e-5 -0.0909,-1.47e-4 -0.13635,-1.3e-5 -0.0392,5.6e-5 -0.0784,2.38e-4 -0.11755,-6.1e-5 -0.0621,-2.48e-4 -0.12417,-4.5e-4 -0.18626,-4.5e-4 -0.0763,-3.8e-5 -0.15262,-4.9e-5 -0.22893,2.15e-4 -0.0484,1.64e-4 -0.0969,2.91e-4 -0.14529,5.03e-4 -0.0365,1.4e-5 -0.073,-2.54e-4 -0.10947,-3.18e-4 -0.0568,-6.4e-5 -0.11364,-1.86e-4 -0.17046,-1.68e-4 -0.0631,-4.9e-5 -0.12614,-1.2e-5 -0.18921,2.4e-5 -0.0645,2.3e-5 -0.129,-1.29e-4 -0.19351,-2.32e-4 -0.0812,-7.1e-5 -0.16248,-1.49e-4 -0.24372,-1.45e-4 -0.0874,2.7e-5 -0.17479,-6.3e-5 -0.26219,-1.05e-4 -0.0979,-6.4e-5 -0.19586,-1.35e-4 -0.29378,-1.64e-4 -0.10162,5e-5 -0.20324,7e-5 -0.30485,1.5e-5 -0.11678,-9.1e-5 -0.23356,-4.73e-4 -0.35034,-5.53e-4 -0.14442,-6.6e-5 -0.28885,-1.24e-4 -0.43327,-2.3e-4 -0.16914,-2.53e-4 -0.33828,-3.44e-4 -0.50742,-5.29e-4 -0.21278,-3.17e-4 -0.42557,-7.14e-4 -0.63836,-7.94e-4 -0.22694,-1.8e-5 -0.45388,3.18e-4 -0.68082,6.35e-4 -0.17539,2.3e-5 -0.35077,-1.17e-4 -0.52616,-2.1e-5 -0.0946,1.42e-4 -0.19002,-0.0029 -0.28414,0.0074 -0.005,0.0016 -0.0209,0.0081 -0.0162,0.0049 0.0244,-0.01667 0.0504,-0.03075 0.0758,-0.04571 0.004,-0.0022 -0.008,0.0045 -0.011,0.0076 -0.0133,0.01265 -0.0192,0.03149 -0.0275,0.04717 -0.0291,0.05709 -0.0579,0.114322 -0.087,0.17141 -0.0254,0.05281 -0.0464,0.107682 -0.0742,0.159308 0,0 -0.0955,0.04177 -0.0955,0.04177 z"
           id="path2606-1"
           style="opacity:1;fill:none;fill-opacity:1;fill-rule:evenodd;stroke:#000000;stroke-width:0.15000001;stroke-linecap:round;stroke-linejoin:round;stroke-miterlimit:4;stroke-dasharray:none;stroke-dashoffset:0;stroke-opacity:1" />
        <path
           d="m 104.62584,-11.537896 c 0.0669,0.0067 0.13422,0.008 0.20141,0.0094 0.0907,0.0014 0.18143,0.0016 0.27214,0.0017 0.10831,1.12e-4 0.21661,6.3e-5 0.32492,8.9e-5 0.10333,9.1e-5 0.20665,-2.06e-4 0.30998,-3.18e-4 0.0791,-1.54e-4 0.15817,-1.82e-4 0.23725,-3.44e-4 0.0515,-8.8e-5 0.103,-3.17e-4 0.1545,-4.76e-4 0.0367,-2.6e-5 0.0733,-9e-6 0.11001,-8.1e-5 0.0305,2.5e-5 0.0609,-5.9e-5 0.0914,-1.06e-4 0.0225,1.2e-5 0.045,-9.9e-5 0.0675,-1.07e-4 0.0185,-5e-6 0.0371,1.9e-5 0.0556,-4.8e-5 0.0187,0 0.0374,5.2e-5 0.0561,7.6e-5 0.0358,1.17e-4 0.0715,3.17e-4 0.10728,4.5e-4 0.0655,1.85e-4 0.13098,2.64e-4 0.19647,3.7e-4 0.0919,1.17e-4 0.18372,3.71e-4 0.27559,4.23e-4 0.1159,2.01e-4 0.23181,2.38e-4 0.34772,2.65e-4 0.113,-4.5e-5 0.226,-1.14e-4 0.339,-2.35e-4 0.11018,-6.3e-5 0.22035,1.74e-4 0.33054,1.39e-4 0.0776,-2.28e-4 0.15525,7e-6 0.23287,-0.0012 0,0 -0.0836,0.06077 -0.0836,0.06077 v 0 c -0.0765,-0.0012 -0.15309,-9.26e-4 -0.22963,-0.0012 -0.11031,-3.4e-5 -0.22062,2.04e-4 -0.33092,1.4e-4 -0.11278,-1.22e-4 -0.22557,-1.9e-4 -0.33835,-2.35e-4 -0.11615,2.8e-5 -0.23231,6.5e-5 -0.34846,2.65e-4 -0.0923,5.1e-5 -0.18449,2.91e-4 -0.27674,4.23e-4 -0.0658,1.07e-4 -0.13166,1.9e-4 -0.19749,3.7e-4 -0.0362,1.16e-4 -0.0723,3.18e-4 -0.10849,4.5e-4 -0.0188,2.4e-5 -0.0375,7.5e-5 -0.0563,7.6e-5 -0.0185,-6.8e-5 -0.037,-4.2e-5 -0.0555,-4.8e-5 -0.0224,-8e-6 -0.0448,-1.19e-4 -0.0672,-1.07e-4 -0.0304,-4.7e-5 -0.0607,-1.31e-4 -0.0911,-1.06e-4 -0.0366,-7.2e-5 -0.0732,-5.5e-5 -0.10979,-8.1e-5 -0.0511,-1.62e-4 -0.10214,-3.7e-4 -0.15322,-4.76e-4 -0.0788,-1.53e-4 -0.15755,-1.81e-4 -0.23633,-3.44e-4 -0.10306,-1.05e-4 -0.20612,-3.97e-4 -0.30918,-2.65e-4 -0.10844,6.8e-5 -0.21688,1.07e-4 -0.32532,1.93e-4 -0.0911,10e-7 -0.18218,3.71e-4 -0.27326,-0.0011 -0.0681,-0.0015 -0.13622,-0.0031 -0.20413,-0.0086 0,0 0.0848,-0.06016 0.0848,-0.06016 z"
           id="path2671"
           style="opacity:1;fill:none;fill-opacity:1;fill-rule:evenodd;stroke:#000000;stroke-width:0.14999999;stroke-linecap:round;stroke-linejoin:round;stroke-miterlimit:4;stroke-dasharray:none;stroke-dashoffset:0;stroke-opacity:1" />
        <path
           d="m 106.47638,-11.47345 c -0.002,0.07844 -0.002,0.156902 -0.002,0.235353 -0.002,0.125432 0.006,0.25064 0.0174,0.375449 0.0163,0.135272 0.0326,0.270486 0.0427,0.406375 0.007,0.09946 0.009,0.199175 0.0108,0.29885 5.3e-4,0.05543 8e-4,0.110861 8e-4,0.1662919 1.5e-4,0.034405 4e-5,0.068809 6e-5,0.1032136 -2e-5,0.035005 -1.3e-4,0.070009 -4e-5,0.1050137 -5.3e-4,0.027523 0.002,0.055188 -8e-4,0.082635 0,0 -0.0934,0.04608 -0.0934,0.04608 v 0 c 0.005,-0.026859 2.6e-4,-0.054612 0.002,-0.081739 8e-5,-0.034994 -3e-5,-0.069988 -3e-5,-0.1049827 5e-5,-0.034485 2e-5,-0.068969 2.6e-4,-0.1034521 2.7e-4,-0.055653 10e-4,-0.1113064 8e-4,-0.1669614 -1.8e-4,-0.0999 -0.002,-0.199835 -0.008,-0.299561 -0.01,-0.135933 -0.0258,-0.271154 -0.0421,-0.406418 -0.0122,-0.124783 -0.0208,-0.249963 -0.0195,-0.375436 -2.7e-4,-0.07784 -2.7e-4,-0.155692 -0.002,-0.233521 0,0 0.0926,-0.04719 0.0926,-0.04719 z"
           id="path2673"
           style="opacity:1;fill:none;fill-opacity:1;fill-rule:evenodd;stroke:#000000;stroke-width:0.14999999;stroke-linecap:round;stroke-linejoin:round;stroke-miterlimit:4;stroke-dasharray:none;stroke-dashoffset:0;stroke-opacity:1" />
        <path
           d="m 105.1773,-11.37939 c -0.009,0.09337 -0.0147,0.187089 -0.0188,0.280823 -0.006,0.169299 -0.006,0.33872 -0.007,0.508101 -1.5e-4,0.148869 2.7e-4,0.297739 0.001,0.446607 0.002,0.08903 -0.004,0.1783792 -0.025,0.2650117 -0.0104,0.034732 -0.0281,0.066607 -0.0376,0.1015953 -0.007,0.022169 -0.002,0.044135 0.001,0.066371 0.003,0.026442 0.004,0.053095 0.005,0.079717 0.001,0.020656 -0.003,0.041007 -0.006,0.061315 0,0 -0.0934,0.045856 -0.0934,0.045856 v 0 c 0.003,-0.019846 0.008,-0.039654 0.007,-0.059788 -5.3e-4,-0.026212 -0.001,-0.052474 -0.005,-0.078508 -0.003,-0.023373 -0.009,-0.046629 -0.003,-0.070105 0.009,-0.035907 0.0268,-0.067996 0.0395,-0.1024969 0.0233,-0.085917 0.0299,-0.1751881 0.0288,-0.2640251 5.3e-4,-0.149304 0.001,-0.29861 0.001,-0.447915 5.3e-4,-0.169164 5.3e-4,-0.338355 0.005,-0.507476 0.003,-0.09306 0.008,-0.185982 0.0133,-0.278922 0,0 0.0931,-0.04616 0.0931,-0.04616 z"
           id="path2675"
           style="opacity:1;fill:none;fill-opacity:1;fill-rule:evenodd;stroke:#000000;stroke-width:0.14999999;stroke-linecap:round;stroke-linejoin:round;stroke-miterlimit:4;stroke-dasharray:none;stroke-dashoffset:0;stroke-opacity:1" />
        <path
           d="m 102.64304,-9.5672136 c 0.10838,0.0018 0.21678,0.002 0.32517,0.0024 0.16466,5.24e-4 0.32931,3.57e-4 0.49397,-1.89e-4 0.072,0.0041 0.1478,-0.01067 0.21826,0.0096 0.009,0.0055 0.0118,0.0057 0.0157,0.01617 0.008,0.02101 0.006,0.08028 0.007,0.102911 0.005,0.128278 0.0228,0.2555272 0.0457,0.3817207 0.0333,0.1594079 0.0577,0.320385 0.0741,0.4823487 0.0105,0.111363 0.0134,0.2232366 0.0145,0.335028 5.3e-4,0.078097 5.3e-4,0.1561967 5.3e-4,0.2342954 -0.001,0.046292 0.003,0.092816 -0.002,0.1389322 -0.003,0.00811 -0.004,0.016466 -0.0124,0.021183 -0.0415,0.022721 -0.0826,0.046475 -0.12643,0.064262 -0.008,0.00338 -0.0179,-0.0011 -0.0269,-0.00201 -0.0251,-0.00256 -0.0642,-0.00819 -0.0878,-0.011439 -0.14544,-0.022501 -0.29242,-0.031382 -0.43931,-0.037418 -0.0992,-0.00358 -0.19858,-0.00416 -0.29788,-0.00384 -0.0393,2.146e-4 -0.0786,7.223e-4 -0.11789,9.948e-4 -0.0238,0.00243 -0.0464,-0.00203 -0.0696,-0.00602 -0.038,-0.00402 -0.0757,-0.00965 -0.11379,-0.013062 -0.0335,-0.00295 -0.0674,6.773e-4 -0.0981,-0.014934 -0.0209,-0.024188 -0.008,-0.075108 -0.004,-0.1034255 0.0177,-0.1041504 0.0376,-0.207933 0.0561,-0.3119445 0.0238,-0.1284119 0.0441,-0.2574111 0.0583,-0.3872516 0.0147,-0.1023196 0.0264,-0.2049363 0.0326,-0.3081258 0.004,-0.06748 0.004,-0.1350647 0.004,-0.2026192 -1.7e-4,-0.033754 -5.3e-4,-0.067508 -7.9e-4,-0.1012612 0,0 0.11275,-0.05749 0.11275,-0.05749 v 0 c -1.2e-4,0.03397 -1.5e-4,0.06794 -2.7e-4,0.1019102 -5.3e-4,0.068109 -0.002,0.1362367 -0.005,0.2042556 -0.007,0.1037005 -0.0188,0.2068125 -0.0341,0.309585 -0.0146,0.1300771 -0.0349,0.2593535 -0.0583,0.3881339 -0.0178,0.1031694 -0.0366,0.2061905 -0.0526,0.3096443 -10e-4,0.011444 -0.0104,0.073288 -0.005,0.085128 5.3e-4,0.00137 0.002,0.00213 0.003,0.00319 0.0296,0.012771 0.0629,0.00767 0.0942,0.012231 0.0386,0.0037 0.077,0.00867 0.11552,0.013042 0.0226,0.00388 0.0451,0.00564 0.0681,0.00437 0.0386,1.94e-5 0.0773,1.669e-4 0.11592,5.345e-4 0.0981,9.525e-4 0.19614,0.00289 0.29412,0.00717 0.14777,0.00696 0.29546,0.016786 0.44215,0.036576 0.023,0.00256 0.0647,0.00781 0.0896,0.00867 0.009,3.043e-4 0.033,-0.00647 0.0264,-7.249e-4 -0.0277,0.023926 -0.0625,0.038014 -0.0929,0.058322 -0.003,0.00215 0.008,-0.00143 0.011,-0.00364 0.003,-0.00187 0.004,-0.00533 0.006,-0.008 0.008,-0.045701 0.003,-0.092363 0.005,-0.1385415 2.6e-4,-0.078295 10e-4,-0.1565893 10e-4,-0.2348851 -5.3e-4,-0.1119298 -0.002,-0.2239475 -0.0111,-0.3355589 -0.0147,-0.1619517 -0.0384,-0.3228487 -0.0728,-0.4818699 -0.0239,-0.1258481 -0.0429,-0.2527136 -0.0513,-0.3806292 -0.007,-0.11256 0.002,0.02912 -0.004,-0.06447 -2.6e-4,-0.0041 -8e-4,-0.02453 -0.003,-0.03112 -0.002,-0.0058 -0.005,-0.0061 -0.0102,-0.0086 -0.0681,-0.01841 -0.14084,-0.0067 -0.21026,-0.01114 -0.16448,-5.51e-4 -0.32896,-7.09e-4 -0.49344,-1.9e-4 -0.11056,3.55e-4 -0.22113,5.77e-4 -0.33168,0.0024 0,0 0.10264,-0.07457 0.10264,-0.07457 z"
           id="path1909-5"
           style="opacity:1;fill:#000000;fill-opacity:1;fill-rule:evenodd;stroke:#000000;stroke-width:0.1;stroke-linecap:round;stroke-linejoin:bevel;stroke-miterlimit:4;stroke-dasharray:none;stroke-dashoffset:0;stroke-opacity:1" />
        <path
           d="m 102.94488,-9.7231746 c 0.063,-0.01484 0.12691,-0.0251 0.19108,-0.03329 0.0437,-0.0034 0.0881,-0.01215 0.13201,-0.0078 0.0247,0.0056 0.0414,0.02384 0.0564,0.04295 0.002,0.0031 0.005,0.0062 0.007,0.0093 0,0 -0.10918,0.06518 -0.10918,0.06518 v 0 c -0.002,-0.0031 -0.005,-0.0061 -0.007,-0.0092 -0.0135,-0.01661 -0.0277,-0.03203 -0.0503,-0.03444 -0.043,-0.0017 -0.0859,0.0041 -0.12852,0.0083 -0.0648,0.0084 -0.12925,0.0196 -0.19259,0.03586 0,0 0.1011,-0.07688 0.1011,-0.07688 z"
           id="path1911-9"
           style="opacity:1;fill:#000000;fill-opacity:1;fill-rule:evenodd;stroke:#000000;stroke-width:0.1;stroke-linecap:round;stroke-linejoin:bevel;stroke-miterlimit:4;stroke-dasharray:none;stroke-dashoffset:0;stroke-opacity:1" />
      </g>
      <rect
         style="opacity:1;fill:none;fill-opacity:1;fill-rule:evenodd;stroke:none;stroke-width:0.05;stroke-linecap:round;stroke-linejoin:round;stroke-miterlimit:4;stroke-dasharray:none;stroke-dashoffset:0;stroke-opacity:1"
         id="rect2926-8-4"
         width="9.260417"
         height="7.9375"
         x="0.025"
         y="289.03751" />
    </g>
  </g>
</svg>
