<?xml version="1.0" encoding="UTF-8" standalone="no"?>
<svg
   xmlns:dc="http://purl.org/dc/elements/1.1/"
   xmlns:cc="http://creativecommons.org/ns#"
   xmlns:rdf="http://www.w3.org/1999/02/22-rdf-syntax-ns#"
   xmlns:svg="http://www.w3.org/2000/svg"
   xmlns="http://www.w3.org/2000/svg"
   id="svg4288"
   version="1.1"
   viewBox="0 0 9.260417 7.9375"
   height="7.9375mm"
   width="9.260417mm">
  <defs
     id="defs4282" />
  <metadata
     id="metadata4285">
    <rdf:RDF>
      <cc:Work
         rdf:about="">
        <dc:format>image/svg+xml</dc:format>
        <dc:type
           rdf:resource="http://purl.org/dc/dcmitype/StillImage" />
        <dc:title></dc:title>
      </cc:Work>
    </rdf:RDF>
  </metadata>
  <g
     transform="translate(-0.025,-289.03751)"
     id="layer1">
    <g
       id="g4867">
      <g
         id="g2565"
         transform="translate(-102.36876,324.08958)">
        <path
           d="m 103.23889,-32.360061 c 0.21066,-0.02641 0.42369,-0.02687 0.63567,-0.03026 0.49522,-0.0045 0.99047,-0.0026 1.48571,-0.0023 0.58021,6.88e-4 1.16043,3.18e-4 1.74064,-7.41e-4 0.41024,-9.52e-4 0.82048,-0.0027 1.23072,-0.0035 0.26502,-6.08e-4 0.53003,-0.0016 0.79505,-0.0023 0.176,0.0029 0.35161,-0.002 0.52727,-0.01226 0.0756,-0.0052 0.15124,-0.0086 0.22688,-0.01261 0,0 -0.2011,0.147351 -0.2011,0.147351 v 0 c -0.0741,0.002 -0.14814,0.0059 -0.22218,0.0096 -0.17474,0.0087 -0.34943,0.01149 -0.5244,0.0086 -0.26292,-7.14e-4 -0.52584,-0.0017 -0.78876,-0.0023 -0.40697,-7.67e-4 -0.81393,-0.0026 -1.2209,-0.0037 -0.5794,-0.0013 -1.1588,-0.002 -1.7382,-10e-4 -0.49928,9.53e-4 -0.99861,0.0015 -1.49781,0.0117 -0.21658,0.0061 -0.43433,0.0095 -0.64888,0.04264 0,0 0.20029,-0.148932 0.20029,-0.148932 z"
           id="path3803-7-7"
           style="opacity:1;fill:#000000;fill-opacity:1;fill-rule:evenodd;stroke:#000000;stroke-width:0.1;stroke-linecap:round;stroke-linejoin:bevel;stroke-miterlimit:4;stroke-dasharray:none;stroke-dashoffset:0;stroke-opacity:1" />
        <path
           d="m 104.3759,-32.267104 c 0.008,0.169226 0.0362,0.336617 0.0628,0.503643 0.045,0.236732 0.0989,0.47167 0.14934,0.70727 0.0546,0.251405 0.11195,0.501649 0.14976,0.756253 0.0317,0.246738 0.0395,0.495686 0.0449,0.744135 0.003,0.134882 0.004,0.269784 0.004,0.404694 0,0.09075 -4.3e-4,0.181492 -2e-4,0.272238 -1.6e-4,0.07403 2.3e-4,0.148063 6e-4,0.222092 2.7e-4,0.05013 3.7e-4,0.100266 4e-4,0.150399 3e-5,0.04577 2e-5,0.09154 2e-5,0.137315 0,0.04587 0,0.09174 0,0.137612 0,0.04594 0,0.09189 0,0.137833 0,0.04595 0,0.0919 0,0.137844 0.001,0.03931 -0.0176,0.0729 -0.0307,0.108562 -0.0112,0.03124 -0.0112,0.06464 -0.0194,0.09653 -0.001,0.0038 -0.002,0.0075 -0.004,0.01132 0,0 -0.228,0.105634 -0.228,0.105634 v 0 c 0.002,-0.0033 0.003,-0.0067 0.005,-0.01002 0.0123,-0.03149 0.0105,-0.06439 0.0198,-0.09677 0.01,-0.0351 0.0308,-0.06509 0.0346,-0.101823 0,-0.04595 0,-0.0919 0,-0.137844 0,-0.04594 0,-0.09189 0,-0.137833 0,-0.04587 0,-0.09174 0,-0.137607 0,-0.04578 -1e-5,-0.09156 2e-5,-0.137334 4e-5,-0.05027 1.3e-4,-0.100539 3.9e-4,-0.150807 3.7e-4,-0.07426 7.7e-4,-0.148531 7.2e-4,-0.222797 4e-4,-0.09092 2.5e-4,-0.181834 0.001,-0.272748 10e-4,-0.135805 0.003,-0.271611 0.002,-0.407425 -0.003,-0.248063 -0.008,-0.496646 -0.0404,-0.742994 -0.037,-0.254127 -0.096,-0.503328 -0.15051,-0.754118 -0.0503,-0.235917 -0.10367,-0.471211 -0.15076,-0.707803 -0.0282,-0.166066 -0.0573,-0.332235 -0.0729,-0.500071 0,0 0.22095,-0.115366 0.22095,-0.115366 z"
           id="path3805-3-1"
           style="opacity:1;fill:#000000;fill-opacity:1;fill-rule:evenodd;stroke:#000000;stroke-width:0.1;stroke-linecap:round;stroke-linejoin:bevel;stroke-miterlimit:4;stroke-dasharray:none;stroke-dashoffset:0;stroke-opacity:1" />
        <path
           d="m 108.58012,-32.316 c 0.0125,0.131917 0.0105,0.264156 0.002,0.396216 -0.0137,0.161119 -0.0427,0.320201 -0.0718,0.479061 -0.0372,0.174716 -0.067,0.350877 -0.10204,0.526021 -0.0343,0.198736 -0.0737,0.396581 -0.10729,0.595425 -0.041,0.218729 -0.0857,0.436714 -0.1213,0.656416 -0.0241,0.162614 -0.0452,0.325447 -0.0563,0.489484 -0.0108,0.128953 -0.007,0.257076 0.008,0.38532 0.0123,0.119244 0.055,0.231121 0.0926,0.343888 0.0289,0.09832 0.068,0.193302 0.0957,0.291924 0.0201,0.08375 0.054,0.163104 0.087,0.242374 0.0217,0.06516 0.0501,0.129028 0.0627,0.196785 0.002,0.026 0.002,0.01349 2.6e-4,0.03753 0,0 -0.22608,0.108738 -0.22608,0.108738 v 0 c 0.008,-0.01688 0.005,-0.0072 0.005,-0.0296 -0.008,-0.06664 -0.0388,-0.128776 -0.058,-0.192522 -0.0332,-0.08031 -0.0678,-0.160486 -0.0883,-0.245181 -0.0265,-0.09864 -0.0643,-0.193834 -0.0936,-0.291637 -0.0376,-0.114501 -0.0813,-0.227731 -0.0942,-0.348611 -0.0154,-0.129739 -0.022,-0.259252 -0.01,-0.389769 0.0112,-0.165489 0.0339,-0.329519 0.0592,-0.49341 0.036,-0.219739 0.0813,-0.43769 0.1216,-0.656646 0.0325,-0.198874 0.0721,-0.396545 0.10519,-0.595344 0.0358,-0.174591 0.0637,-0.35063 0.10084,-0.524949 0.0291,-0.158091 0.0587,-0.316238 0.0732,-0.476509 0.008,-0.129739 0.0111,-0.260051 -0.007,-0.389234 0,0 0.22112,-0.115766 0.22112,-0.115766 z"
           id="path3807-6-1"
           style="opacity:1;fill:#000000;fill-opacity:1;fill-rule:evenodd;stroke:#000000;stroke-width:0.1;stroke-linecap:round;stroke-linejoin:bevel;stroke-miterlimit:4;stroke-dasharray:none;stroke-dashoffset:0;stroke-opacity:1" />
        <path
           d="m 103.2304,-32.464335 c -0.37502,0.230007 -0.11083,0.05868 -0.0269,-0.0021 0.0911,-0.05977 0.18852,-0.111068 0.28289,-0.164327 0.0649,-0.03665 -0.12935,0.07424 -0.19416,0.111115 -0.001,7.68e-4 0.0114,-0.0069 0.037,-0.02229 0.10185,-0.08069 0.21316,-0.123016 0.32502,-0.177114 0.0859,-0.05226 -0.0106,0.0067 -0.17401,0.09883 -0.007,0.0041 0.0141,-0.009 0.0212,-0.01348 0.022,-0.014 0.0442,-0.0276 0.0666,-0.04092 0.11518,-0.07719 0.22277,-0.140518 0.35284,-0.174255 0.0513,-0.01876 0.10211,-0.038 0.1542,-0.05455 0.0691,-0.01468 0.13781,-0.03071 0.20779,-0.04061 0.0569,-0.0068 0.11209,-0.02164 0.1692,-0.02724 0.0757,-0.0048 0.15058,-0.01947 0.22437,-0.03655 0.0812,-0.01595 0.16234,-0.03199 0.2439,-0.04593 0.0744,-0.01158 0.14975,-0.01282 0.22487,-0.01382 0.097,-5.82e-4 0.19403,-1.84e-4 0.29104,1.39e-4 0.13312,5.03e-4 0.26623,6.62e-4 0.39934,9e-4 0.15549,1.5e-4 0.31098,2.64e-4 0.46647,1.61e-4 0.1397,-2.46e-4 0.2794,-3.97e-4 0.41911,-3.97e-4 0.14166,-2.17e-4 0.28333,1.93e-4 0.425,4.51e-4 0.17936,5.28e-4 0.35872,4.76e-4 0.53808,3.96e-4 0.16224,0.0017 0.32281,0.02643 0.48347,0.04636 0.0962,0.0097 0.1913,0.02766 0.28752,0.03761 0.0589,0.01083 0.11683,0.02692 0.17413,0.04428 0.0582,0.01479 0.11658,0.02938 0.17565,0.04007 0.0519,0.0074 0.10169,0.02361 0.1537,0.03082 0.0492,0.0078 0.0913,0.03399 0.13662,0.05256 0.0408,0.01429 0.0803,0.03216 0.12072,0.04762 0.0443,0.01525 0.0882,0.03457 0.1295,0.05676 0.0236,0.01378 0.0502,0.01921 0.0747,0.03052 0,0 -0.20831,0.138835 -0.20831,0.138835 v 0 c -0.0255,-0.01 -0.0516,-0.01837 -0.0754,-0.03225 -0.0417,-0.02046 -0.084,-0.04013 -0.12815,-0.05456 -0.0403,-0.01611 -0.0803,-0.03286 -0.12082,-0.04845 -0.0434,-0.01917 -0.0854,-0.04148 -0.13334,-0.04735 -0.0515,-0.009 -0.10139,-0.0249 -0.15321,-0.03213 -0.0595,-0.01186 -0.11876,-0.02542 -0.17714,-0.04191 -0.0566,-0.01573 -0.11306,-0.03282 -0.17133,-0.04112 -0.095,-0.01194 -0.18899,-0.0301 -0.28417,-0.04039 -0.15917,-0.02122 -0.31856,-0.04467 -0.47952,-0.04537 -0.17972,-7.3e-5 -0.35944,-1.29e-4 -0.53916,3.97e-4 -0.14209,2.65e-4 -0.28418,6.88e-4 -0.42627,4.5e-4 -0.13934,-3e-6 -0.27869,-1.43e-4 -0.41803,-3.97e-4 -0.15562,-1.04e-4 -0.31124,1.4e-5 -0.46685,1.16e-4 -0.13376,1.86e-4 -0.26752,2.57e-4 -0.40127,4.76e-4 -0.0974,1.34e-4 -0.19482,-1.72e-4 -0.29222,0.0013 -0.0746,0.0017 -0.14931,0.0043 -0.22294,0.01716 -0.081,0.01443 -0.16203,0.02908 -0.24249,0.0463 -0.0751,0.01605 -0.15085,0.02999 -0.22758,0.03581 -0.0563,0.0078 -0.11155,0.02124 -0.16807,0.0274 -0.0691,0.01109 -0.13788,0.02581 -0.20542,0.04406 -0.052,0.0177 -0.1031,0.03816 -0.15564,0.05439 -0.0967,0.03014 -0.29804,0.130355 0.0777,-0.0679 -0.11274,0.06901 -0.22579,0.138651 -0.34227,0.200976 -0.0901,0.03927 -0.26884,0.144102 0.10386,-0.06891 -0.13496,0.08805 -0.49877,0.289881 -0.0794,0.04666 0.016,-0.0093 -0.0653,0.03888 -0.048,0.02797 -0.12921,0.08996 -0.25366,0.184279 -0.39876,0.250655 0,0 0.19431,-0.157202 0.19431,-0.157202 z"
           id="path3809-1-5"
           style="opacity:1;fill:#000000;fill-opacity:1;fill-rule:evenodd;stroke:#000000;stroke-width:0.1;stroke-linecap:round;stroke-linejoin:bevel;stroke-miterlimit:4;stroke-dasharray:none;stroke-dashoffset:0;stroke-opacity:1" />
        <path
           d="m 104.91757,-29.50363 c 0.14817,0.01474 0.29729,0.01672 0.44606,0.01943 0.27178,0.0039 0.54359,0.0043 0.81539,0.0047 0.30644,7.41e-4 0.61288,1.5e-5 0.91931,-0.0011 0.15273,-3.7e-4 0.30544,-0.002 0.45816,-0.0033 0.0538,-5.02e-4 0.10754,-6.61e-4 0.16131,-7.14e-4 0.0414,8e-5 0.0827,-1.4e-4 0.12411,-1.36e-4 0.0267,-9.9e-5 0.0535,-1.36e-4 0.0802,-1.3e-4 0,0 -0.2029,0.147416 -0.2029,0.147416 v 0 c -0.0266,5e-6 -0.0532,-3.1e-5 -0.0798,-1.31e-4 -0.0413,4e-6 -0.0825,-2.17e-4 -0.12374,-1.37e-4 -0.0531,-5.2e-5 -0.10623,-2.11e-4 -0.15935,-7.14e-4 -0.14973,-0.0013 -0.29947,-0.0029 -0.44921,-0.0032 -0.30552,-10e-4 -0.61103,-0.0016 -0.91655,-9e-4 -0.27381,2.03e-4 -0.54764,0.0013 -0.82145,-7.67e-4 -0.15175,-0.002 -0.30366,-0.0041 -0.45504,-0.01585 0,0 0.20353,-0.144463 0.20353,-0.144463 z"
           id="path3811-2-9"
           style="opacity:1;fill:#000000;fill-opacity:1;fill-rule:evenodd;stroke:#000000;stroke-width:0.1;stroke-linecap:round;stroke-linejoin:bevel;stroke-miterlimit:4;stroke-dasharray:none;stroke-dashoffset:0;stroke-opacity:1" />
        <path
           d="m 107.83678,-27.64388 c 0.035,0.0013 0.07,0.0013 0.10495,0.0011 0.037,-0.0053 0.0735,-0.02667 0.11006,-0.04419 0.0384,-0.01746 0.0773,-0.02188 0.11609,-0.02479 0.0352,-0.0021 0.0704,-0.0019 0.10558,-0.0016 0.0454,5.29e-4 0.0908,7.93e-4 0.13621,7.93e-4 0.0384,1.6e-5 0.0769,-2.64e-4 0.11531,-7.93e-4 0.0207,0.0019 0.0411,-0.01169 0.0617,-0.01849 0.0142,-0.0042 0.0285,-0.0055 0.0427,-0.0056 0.0206,2.3e-5 0.0412,2.46e-4 0.0618,5.29e-4 0.0175,2.11e-4 0.035,1.85e-4 0.0526,8.7e-5 0,0 -0.0548,0.121423 -0.0548,0.121423 v 0 c -0.0175,-1.33e-4 -0.035,-1.96e-4 -0.0526,-6.7e-5 -0.0207,8.2e-5 -0.0414,-3.7e-5 -0.0622,7.94e-4 -0.0141,7.94e-4 -0.0282,0.0024 -0.0422,0.0071 -0.0205,0.0074 -0.0409,0.01844 -0.0616,0.0154 -0.0382,-5.29e-4 -0.0764,-7.94e-4 -0.11462,-7.94e-4 -0.0455,-2.17e-4 -0.0911,-7.9e-5 -0.13665,1.96e-4 -0.0351,10e-5 -0.0703,-2.46e-4 -0.10539,0.0019 -0.0387,0.0032 -0.0774,0.0085 -0.11561,0.02709 -0.0366,0.01804 -0.0734,0.03847 -0.11056,0.04131 -0.0353,-1.8e-5 -0.0707,-10e-5 -0.10601,0.0011 0,0 0.0552,-0.122368 0.0552,-0.122368 z"
           id="path2500"
           style="opacity:1;fill:#000000;fill-opacity:1;fill-rule:evenodd;stroke:#000000;stroke-width:0.15171215;stroke-linecap:round;stroke-linejoin:bevel;stroke-miterlimit:4;stroke-dasharray:none;stroke-dashoffset:0;stroke-opacity:1" />
      </g>
      <path
         style="opacity:1;fill:#000000;fill-opacity:1;fill-rule:evenodd;stroke:#000000;stroke-width:0.1;stroke-linecap:round;stroke-linejoin:bevel;stroke-miterlimit:4;stroke-dasharray:none;stroke-dashoffset:0;stroke-opacity:1"
         id="path1885-5"
         d="m 7.4968764,294.47241 c -0.002,0.10373 -0.003,0.20749 -0.003,0.31124 0.002,0.20443 -0.005,0.40842 -0.0177,0.6124 -0.0163,0.22053 -0.0515,0.4393 -0.0952,0.65591 -0.0224,0.10268 -0.043,0.20576 -0.0653,0.30845 -0.004,0.0155 -0.008,0.0312 -0.009,0.0472 -2.1e-4,0.003 -0.002,0.008 5.3e-4,0.009 0.001,3.7e-4 0.002,-8e-4 0.003,-10e-4 0.0578,7.1e-4 0.11558,7.1e-4 0.17336,7.1e-4 0.11971,-3e-5 0.23943,-2e-4 0.35913,-3.4e-4 0.11473,-9.8e-4 0.22937,-10e-4 0.34389,0.007 0.0819,0.007 0.16333,0.0177 0.24466,0.0294 0.016,-4.3e-4 0.0335,0.004 0.0495,8.4e-4 0.002,-5.3e-4 0.005,-0.002 0.007,-0.003 10e-4,-10e-4 0.006,-0.005 0.004,-0.004 -0.0353,0.0199 -0.0702,0.0406 -0.10526,0.0608 5.3e-4,-0.003 0.002,-0.005 0.002,-0.008 -10e-4,-0.0203 -0.0105,-0.0427 -0.0162,-0.0617 -0.0133,-0.0438 -0.008,-0.0245 -0.02,-0.0718 -0.0214,-0.0785 -0.038,-0.15796 -0.0508,-0.23825 -0.012,-0.0745 -0.0243,-0.14903 -0.0319,-0.22417 -0.006,-0.0706 -0.007,-0.14144 -0.007,-0.21222 -1.8e-4,-0.0644 -2.7e-4,-0.12875 -5.3e-4,-0.19313 -1.1e-4,-0.0517 0,-0.10347 -4e-5,-0.1552 3e-5,-0.0464 -1.8e-4,-0.0927 -2e-4,-0.13908 1.3e-4,-0.0391 -1e-4,-0.0781 -2.6e-4,-0.11715 -1.5e-4,-0.0258 -2.1e-4,-0.0517 -2.3e-4,-0.0775 -0.002,-0.0217 0.002,-0.0426 0.007,-0.0638 0.002,-0.02 0.007,-0.0392 0.0115,-0.0586 0.005,-0.023 0.004,-0.0465 0.007,-0.0698 0.008,-0.0448 0.0187,-0.0891 0.026,-0.1341 7.9e-4,-0.007 0.002,-0.0132 0.003,-0.0198 0,0 0.11313,-0.0557 0.11313,-0.0557 v 0 c -0.001,0.007 -0.002,0.0134 -0.003,0.0202 -0.007,0.0446 -0.017,0.0887 -0.0255,0.13307 -0.003,0.0234 -0.002,0.0472 -0.006,0.0706 -0.004,0.0196 -0.0108,0.0383 -0.0116,0.0583 -0.003,0.0207 -0.01,0.0407 -0.008,0.0619 -2e-5,0.0259 -8e-5,0.0518 -2.3e-4,0.0777 -2.1e-4,0.0392 -5.3e-4,0.0783 -2.6e-4,0.11747 -2e-5,0.0464 -2.3e-4,0.0929 -2.1e-4,0.1393 -7e-5,0.0518 0,0.10358 -2.6e-4,0.15536 -2.7e-4,0.0645 -7.9e-4,0.12896 -5.3e-4,0.19344 5.3e-4,0.0705 10e-4,0.14101 0.007,0.21127 0.007,0.075 0.0192,0.14935 0.0312,0.22373 0.0126,0.0799 0.0282,0.15921 0.0502,0.23713 0.0119,0.0438 0.007,0.0297 0.0209,0.0705 0.007,0.021 0.0154,0.0427 0.0201,0.0644 7.9e-4,0.004 7.9e-4,0.009 10e-4,0.013 -0.10488,0.0676 -0.0857,0.0809 -0.17428,0.0698 -0.0802,-0.0129 -0.16064,-0.0237 -0.2416,-0.0303 -0.11402,-0.007 -0.22817,-0.008 -0.34239,-0.007 -0.12018,9e-5 -0.24036,2.5e-4 -0.36054,10e-4 -0.0161,1.7e-4 -0.0322,3.5e-4 -0.0483,5e-4 -0.0138,1.6e-4 -0.0276,3.2e-4 -0.0414,4.8e-4 -0.0257,2.6e-4 -0.0537,0.003 -0.0794,-6.1e-4 -0.004,-5.5e-4 -0.008,-0.002 -0.0121,-0.003 -0.003,-0.002 -0.006,-0.004 -0.008,-0.007 -0.0102,-0.0133 0.005,-0.0513 0.007,-0.0645 0.0265,-0.10328 0.0479,-0.20797 0.0728,-0.31167 0.0465,-0.2162 0.0827,-0.43506 0.0987,-0.65579 0.0123,-0.20295 0.018,-0.40593 0.013,-0.60926 -5.3e-4,-0.10262 -7.9e-4,-0.20525 -0.003,-0.30785 0,0 0.11305,-0.0576 0.11305,-0.0576 z" />
      <path
         style="opacity:1;fill:#000000;fill-opacity:1;fill-rule:evenodd;stroke:#000000;stroke-width:0.1;stroke-linecap:round;stroke-linejoin:bevel;stroke-miterlimit:4;stroke-dasharray:none;stroke-dashoffset:0;stroke-opacity:1"
         id="path1887-3"
         d="m 7.7408564,294.64877 c 0.0867,10e-4 0.17338,10e-4 0.26007,10e-4 0.0447,4e-5 0.0894,-2.5e-4 0.1341,-5.5e-4 0,0 -0.10021,0.0728 -0.10021,0.0728 v 0 c -0.0442,-3e-4 -0.0884,-5.9e-4 -0.1326,-5.6e-4 -0.0879,-10e-6 -0.17591,6e-5 -0.26386,0.001 0,0 0.1025,-0.0745 0.1025,-0.0745 z" />
      <rect
         style="opacity:1;fill:none;fill-opacity:1;fill-rule:evenodd;stroke:none;stroke-width:0.05;stroke-linecap:round;stroke-linejoin:round;stroke-miterlimit:4;stroke-dasharray:none;stroke-dashoffset:0;stroke-opacity:1"
         id="rect2926"
         width="9.260417"
         height="7.9375"
         x="0.025"
         y="289.03751" />
    </g>
  </g>
</svg>
