<?xml version="1.0" encoding="UTF-8" standalone="no"?>
<svg
   xmlns:dc="http://purl.org/dc/elements/1.1/"
   xmlns:cc="http://creativecommons.org/ns#"
   xmlns:rdf="http://www.w3.org/1999/02/22-rdf-syntax-ns#"
   xmlns:svg="http://www.w3.org/2000/svg"
   xmlns="http://www.w3.org/2000/svg"
   id="svg4925"
   version="1.1"
   viewBox="0 0 9.260417 7.9375"
   height="7.9375mm"
   width="9.260417mm">
  <defs
     id="defs4919" />
  <metadata
     id="metadata4922">
    <rdf:RDF>
      <cc:Work
         rdf:about="">
        <dc:format>image/svg+xml</dc:format>
        <dc:type
           rdf:resource="http://purl.org/dc/dcmitype/StillImage" />
        <dc:title></dc:title>
      </cc:Work>
    </rdf:RDF>
  </metadata>
  <g
     transform="translate(-0.025,-289.03751)"
     id="layer1">
    <g
       id="g5537">
      <g
         id="g2973"
         transform="translate(-101.38712,317.46663)">
        <path
           d="m 103.23889,-25.745477 c 0.21066,-0.02641 0.42369,-0.02687 0.63567,-0.03026 0.49522,-0.0045 0.99047,-0.0026 1.48571,-0.0023 0.58021,6.88e-4 1.16043,3.18e-4 1.74064,-7.41e-4 0.41024,-9.52e-4 0.82048,-0.0027 1.23072,-0.0035 0.26502,-6.08e-4 0.53003,-0.0016 0.79505,-0.0023 0.176,0.0029 0.35161,-0.002 0.52727,-0.01226 0.0756,-0.0052 0.15124,-0.0086 0.22688,-0.01261 0,0 -0.2011,0.147351 -0.2011,0.147351 v 0 c -0.0741,0.002 -0.14814,0.0059 -0.22218,0.0096 -0.17474,0.0087 -0.34943,0.01149 -0.5244,0.0086 -0.26292,-7.14e-4 -0.52584,-0.0017 -0.78876,-0.0023 -0.40697,-7.67e-4 -0.81393,-0.0026 -1.2209,-0.0037 -0.5794,-0.0013 -1.1588,-0.002 -1.7382,-0.001 -0.49928,9.53e-4 -0.99861,0.0015 -1.49781,0.0117 -0.21658,0.0061 -0.43433,0.0095 -0.64888,0.04264 0,0 0.20029,-0.148932 0.20029,-0.148932 z"
           id="path3803-7-7-3"
           style="opacity:1;fill:#000000;fill-opacity:1;fill-rule:evenodd;stroke:#000000;stroke-width:0.1;stroke-linecap:round;stroke-linejoin:bevel;stroke-miterlimit:4;stroke-dasharray:none;stroke-dashoffset:0;stroke-opacity:1" />
        <path
           d="m 104.3759,-25.65252 c 0.008,0.169226 0.0362,0.336617 0.0628,0.503643 0.045,0.236732 0.0989,0.47167 0.14934,0.70727 0.0546,0.251405 0.11195,0.501649 0.14976,0.756253 0.0317,0.246738 0.0395,0.495686 0.0449,0.744135 0.003,0.134882 0.004,0.269784 0.004,0.404694 0,0.09075 -4.3e-4,0.181492 -2e-4,0.272238 -1.6e-4,0.07403 2.3e-4,0.148063 6e-4,0.222092 2.7e-4,0.05013 3.7e-4,0.100266 4e-4,0.150399 3e-5,0.04577 2e-5,0.09154 2e-5,0.137315 0,0.04587 0,0.09174 0,0.137612 0,0.04594 0,0.09189 0,0.137833 0,0.04595 0,0.0919 0,0.137844 0.001,0.03931 -0.0176,0.0729 -0.0307,0.108562 -0.0112,0.03124 -0.0112,0.06464 -0.0194,0.09653 -0.001,0.0038 -0.002,0.0075 -0.004,0.01132 0,0 -0.228,0.105634 -0.228,0.105634 v 0 c 0.002,-0.0033 0.003,-0.0067 0.005,-0.01002 0.0123,-0.03149 0.0105,-0.06439 0.0198,-0.09677 0.01,-0.0351 0.0308,-0.06509 0.0346,-0.101823 0,-0.04595 0,-0.0919 0,-0.137844 0,-0.04594 0,-0.09189 0,-0.137833 0,-0.04587 0,-0.09174 0,-0.137607 0,-0.04578 -1e-5,-0.09156 2e-5,-0.137334 4e-5,-0.05027 1.3e-4,-0.100539 3.9e-4,-0.150807 3.7e-4,-0.07426 7.7e-4,-0.148531 7.2e-4,-0.222797 4e-4,-0.09092 2.5e-4,-0.181834 0.001,-0.272748 10e-4,-0.135805 0.003,-0.271611 0.002,-0.407425 -0.003,-0.248063 -0.008,-0.496646 -0.0404,-0.742994 -0.037,-0.254127 -0.096,-0.503328 -0.15051,-0.754118 -0.0503,-0.235917 -0.10367,-0.471211 -0.15076,-0.707803 -0.0282,-0.166066 -0.0573,-0.332235 -0.0729,-0.500071 0,0 0.22095,-0.115366 0.22095,-0.115366 z"
           id="path3805-3-1-9"
           style="opacity:1;fill:#000000;fill-opacity:1;fill-rule:evenodd;stroke:#000000;stroke-width:0.1;stroke-linecap:round;stroke-linejoin:bevel;stroke-miterlimit:4;stroke-dasharray:none;stroke-dashoffset:0;stroke-opacity:1" />
        <path
           d="m 108.58012,-25.701416 c 0.0125,0.131917 0.0105,0.264156 0.002,0.396216 -0.0137,0.161119 -0.0427,0.320201 -0.0718,0.479061 -0.0372,0.174716 -0.067,0.350877 -0.10204,0.526021 -0.0343,0.198736 -0.0737,0.396581 -0.10729,0.595425 -0.041,0.218729 -0.0857,0.436714 -0.1213,0.656416 -0.0241,0.162614 -0.0452,0.325447 -0.0563,0.489484 -0.0108,0.128953 -0.007,0.257076 0.008,0.38532 0.0123,0.119244 0.055,0.231121 0.0926,0.343888 0.0289,0.09832 0.068,0.193302 0.0957,0.291924 0.0201,0.08375 0.054,0.163104 0.087,0.242374 0.0217,0.06516 0.0501,0.129028 0.0627,0.196785 0.002,0.026 0.002,0.01349 2.6e-4,0.03753 0,0 -0.22608,0.108738 -0.22608,0.108738 v 0 c 0.008,-0.01688 0.005,-0.0072 0.005,-0.0296 -0.008,-0.06664 -0.0388,-0.128776 -0.058,-0.192522 -0.0332,-0.08031 -0.0678,-0.160486 -0.0883,-0.245181 -0.0265,-0.09864 -0.0643,-0.193834 -0.0936,-0.291637 -0.0376,-0.114501 -0.0813,-0.227731 -0.0942,-0.348611 -0.0154,-0.129739 -0.022,-0.259252 -0.01,-0.389769 0.0112,-0.165489 0.0339,-0.329519 0.0592,-0.49341 0.036,-0.219739 0.0813,-0.43769 0.1216,-0.656646 0.0325,-0.198874 0.0721,-0.396545 0.10519,-0.595344 0.0358,-0.174591 0.0637,-0.35063 0.10084,-0.524949 0.0291,-0.158091 0.0587,-0.316238 0.0732,-0.476509 0.008,-0.129739 0.0111,-0.260051 -0.007,-0.389234 0,0 0.22112,-0.115766 0.22112,-0.115766 z"
           id="path3807-6-1-4"
           style="opacity:1;fill:#000000;fill-opacity:1;fill-rule:evenodd;stroke:#000000;stroke-width:0.1;stroke-linecap:round;stroke-linejoin:bevel;stroke-miterlimit:4;stroke-dasharray:none;stroke-dashoffset:0;stroke-opacity:1" />
        <path
           d="m 104.91757,-22.889046 c 0.14817,0.01474 0.29729,0.01672 0.44606,0.01943 0.27178,0.0039 0.54359,0.0043 0.81539,0.0047 0.30644,7.41e-4 0.61288,1.5e-5 0.91931,-0.0011 0.15273,-3.7e-4 0.30544,-0.002 0.45816,-0.0033 0.0538,-5.02e-4 0.10754,-6.61e-4 0.16131,-7.14e-4 0.0414,8e-5 0.0827,-1.4e-4 0.12411,-1.36e-4 0.0267,-9.9e-5 0.0535,-1.36e-4 0.0802,-1.3e-4 0,0 -0.2029,0.147416 -0.2029,0.147416 v 0 c -0.0266,5e-6 -0.0532,-3.1e-5 -0.0798,-1.31e-4 -0.0413,4e-6 -0.0825,-2.17e-4 -0.12374,-1.37e-4 -0.0531,-5.2e-5 -0.10623,-2.11e-4 -0.15935,-7.14e-4 -0.14973,-0.0013 -0.29947,-0.0029 -0.44921,-0.0032 -0.30552,-0.001 -0.61103,-0.0016 -0.91655,-9e-4 -0.27381,2.03e-4 -0.54764,0.0013 -0.82145,-7.67e-4 -0.15175,-0.002 -0.30366,-0.0041 -0.45504,-0.01585 0,0 0.20353,-0.144463 0.20353,-0.144463 z"
           id="path3811-2-9-1"
           style="opacity:1;fill:#000000;fill-opacity:1;fill-rule:evenodd;stroke:#000000;stroke-width:0.1;stroke-linecap:round;stroke-linejoin:bevel;stroke-miterlimit:4;stroke-dasharray:none;stroke-dashoffset:0;stroke-opacity:1" />
        <path
           d="m 107.83678,-21.029296 c 0.035,0.0013 0.07,0.0013 0.10495,0.0011 0.037,-0.0053 0.0735,-0.02667 0.11006,-0.04419 0.0384,-0.01746 0.0773,-0.02188 0.11609,-0.02479 0.0352,-0.0021 0.0704,-0.0019 0.10558,-0.0016 0.0454,5.29e-4 0.0908,7.93e-4 0.13621,7.93e-4 0.0384,1.6e-5 0.0769,-2.64e-4 0.11531,-7.93e-4 0.0207,0.0019 0.0411,-0.01169 0.0617,-0.01849 0.0142,-0.0042 0.0285,-0.0055 0.0427,-0.0056 0.0206,2.3e-5 0.0412,2.46e-4 0.0618,5.29e-4 0.0175,2.11e-4 0.035,1.85e-4 0.0526,8.7e-5 0,0 -0.0548,0.121423 -0.0548,0.121423 v 0 c -0.0175,-1.33e-4 -0.035,-1.96e-4 -0.0526,-6.7e-5 -0.0207,8.2e-5 -0.0414,-3.7e-5 -0.0622,7.94e-4 -0.0141,7.94e-4 -0.0282,0.0024 -0.0422,0.0071 -0.0205,0.0074 -0.0409,0.01844 -0.0616,0.0154 -0.0382,-5.29e-4 -0.0764,-7.94e-4 -0.11462,-7.94e-4 -0.0455,-2.17e-4 -0.0911,-7.9e-5 -0.13665,1.96e-4 -0.0351,10e-5 -0.0703,-2.46e-4 -0.10539,0.0019 -0.0387,0.0032 -0.0774,0.0085 -0.11561,0.02709 -0.0366,0.01804 -0.0734,0.03847 -0.11056,0.04131 -0.0353,-1.8e-5 -0.0707,-10e-5 -0.10601,0.0011 0,0 0.0552,-0.122368 0.0552,-0.122368 z"
           id="path2500-2"
           style="opacity:1;fill:#000000;fill-opacity:1;fill-rule:evenodd;stroke:#000000;stroke-width:0.15171215;stroke-linecap:round;stroke-linejoin:bevel;stroke-miterlimit:4;stroke-dasharray:none;stroke-dashoffset:0;stroke-opacity:1" />
        <path
           d="m 103.16065,-25.692075 c 0.0309,-0.05033 0.0518,-0.105959 0.0773,-0.159123 0.0285,-0.05706 0.0575,-0.11387 0.0858,-0.17106 0.0295,-0.06711 0.0711,-0.104363 0.15471,-0.119028 0.0935,-0.0055 0.18746,-0.0026 0.28111,-0.0022 0.17472,9e-4 0.34945,0.0012 0.52417,0.0015 0.22624,5.56e-4 0.45248,9e-4 0.67871,8.74e-4 0.21352,-6.6e-5 0.42702,-4.77e-4 0.64053,-7.94e-4 0.16962,-1.7e-4 0.33924,-2.65e-4 0.50886,-5.29e-4 0.14464,-1.07e-4 0.28927,-1.65e-4 0.43391,-2.3e-4 0.11727,-7.1e-5 0.23455,-4.5e-4 0.35182,-5.56e-4 0.10161,-5.4e-5 0.20321,-3.4e-5 0.30481,1.6e-5 0.0981,-2.9e-5 0.19616,-1e-4 0.29424,-1.64e-4 0.0875,-4.2e-5 0.17499,-1.32e-4 0.26248,-1.05e-4 0.0814,4e-6 0.16275,-7.4e-5 0.24412,-1.45e-4 0.0647,-1.02e-4 0.12943,-2.56e-4 0.19415,-2.33e-4 0.0631,3.7e-5 0.12609,7.3e-5 0.18913,2.6e-5 0.057,1.7e-5 0.11396,-1.04e-4 0.17094,-1.7e-4 0.0368,-5.8e-5 0.0735,-3.17e-4 0.11032,-3.17e-4 0.048,1.95e-4 0.096,3.17e-4 0.14394,5.03e-4 0.0761,2.64e-4 0.15223,2.53e-4 0.22834,2.15e-4 0.0625,1e-6 0.125,-2.05e-4 0.1875,-4.5e-4 0.0392,-2.91e-4 0.0785,-1.17e-4 0.11772,-6e-5 0.0455,1.33e-4 0.0909,1.9e-5 0.13638,-1.3e-5 0.0324,-6.5e-5 0.0649,-1.79e-4 0.0973,-2.41e-4 0.0233,-2.64e-4 0.0458,-0.0038 0.0641,0.01288 0.013,0.01635 0.0193,0.03536 0.0264,0.05467 0.0161,0.03967 0.031,0.07975 0.0429,0.120907 0.01,0.0363 0.0198,0.07256 0.0335,0.107649 0.003,0.01144 0.009,0.02194 0.014,0.03263 0,0 -0.0906,0.05132 -0.0906,0.05132 v 0 c -0.005,-0.01098 -0.0108,-0.02176 -0.014,-0.03351 -0.0135,-0.03557 -0.0233,-0.07216 -0.0333,-0.108826 -0.0113,-0.04095 -0.0262,-0.08073 -0.0431,-0.119728 -0.007,-0.01736 -0.0124,-0.03496 -0.0243,-0.04977 -0.017,-0.01231 -0.04,-0.0057 -0.0596,-0.0072 -0.0322,-6.2e-5 -0.0644,-1.76e-4 -0.0966,-2.4e-4 -0.0455,-3.3e-5 -0.0909,-1.47e-4 -0.13635,-1.3e-5 -0.0392,5.6e-5 -0.0784,2.38e-4 -0.11755,-6.1e-5 -0.0621,-2.48e-4 -0.12417,-4.49e-4 -0.18626,-4.49e-4 -0.0763,-3.8e-5 -0.15262,-4.9e-5 -0.22893,2.15e-4 -0.0484,1.64e-4 -0.0969,2.91e-4 -0.14529,5.03e-4 -0.0365,1.4e-5 -0.073,-2.54e-4 -0.10947,-3.18e-4 -0.0568,-6.5e-5 -0.11364,-1.87e-4 -0.17046,-1.69e-4 -0.0631,-4.8e-5 -0.12614,-1.1e-5 -0.18921,2.5e-5 -0.0645,2.3e-5 -0.129,-1.3e-4 -0.19351,-2.32e-4 -0.0812,-7.1e-5 -0.16248,-1.49e-4 -0.24372,-1.45e-4 -0.0874,2.7e-5 -0.17479,-6.3e-5 -0.26219,-1.05e-4 -0.0979,-6.5e-5 -0.19586,-1.35e-4 -0.29378,-1.64e-4 -0.10162,5e-5 -0.20324,7e-5 -0.30485,1.5e-5 -0.11678,-9.4e-5 -0.23356,-4.76e-4 -0.35034,-5.55e-4 -0.14442,-6.6e-5 -0.28885,-1.24e-4 -0.43327,-2.3e-4 -0.16914,-2.53e-4 -0.33828,-3.44e-4 -0.50742,-5.29e-4 -0.21278,-3.18e-4 -0.42557,-7.15e-4 -0.63836,-7.94e-4 -0.22694,-1.8e-5 -0.45388,3.17e-4 -0.68082,6.35e-4 -0.17539,2.3e-5 -0.35077,-1.17e-4 -0.52616,-2.1e-5 -0.0946,1.42e-4 -0.19002,-0.0029 -0.28414,0.0074 -0.005,0.0016 -0.0209,0.0081 -0.0162,0.0049 0.0244,-0.01667 0.0504,-0.03075 0.0758,-0.04571 0.004,-0.0022 -0.008,0.0045 -0.011,0.0076 -0.0133,0.01265 -0.0192,0.03149 -0.0275,0.04717 -0.0291,0.05709 -0.0579,0.114321 -0.087,0.17141 -0.0254,0.05281 -0.0464,0.107682 -0.0742,0.159308 0,0 -0.0955,0.04177 -0.0955,0.04177 z"
           id="path2606"
           style="opacity:1;fill:none;fill-opacity:1;fill-rule:evenodd;stroke:#000000;stroke-width:0.15000001;stroke-linecap:round;stroke-linejoin:round;stroke-miterlimit:4;stroke-dasharray:none;stroke-dashoffset:0;stroke-opacity:1" />
        <g
           id="g2744-4-9"
           transform="translate(48.924642,9.6877787)">
          <path
             style="opacity:1;fill:#000000;fill-opacity:1;fill-rule:evenodd;stroke:#000000;stroke-width:0.1;stroke-linecap:round;stroke-linejoin:bevel;stroke-miterlimit:4;stroke-dasharray:none;stroke-dashoffset:0;stroke-opacity:1"
             id="path1295-6-4-6"
             d="m 58.882153,-33.387447 c -0.01035,0.07017 -0.02754,0.138454 -0.05263,0.204732 -0.03329,0.08212 -0.06841,0.163441 -0.103505,0.244794 -0.0254,0.05456 -0.04803,0.110104 -0.06879,0.166564 -0.01064,0.0374 -0.02619,0.07284 -0.04564,0.106428 -0.01098,0.01783 -0.006,0.0094 -0.01508,0.02536 0,0 -0.164258,0.07411 -0.164258,0.07411 v 0 c 0.0083,-0.01782 0.0033,-0.009 0.015,-0.02637 0.01937,-0.03305 0.03871,-0.06622 0.04783,-0.103959 0.0209,-0.05717 0.04373,-0.11341 0.07007,-0.168307 0.03553,-0.08105 0.0713,-0.161936 0.103952,-0.244217 0.02556,-0.06429 0.04334,-0.130591 0.05208,-0.199344 0,0 0.16097,-0.07979 0.16097,-0.07979 z" />
          <g
             id="g2701-4-2">
            <path
               d="m 58.690528,-33.507738 c 0.0024,-0.10429 7.93e-4,-0.20845 0.0087,-0.312522 0.01043,-0.08494 0.02363,-0.171248 0.05995,-0.249413 0.05198,-0.08531 0.151426,-0.140875 0.244422,-0.168749 0.03679,-0.01057 0.06118,0.0074 0.07792,0.03891 0.01873,0.05367 0.02376,0.110398 0.02808,0.166669 0.0056,0.06255 0.007,0.124299 -0.0079,0.185527 -0.01553,0.05237 -0.04695,0.09667 -0.07823,0.140533 -0.01921,0.02778 -0.04721,0.047 -0.06283,0.07722 -0.01082,0.02809 -0.01069,0.05861 -0.01119,0.08827 -5.3e-4,0.0051 -0.0011,0.01024 -0.0013,0.01536 0,0 -0.161573,0.07952 -0.161573,0.07952 v 0 c 7.94e-4,-0.0045 0.0019,-0.0089 0.0026,-0.01341 2.09e-4,-0.0316 -2.9e-5,-0.06367 0.0079,-0.09448 0.01215,-0.03477 0.03757,-0.0553 0.06241,-0.08125 0.03034,-0.04309 0.06384,-0.08439 0.08132,-0.134995 0.01754,-0.05925 0.01638,-0.119206 0.01122,-0.180459 -0.004,-0.05376 -0.0091,-0.107672 -0.02656,-0.15905 -0.01452,-0.02707 -0.03584,-0.02833 -0.06339,-0.01769 -0.06378,0.02802 -0.02466,0.01156 0.121843,-0.0739 0.0055,-0.0032 -0.01114,0.0063 -0.01632,0.0101 -0.01818,0.01317 -0.03391,0.02947 -0.04583,0.04849 -0.04161,0.07469 -0.05417,0.161248 -0.06636,0.244815 -0.0087,0.102836 -0.0081,0.205821 -0.0047,0.308932 0,0 -0.160088,0.08157 -0.160088,0.08157 z"
               id="path1293-0-47-1"
               style="opacity:1;fill:#000000;fill-opacity:1;fill-rule:evenodd;stroke:#000000;stroke-width:0.1;stroke-linecap:round;stroke-linejoin:bevel;stroke-miterlimit:4;stroke-dasharray:none;stroke-dashoffset:0;stroke-opacity:1" />
            <path
               d="m 57.389598,-32.497766 c 0.05001,-0.07769 0.09577,-0.158024 0.144185,-0.236723 0.06678,-0.101359 0.13843,-0.199249 0.205256,-0.300591 0.03391,-0.04723 0.05867,-0.102575 0.106505,-0.13765 -0.0079,0.02454 0.135493,-0.124351 0.199443,-0.08883 0.02011,0.01117 0.03554,0.03262 0.0499,0.04964 0.06313,0.08192 0.127436,0.162887 0.190592,0.244797 0.06876,0.08684 0.130239,0.178068 0.179605,0.2772 0.02013,0.04528 0.04222,0.08952 0.05972,0.135921 0,0 -0.15707,0.08692 -0.15707,0.08692 v 0 c -0.01556,-0.04653 -0.03667,-0.09067 -0.05568,-0.135844 -0.04782,-0.09863 -0.108122,-0.189202 -0.176353,-0.275049 -0.06295,-0.08183 -0.128026,-0.161886 -0.193447,-0.241737 -0.01172,-0.01274 -0.02682,-0.03406 -0.04522,-0.03889 -0.0087,-0.0023 -0.015,7.68e-4 -0.02315,0.0031 0.04642,-0.02731 0.09283,-0.05462 0.139252,-0.08193 -0.05454,0.02682 -0.07869,0.0851 -0.113289,0.13202 -0.06778,0.101079 -0.13889,0.199685 -0.20687,0.30061 -0.04751,0.07751 -0.09265,0.156337 -0.138374,0.234888 0,0 -0.16501,0.0722 -0.16501,0.0722 z"
               id="path1309-3-6-7"
               style="opacity:1;fill:#000000;fill-opacity:1;fill-rule:evenodd;stroke:#000000;stroke-width:0.1;stroke-linecap:round;stroke-linejoin:bevel;stroke-miterlimit:4;stroke-dasharray:none;stroke-dashoffset:0;stroke-opacity:1" />
            <path
               d="m 57.244189,-32.464811 c -0.03457,-0.02651 -0.06225,-0.05936 -0.0747,-0.101394 -0.0028,-0.01904 7.94e-4,-0.04082 0.01921,-0.0516 0.164044,-0.09622 0.107103,-0.0832 0.189151,-0.09887 0.04211,-0.0058 0.0848,-0.01006 0.125518,0.0042 0.02222,0.008 0.04201,0.02146 0.06229,0.03335 0,0 -0.150249,0.09766 -0.150249,0.09766 v 0 c -0.01961,-0.01094 -0.03894,-0.02301 -0.0606,-0.02951 -0.03945,-0.0094 -0.0801,-0.0051 -0.119412,0.0034 -0.07033,0.02361 -0.01394,0.0061 0.120944,-0.07593 0.0041,-0.0025 -0.0092,0.0031 -0.01331,0.0055 -0.01013,0.006 -0.0154,0.01429 -0.0154,0.02588 0.009,0.0389 0.03569,0.06796 0.06826,0.09009 0,0 -0.151685,0.09712 -0.151685,0.09712 z"
               id="path1311-2-3-8"
               style="opacity:1;fill:#000000;fill-opacity:1;fill-rule:evenodd;stroke:#000000;stroke-width:0.1;stroke-linecap:round;stroke-linejoin:bevel;stroke-miterlimit:4;stroke-dasharray:none;stroke-dashoffset:0;stroke-opacity:1" />
            <path
               d="m 57.998838,-32.857472 c 0.04648,0.03713 0.09418,0.07282 0.1371,0.114103 0.02853,0.02715 0.04717,0.05904 0.06436,0.09371 0.0024,0.0039 0.0047,0.0078 0.0071,0.0117 0,0 -0.155758,0.09039 -0.155758,0.09039 v 0 c -0.0026,-0.0044 -0.0053,-0.0087 -0.0079,-0.01309 -0.01593,-0.03288 -0.03275,-0.06343 -0.05974,-0.08919 -0.04264,-0.04121 -0.09,-0.07708 -0.137716,-0.112194 0,0 0.152589,-0.09542 0.152589,-0.09542 z"
               id="path1315-0-1-5"
               style="opacity:1;fill:#000000;fill-opacity:1;fill-rule:evenodd;stroke:#000000;stroke-width:0.1;stroke-linecap:round;stroke-linejoin:bevel;stroke-miterlimit:4;stroke-dasharray:none;stroke-dashoffset:0;stroke-opacity:1" />
            <path
               d="m 58.735719,-33.32015 c -0.04863,0.02421 -0.10092,0.04035 -0.147471,0.06866 0.253116,-0.140565 0.142055,-0.0936 0.100923,-0.04749 -0.01582,0.01773 -0.02807,0.03849 -0.0408,0.05841 -0.02471,0.04085 -0.04385,0.08466 -0.06571,0.127053 -0.02519,0.04099 -0.04384,0.08438 -0.05821,0.130171 -0.01071,0.04213 -0.01709,0.08505 -0.02696,0.127384 -0.0019,0.01576 -0.0016,0.0083 -0.0013,0.02235 0,0 -0.160555,0.08256 -0.160555,0.08256 v 0 c -0.0011,-0.0169 -7.93e-4,-0.0079 -5.8e-5,-0.02696 0.0099,-0.04292 0.01926,-0.08567 0.0277,-0.128922 0.01304,-0.04679 0.02952,-0.09195 0.05622,-0.132904 0.0218,-0.04293 0.04271,-0.08624 0.06537,-0.12872 0.07586,-0.120316 0.07435,-0.100399 0.24256,-0.195318 0.04861,-0.02533 0.100398,-0.0438 0.149629,-0.0679 0,0 -0.141231,0.111619 -0.141231,0.111619 z"
               id="path1319-6-7-7"
               style="opacity:1;fill:#000000;fill-opacity:1;fill-rule:evenodd;stroke:#000000;stroke-width:0.1;stroke-linecap:round;stroke-linejoin:bevel;stroke-miterlimit:4;stroke-dasharray:none;stroke-dashoffset:0;stroke-opacity:1" />
            <path
               d="m 59.05886,-33.329779 c 0.08834,0.01933 0.174207,0.04452 0.2565,0.08225 0.09495,0.04956 0.164642,0.126739 0.223581,0.214272 0.04436,0.07188 0.08079,0.148122 0.104505,0.229192 0.0089,0.03806 0.0051,0.01951 0.01159,0.05561 0,0 -0.157798,0.08369 -0.157798,0.08369 v 0 c -0.0053,-0.03525 -0.0021,-0.01713 -0.0098,-0.05434 -0.02154,-0.07991 -0.05687,-0.154723 -0.09995,-0.225347 -0.05686,-0.08523 -0.125441,-0.159322 -0.218329,-0.206026 -0.08285,-0.03664 -0.169275,-0.06067 -0.258326,-0.07719 0,0 0.148053,-0.102123 0.148053,-0.102123 z"
               id="path1321-1-5-4"
               style="opacity:1;fill:#000000;fill-opacity:1;fill-rule:evenodd;stroke:#000000;stroke-width:0.1;stroke-linecap:round;stroke-linejoin:bevel;stroke-miterlimit:4;stroke-dasharray:none;stroke-dashoffset:0;stroke-opacity:1" />
          </g>
        </g>
      </g>
      <rect
         style="opacity:1;fill:none;fill-opacity:1;fill-rule:evenodd;stroke:none;stroke-width:0.05;stroke-linecap:round;stroke-linejoin:round;stroke-miterlimit:4;stroke-dasharray:none;stroke-dashoffset:0;stroke-opacity:1"
         id="rect2926-8"
         width="9.260417"
         height="7.9375"
         x="0.025"
         y="289.03751" />
      <g
         id="g4211"
         transform="translate(-101.3104,316.15209)">
        <path
           d="m 102.87903,-20.743744 c -0.01,0.08309 -0.0202,0.166087 -0.0352,0.248401 -0.012,0.06307 -0.0382,0.121896 -0.0592,0.182171 -0.015,0.04204 -0.0299,0.08407 -0.0465,0.125517 -0.0159,0.03591 -0.0328,0.07117 -0.0462,0.108082 -0.0118,0.03606 -0.0245,0.07189 -0.0336,0.10874 -0.004,0.02474 -0.0132,0.04799 -0.0199,0.07197 -0.004,0.01376 -0.005,0.02499 2.7e-4,0.03783 0.01,0.0078 0.0199,0.01647 0.0312,0.02236 0.0165,0.0077 0.0357,0.0062 0.0535,0.0066 0.044,6.62e-4 0.088,6.62e-4 0.13198,7.14e-4 0.0517,-5e-6 0.10339,-2.05e-4 0.15509,-3.96e-4 0.019,-6.9e-5 0.0381,-1.07e-4 0.0571,-1.43e-4 0,0 -0.14534,0.105596 -0.14534,0.105596 v 0 c -0.0189,-3e-5 -0.0378,-6.3e-5 -0.0567,-1.16e-4 -0.0515,-1.35e-4 -0.10291,-2.52e-4 -0.15436,-1.26e-4 -0.0446,1.63e-4 -0.0893,7.94e-4 -0.13389,-1.94e-4 -0.0207,-10e-4 -0.0417,-0.0018 -0.0594,-0.01389 -0.0132,-0.0093 -0.0277,-0.01768 -0.0368,-0.03137 -0.008,-0.0165 -0.011,-0.03047 -0.006,-0.04866 0.005,-0.02476 0.0167,-0.04733 0.0208,-0.07227 0.008,-0.03784 0.0217,-0.07398 0.033,-0.110952 0.0138,-0.03694 0.0276,-0.07346 0.046,-0.108492 0.0165,-0.04145 0.0325,-0.08297 0.0474,-0.125018 0.0206,-0.06029 0.0485,-0.118241 0.0622,-0.180775 0.0163,-0.08107 0.0274,-0.163308 0.0331,-0.245811 0,0 0.16097,-0.07979 0.16097,-0.07979 z"
           id="path1736-8"
           style="opacity:1;fill:#000000;fill-opacity:1;fill-rule:evenodd;stroke:#000000;stroke-width:0.1;stroke-linecap:round;stroke-linejoin:bevel;stroke-miterlimit:4;stroke-dasharray:none;stroke-dashoffset:0;stroke-opacity:1" />
        <path
           d="m 103.19706,-19.71675 c -0.0138,-0.06527 -0.0233,-0.131451 -0.0322,-0.197539 -0.0103,-0.08701 -0.0112,-0.17475 -0.0125,-0.262251 -7.9e-4,-0.07981 -7.9e-4,-0.159628 -0.001,-0.239442 -2.6e-4,-0.04335 -5.3e-4,-0.0867 -5.3e-4,-0.130052 -2e-5,-0.02974 -2.3e-4,-0.05948 -1.9e-4,-0.08922 -1.6e-4,-0.02309 -5e-5,-0.04617 -2.2e-4,-0.06926 5.2e-4,-0.01999 -10e-4,-0.04005 7.9e-4,-0.05997 0.007,-0.01978 0.0111,-0.04015 0.0135,-0.06101 0.004,-0.04226 0.0148,-0.08341 0.0221,-0.125115 0.0189,-0.139504 0.0387,-0.112012 0.19276,-0.204351 0.0269,0.0043 0.0502,0.01904 0.0745,0.03052 0.0299,0.01323 0.0623,0.01646 0.0946,0.01843 0.0189,0.0015 0.0384,-0.0011 0.0546,-0.01125 0.003,-0.0019 0.0119,-0.0079 0.009,-0.0062 -0.0491,0.02779 -0.0978,0.05619 -0.14674,0.08429 0.0162,-0.01335 -0.0167,-0.03203 -0.0255,-0.0385 -0.053,-0.02863 -0.0959,-0.05999 -0.1385,-0.102589 -0.0374,-0.04059 -0.0649,-0.08856 -0.0826,-0.140621 -0.0137,-0.04652 -0.0166,-0.09516 -0.0183,-0.143348 -0.003,-0.03222 0.002,-0.06344 0.008,-0.09482 0.005,-0.01694 0.007,-0.03436 0.008,-0.05205 0.001,-0.03032 0.001,-0.06034 -0.003,-0.09034 -0.009,-0.03932 -0.02,-0.07828 -0.0329,-0.116591 -0.0107,-0.04252 -0.0339,-0.07802 -0.0585,-0.113474 -0.009,-0.01183 -0.0195,-0.02588 -0.0368,-0.02297 -0.0136,0.0023 -0.0491,0.02482 -0.037,0.01821 0.0419,-0.02295 0.0836,-0.04631 0.1254,-0.06947 -0.0786,0.05726 -0.15152,0.12229 -0.22136,0.189827 -0.0628,0.05726 -0.0956,0.121478 -0.11324,0.203246 -0.0104,0.06374 -0.01,0.128543 -0.009,0.192923 0.003,0.133236 -0.001,0.08527 -0.17207,0.185919 -0.0133,0.0012 -0.0264,0.002 -0.0393,0.0054 -0.0617,0.01648 -0.20861,0.108902 0.0568,-0.04082 -0.0357,0.02715 -0.0568,0.06446 -0.0682,0.107042 -0.01,0.06977 0.044,0.119821 0.0909,0.163116 0.0326,0.03191 0.0729,0.0532 0.10935,0.07998 0,0 -0.1507,0.09551 -0.1507,0.09551 v 0 c -0.0367,-0.02703 -0.0761,-0.05054 -0.10894,-0.08267 -0.051,-0.04796 -0.10681,-0.102496 -0.10212,-0.178157 0.009,-0.0463 0.0293,-0.08642 0.0633,-0.119817 0.11941,-0.0702 0.17112,-0.113615 0.2899,-0.141928 -0.0472,0.02871 -0.0945,0.05732 -0.1417,0.08613 -0.003,0.0017 0.007,-0.0021 0.008,-0.0047 0.0122,-0.0169 0.003,-0.05524 0.005,-0.07396 1e-5,-0.06557 -7.9e-4,-0.131476 0.008,-0.19655 0.0156,-0.08232 0.0472,-0.156111 0.11071,-0.213596 0.0684,-0.06845 0.14202,-0.132177 0.21817,-0.191921 0.06,-0.0356 0.11929,-0.07243 0.18002,-0.106788 0.0353,-0.01997 0.0673,-0.0059 0.0884,0.02519 0.0252,0.03685 0.0495,0.0739 0.0607,0.117819 0.0135,0.03906 0.0242,0.07891 0.0348,0.118821 0.005,0.03099 0.007,0.06172 0.005,0.0932 -2.4e-4,0.01848 0.001,0.03789 -0.006,0.05545 -0.009,0.02971 -0.014,0.05992 -0.0116,0.09099 0.001,0.04665 0.003,0.09377 0.0152,0.139021 0.0162,0.04961 0.0424,0.09518 0.0779,0.13372 0.0425,0.04185 0.0864,0.07076 0.13837,0.09961 0.021,0.0157 0.0472,0.03608 0.0409,0.06572 -0.083,0.05052 -0.13738,0.113995 -0.23002,0.106533 -0.0338,-0.0032 -0.0675,-0.0088 -0.0984,-0.02383 -0.0183,-0.0088 -0.0449,-0.02778 -0.065,-0.01605 0.0484,-0.02918 0.0963,-0.05925 0.14518,-0.08755 0.004,-0.0023 -0.007,0.0058 -0.0101,0.0094 -0.0202,0.02552 -0.0224,0.05979 -0.0271,0.09059 -0.007,0.04105 -0.0167,0.08168 -0.0207,0.123027 -0.002,0.02132 -0.003,0.04347 -0.0119,0.06334 -0.009,0.01598 -2.6e-4,0.03835 -0.003,0.05596 -1.8e-4,0.02316 -6e-5,0.04632 -2.2e-4,0.06949 3e-5,0.02982 -1.7e-4,0.05963 -2.3e-4,0.08944 -1.5e-4,0.04362 -5.3e-4,0.08725 -10e-4,0.130869 -7.9e-4,0.08 -0.001,0.159998 -2.6e-4,0.239994 0.001,0.08674 0.002,0.173687 0.0124,0.259947 0.009,0.06496 0.0181,0.130166 0.0336,0.193846 0,0 -0.15813,0.0862 -0.15813,0.0862 z"
           id="path1738-6"
           style="opacity:1;fill:#000000;fill-opacity:1;fill-rule:evenodd;stroke:#000000;stroke-width:0.1;stroke-linecap:round;stroke-linejoin:bevel;stroke-miterlimit:4;stroke-dasharray:none;stroke-dashoffset:0;stroke-opacity:1" />
        <path
           d="m 102.85562,-21.288639 c 0.052,0.04298 0.0962,0.09392 0.13769,0.146838 0.0429,0.05344 0.0674,0.106753 0.0741,0.17473 0.002,0.06164 -0.0284,0.115139 -0.0646,0.162748 -0.0674,0.07523 -0.16029,0.131156 -0.25683,0.16006 0,0 0.14132,-0.109989 0.14132,-0.109989 v 0 c 0.0685,-0.02668 0.0239,-0.01059 -0.11077,0.06978 -0.007,0.0044 0.0152,-0.0077 0.0221,-0.0126 0.0161,-0.0112 0.0266,-0.02334 0.0402,-0.03733 0.0367,-0.04236 0.0684,-0.09279 0.0703,-0.150341 -0.005,-0.06852 -0.0259,-0.111911 -0.0681,-0.166189 -0.041,-0.05209 -0.0845,-0.102456 -0.13797,-0.142282 0,0 0.15259,-0.09542 0.15259,-0.09542 z"
           id="path1742-8"
           style="opacity:1;fill:#000000;fill-opacity:1;fill-rule:evenodd;stroke:#000000;stroke-width:0.1;stroke-linecap:round;stroke-linejoin:bevel;stroke-miterlimit:4;stroke-dasharray:none;stroke-dashoffset:0;stroke-opacity:1" />
      </g>
    </g>
  </g>
</svg>
