<?xml version="1.0" encoding="UTF-8" standalone="no"?>
<svg
   xmlns:dc="http://purl.org/dc/elements/1.1/"
   xmlns:cc="http://creativecommons.org/ns#"
   xmlns:rdf="http://www.w3.org/1999/02/22-rdf-syntax-ns#"
   xmlns:svg="http://www.w3.org/2000/svg"
   xmlns="http://www.w3.org/2000/svg"
   xmlns:sodipodi="http://sodipodi.sourceforge.net/DTD/sodipodi-0.dtd"
   xmlns:inkscape="http://www.inkscape.org/namespaces/inkscape"
   id="svg1167"
   version="1.1"
   viewBox="0 0 30.35047 26.3445"
   height="26.3445mm"
   width="30.35047mm"
   sodipodi:docname="tabIconDI.svg"
   inkscape:version="0.92.3 (2405546, 2018-03-11)">
  <sodipodi:namedview
     pagecolor="#ffffff"
     bordercolor="#666666"
     borderopacity="1"
     objecttolerance="10"
     gridtolerance="10"
     guidetolerance="10"
     inkscape:pageopacity="0"
     inkscape:pageshadow="2"
     inkscape:window-width="1920"
     inkscape:window-height="985"
     id="namedview11"
     showgrid="false"
     inkscape:zoom="4.740395"
     inkscape:cx="55.852648"
     inkscape:cy="55.874479"
     inkscape:window-x="0"
     inkscape:window-y="33"
     inkscape:window-maximized="1"
     inkscape:current-layer="svg1167" />
  <defs
     id="defs1161" />
  <metadata
     id="metadata1164">
    <rdf:RDF>
      <cc:Work
         rdf:about="">
        <dc:format>image/svg+xml</dc:format>
        <dc:type
           rdf:resource="http://purl.org/dc/dcmitype/StillImage" />
        <dc:title></dc:title>
      </cc:Work>
    </rdf:RDF>
  </metadata>
  <g
     id="g832">
    <path
       inkscape:connector-curvature="0"
       id="path818"
       d="M 1.2945641,13.134981 22.25875,13.134561 25.786354,6.6419396 14.455987,3.5721357 3.1814334,8.0373053 Z"
       style="fill:#ffffff;fill-rule:evenodd;stroke:none;stroke-width:0.26458335px;stroke-linecap:butt;stroke-linejoin:miter;stroke-opacity:1;fill-opacity:1" />
    <path
       inkscape:connector-curvature="0"
       id="path820"
       d="m 8.3555601,13.689751 13.9031849,0.01352 0.736878,6.557436 -17.3025319,-0.111629 z"
       style="fill:#ffffff;fill-rule:evenodd;stroke:none;stroke-width:0.26458335px;stroke-linecap:butt;stroke-linejoin:miter;stroke-opacity:1" />
    <g
       id="layer1"
       transform="translate(0,-270.6555)">
      <g
         id="g1836"
         transform="translate(-1.1856812,27.653161)">
        <path
           id="path1814"
           d="m 2.6793594,269.32166 c -0.5295185,-0.0284 -0.6510349,-0.0506 -0.8812648,-0.16068 -0.311666,-0.14907 -0.3901047,-0.25239 -0.4976574,-0.65548 -0.070612,-0.26466 -0.081048,-0.76322 -0.096943,-4.6315 l -0.017813,-4.33491 h 0.353975 c 0.6117082,0 0.5485318,0.11896 0.7563229,-1.42417 0.099225,-0.73687 0.1835557,-1.34287 0.1874006,-1.34663 0.00384,-0.004 1.5934369,-0.0225 3.5324263,-0.0415 l 3.5254353,-0.0347 0.028161,0.2069 c 0.015489,0.1138 0.061854,0.94041 0.1030348,1.83692 0.041181,0.89652 0.08579,1.72038 0.099132,1.83082 l 0.024257,0.20079 h 1.6389389 c 2.173659,-0.003 3.237166,-0.0569 3.670561,-0.19013 0.370705,-0.11396 0.878725,-0.3564 1.177253,-0.56179 0.681343,-0.46876 1.347374,-1.68971 1.573094,-2.88375 l 0.08058,-0.42624 h 1.761899 1.761899 v 2.03163 2.0316 h 0.992187 0.992188 v -2.0316 -2.03163 h 3.372904 3.372903 l 0.02719,0.15356 c 0.01495,0.0845 0.08242,0.58939 0.149934,1.1221 0.06752,0.53271 0.154165,1.08103 0.192553,1.21851 0.08376,0.29988 0.160624,0.34065 0.642348,0.34065 h 0.333893 l -0.02858,4.26405 c -0.01572,2.34522 -0.04858,4.38621 -0.07302,4.53554 -0.08052,0.49202 -0.478596,0.87107 -0.991364,0.94393 -0.367334,0.0522 -26.8253894,0.0894 -27.7638321,0.039 z"
           style="opacity:1;vector-effect:none;fill:#316fa8;fill-opacity:1;fill-rule:evenodd;stroke:none;stroke-width:0;stroke-linecap:butt;stroke-linejoin:miter;stroke-miterlimit:4;stroke-dasharray:none;stroke-dashoffset:0;stroke-opacity:1" />
        <path
           id="path1816"
           d="m 11.679917,257.83819 v -1.13393 h 2.124935 2.124935 l -0.0267,0.15357 c -0.19706,1.13318 -0.902604,1.93633 -1.817117,2.06851 -0.166956,0.0241 -0.776618,0.0443 -1.354803,0.0448 H 11.67992 Z"
           style="opacity:1;vector-effect:none;fill:#316fa8;fill-opacity:1;fill-rule:evenodd;stroke:none;stroke-width:0;stroke-linecap:butt;stroke-linejoin:miter;stroke-miterlimit:4;stroke-dasharray:none;stroke-dashoffset:0;stroke-opacity:1" />
        <path
           id="path1818"
           d="m 11.680328,254.49547 c 2.26e-4,-0.90302 0.01382,-1.75345 0.03021,-1.88989 l 0.02979,-0.24805 h 1.021041 c 1.54562,0.003 1.904515,0.0834 2.386231,0.54494 0.503367,0.48231 0.879045,1.71746 0.879045,2.89009 v 0.34378 H 13.85328 11.679917 Z"
           style="opacity:1;vector-effect:none;fill:#3d85c6;fill-opacity:1;fill-rule:evenodd;stroke:none;stroke-width:0;stroke-linecap:butt;stroke-linejoin:miter;stroke-miterlimit:4;stroke-dasharray:none;stroke-dashoffset:0;stroke-opacity:1" />
        <path
           id="path1820"
           d="M 2.3037798,254.8262 C 2.2067237,254.10508 2.1113146,253.48368 2.0917597,253.44529 2.043171,253.3499 1.886632,253.31276 1.5099956,253.3072 l -0.3189174,-0.005 0.00122,-4.26405 c 6.694e-4,-2.34522 0.021506,-4.47263 0.046302,-4.72758 0.061245,-0.62968 0.1536671,-0.82203 0.5246252,-1.09196 l 0.2972067,-0.21627 12.0739729,5e-5 c 6.640685,5e-5 12.949363,0.014 14.019285,0.0312 l 1.94531,0.0312 -0.563526,1.12631 c -0.325414,0.6504 -0.538049,1.1263 -0.503235,1.1263 0.03316,0 0.593363,-0.17801 1.244894,-0.39555 l 1.184603,-0.39555 0.03085,1.02158 c 0.01696,0.56187 0.0309,2.53452 0.03097,4.38367 l 9.5e-5,3.36211 -0.413412,0.0306 c -0.227375,0.0169 -0.444822,0.0349 -0.483216,0.0401 -0.05492,0.007 -0.107386,0.2966 -0.246004,1.35562 -0.09691,0.74035 -0.177115,1.36205 -0.17824,1.38152 -0.0011,0.0196 -1.522198,0.0354 -3.380186,0.0354 h -3.378162 v -2.8112 -2.8112 h -0.992187 -0.992188 v 2.81181 2.8118 l -1.665457,-0.0124 -1.665458,-0.0124 -0.03474,-0.54335 c -0.119189,-1.8643 -0.58854,-3.11893 -1.502371,-4.016 -0.583753,-0.57303 -1.251144,-0.86262 -2.193472,-0.95171 -0.286909,-0.0271 -1.489036,-0.0526 -2.671392,-0.0567 l -2.14974,-0.007 0.00665,2.7994 0.00665,2.79937 H 6.035481 2.4802453 Z"
           style="opacity:1;vector-effect:none;fill:#3d85c6;fill-opacity:1;fill-rule:evenodd;stroke:none;stroke-width:0;stroke-linecap:butt;stroke-linejoin:miter;stroke-miterlimit:4;stroke-dasharray:none;stroke-dashoffset:0;stroke-opacity:1" />
      </g>
    </g>
  </g>
</svg>
